<svg width="242" height="207" viewBox="0 0 242 207" fill="none" xmlns="http://www.w3.org/2000/svg">
<path d="M66.2892 34.6778C84.8256 -7.51991 165.119 14.6901 175.726 38.5311C186.332 62.372 191.106 100.945 164.109 134.901C137.231 168.705 103.091 176.803 74.9202 134.901C53.2251 102.631 51.5849 68.1516 66.2892 34.6778Z" fill="#A0A0A0"/>
<path d="M151.958 8.1975C151.66 9.5509 151.25 14.767 151.626 15.7207C151.852 16.2938 160.159 21.1535 161.837 22.5744C165.24 25.4642 168.186 29.0524 170.876 32.6069C171.628 32.6839 173.32 27.1788 173.05 26.2541C173.335 26.649 173.489 26.9139 173.72 27.2559L162.676 59.0247C158.867 59.0632 155.092 59.3137 151.293 59.357L150.96 7.69178C144.327 3.84349 136.777 2.02772 129.203 1.1704C116.172 -0.298592 101.849 1.02109 90.3749 7.69178C90.158 10.1481 90.722 12.8405 90.7076 15.215C90.6304 29.9194 91.045 44.6671 90.3749 59.357C86.5856 59.3089 82.8011 59.0632 78.9925 59.0247C75.0489 50.7502 71.9056 42.0662 69.2878 33.2764C72.5951 29.9386 75.2466 26.0133 78.8286 22.9115C80.487 21.4762 89.054 16.2746 89.3722 15.7207C90.2689 14.1746 89.3963 9.92176 89.7048 8.02892C89.2902 7.55692 89.0877 8.12043 88.702 8.1975C105.127 -2.40335 133.335 -2.46115 150.459 6.52621C151.033 6.82483 151.867 8.14452 151.963 8.1975H151.958Z" fill="white"/>
<path d="M69.2879 33.2767C68.7094 31.3405 68.4395 28.8938 67.2776 27.2562C70.5173 22.541 83.3026 9.27672 88.6973 8.19785C89.083 8.12079 89.2855 7.55727 89.7001 8.02928C89.3915 9.92211 90.2593 14.175 89.3674 15.721C89.0492 16.2749 80.4823 21.4766 78.8239 22.9119C75.2419 26.0136 72.5952 29.939 69.2831 33.2767H69.2879Z" fill="#D7D5D2"/>
<path d="M173.046 26.2539C173.311 27.1786 171.619 32.6837 170.871 32.6067C168.181 29.0522 165.236 25.4688 161.832 22.5741C160.159 21.1533 151.848 16.2888 151.621 15.7204C151.245 14.7668 151.66 9.55067 151.954 8.19727C160.4 13.0377 167.222 18.2539 173.041 26.2539H173.046Z" fill="#D7D5D2"/>
<path d="M151.293 59.3566C130.973 59.6071 110.696 59.6119 90.375 59.3566C91.0451 44.6667 90.6305 29.9189 90.7076 15.2145C108.531 6.09232 131.903 6.00563 149.784 14.8822V7.5276L129.199 1.1748C136.772 2.0273 144.322 3.84789 150.956 7.69618L151.288 59.3614L151.293 59.3566Z" fill="#D42422"/>
<path d="M129.198 1.17531L149.784 7.52811V14.8827C131.903 6.00613 108.531 6.09283 90.7076 15.215C90.722 12.8406 90.158 10.1434 90.3749 7.69186C101.849 1.026 116.167 -0.298503 129.198 1.17531Z" fill="#D42422"/>
<path d="M160.666 142.622C162.459 144.491 166.19 149.89 168.196 150.983C169.377 151.629 173.918 152.703 175.726 153.324C163.206 173.081 143.44 185.43 122.17 194.119V170.711C125.573 170.634 131.055 169.859 134.386 169.04C145.918 166.198 151.761 156.623 157.146 146.971C149.65 154.543 137.134 165.813 126.354 167.706C110.455 170.49 92.2266 157.726 83.0088 145.637C110.112 169.339 135.061 166.873 160.661 142.627L160.666 142.622Z" fill="#2E2F31"/>
<path d="M229.803 173.722C233.25 177.599 235.598 184.843 237.165 189.775C236.36 191.499 232.03 197.293 231.809 198.637C231.486 200.621 232.734 205.433 232.141 207.831C228.13 207.894 224.1 207.812 220.094 207.831L221.434 180.243L203.022 170.379C204.435 169.585 211.382 165.043 212.226 165.028C212.872 165.019 223.136 169.117 224.273 169.71C225.985 170.601 228.53 172.296 229.798 173.722H229.803Z" fill="#2E2F31"/>
<path d="M238.505 193.781C239.72 198.362 240.458 203.043 241.518 207.657C241.277 207.994 236.09 207.802 235.159 207.826C235.029 202.557 234.542 197.846 238.505 193.781Z" fill="#2E2F31"/>
<path d="M238.505 193.782C234.543 197.847 235.03 202.557 235.16 207.826C234.162 207.85 233.149 207.812 232.147 207.826C232.74 205.428 231.486 200.616 231.814 198.632C232.036 197.288 236.365 191.494 237.17 189.77C237.594 191.108 238.144 192.399 238.51 193.782H238.505Z" fill="#6F7376"/>
<path d="M57.9725 160.953C65.5318 167.624 74.7448 178.673 81.4026 186.533C85.2257 191.046 89.2319 195.655 92.2788 200.746C74.9907 190.887 58.228 180.089 40.9013 170.317L22.4899 180.18L23.8301 207.769C33.7518 207.822 43.6975 207.769 53.6191 207.769L57.4663 189.043L89.4296 207.436C100.335 207.417 111.302 207.826 122.232 207.769V194.056C100.961 185.363 81.2001 173.018 68.6751 153.262C66.9637 153.849 55.9188 156.725 55.4559 157.274L57.9677 160.953H57.9725Z" fill="#D42422"/>
<path d="M187.507 160.837C179.798 167.495 170.402 178.522 163.612 186.367C159.713 190.872 155.627 195.472 152.52 200.553C170.151 190.713 187.222 179.289 204.893 169.536L223.695 180.027L222.328 207.562C212.209 207.615 202.066 207.562 191.947 207.562L187.778 189.042L155.425 207.23C144.304 207.211 133.118 207.619 121.972 207.562V193.876C143.665 185.199 163.818 172.879 176.592 153.16C178.338 153.747 189.602 156.616 190.074 157.164L187.512 160.837H187.507Z" fill="#D42422"/>
<path d="M83.7456 142.564C81.9522 144.433 78.2207 149.832 76.2152 150.926C75.034 151.571 70.4926 152.645 68.6848 153.266C81.2049 173.023 100.971 185.372 122.241 194.061V170.654C118.838 170.576 113.356 169.801 110.025 168.982C98.493 166.141 92.65 156.566 87.2649 146.914C94.7616 154.485 107.277 165.755 118.057 167.648C133.956 170.432 152.185 157.669 161.402 145.58C134.299 169.281 109.35 166.815 83.7504 142.569L83.7456 142.564Z" fill="#2E2F31"/>
<path d="M88.6922 148.045C88.0077 148.007 90.6634 149.63 90.9285 150.347C91.6324 152.269 104.22 159.195 105.392 160.702C119.614 165.278 122.198 165.384 122.198 165.384C122.198 173.572 122.198 186.388 122.198 194.041C101.155 185.863 80.7421 172.763 68.7378 153.165C70.4348 152.592 75.222 151.412 76.2682 150.824C78.2448 149.716 81.3257 144.033 83.6302 142.747C84.2087 143.291 84.7676 144.861 85.4715 145.478L88.6922 148.045Z" fill="#2E2F31"/>
<path d="M155.719 147.862C156.404 147.824 152.851 149.312 152.585 150.03C151.882 151.952 140.432 159.195 139.261 160.703C125.039 165.278 121.972 165.442 121.972 165.442C121.972 173.63 122.454 186.389 122.454 194.042C143.498 185.864 164.686 172.758 176.69 153.16C174.993 152.587 169.43 151.412 168.384 150.824C166.408 149.717 162.845 143.85 160.54 142.564C159.962 143.109 159.885 144.862 159.181 145.478L155.719 147.862Z" fill="#2E2F31"/>
<path d="M89.1891 148.045C88.5045 148.007 91.1602 149.63 91.4254 150.347C92.1292 152.269 104.717 159.195 105.888 160.702C120.11 165.278 123.177 165.442 123.177 165.442C123.177 173.63 122.695 186.388 122.695 194.041C101.651 185.863 80.463 172.758 68.4587 153.16C70.1557 152.587 75.7189 151.412 76.765 150.824C78.7416 149.716 81.8226 144.033 84.127 142.747C84.7055 143.291 85.2645 144.861 85.9683 145.478L89.1891 148.045Z" fill="#2E2F31"/>
<path d="M14.1256 173.664C10.6785 177.541 8.33072 184.785 6.76389 189.717C7.569 191.442 11.8983 197.236 12.12 198.579C12.443 200.564 11.1944 205.375 11.7874 207.774C15.7985 207.836 19.8288 207.755 23.8351 207.774L22.4948 180.186L40.9062 170.322C39.4937 169.527 32.5466 164.985 31.703 164.971C31.0569 164.961 20.793 169.06 19.6553 169.652C17.9438 170.543 15.3983 172.239 14.1304 173.664H14.1256Z" fill="#2E2F31"/>
<path d="M53.624 207.768C65.527 207.768 77.5458 207.455 89.4392 207.436L57.4759 189.042L53.6288 207.768H53.624Z" fill="white"/>
<path d="M191.876 207.586C179.699 207.586 167.404 207.272 155.237 207.252L187.936 188.802L191.871 207.586H191.876Z" fill="white"/>
<path d="M5.42364 193.724C4.20874 198.304 3.47113 202.986 2.41051 207.6C2.65156 207.937 7.83896 207.744 8.76941 207.768C8.89958 202.499 9.3865 197.789 5.42364 193.724Z" fill="#2E2F31"/>
<path d="M5.42371 193.724C9.38657 197.789 8.89965 202.499 8.76949 207.769C9.76743 207.793 10.7798 207.754 11.7826 207.769C11.1896 205.37 12.4431 200.558 12.1153 198.574C11.8935 197.23 7.56423 191.436 6.75912 189.712C6.33487 191.051 5.78528 192.342 5.41888 193.724H5.42371Z" fill="#6F7376"/>
<path d="M230.445 174.593C229.177 173.168 226.371 171.15 224.659 170.259C223.522 169.666 213.253 165.192 212.607 165.201C211.763 165.211 205.129 169.527 203.722 170.321C186.39 180.094 169.632 190.892 152.344 200.751C155.391 195.66 159.402 191.051 163.22 186.538C169.878 178.678 179.091 167.629 186.651 160.958C187.407 160.294 187.734 156.773 190.386 157.736C194.199 158.839 198.096 160.52 201.88 161.628C204.536 162.408 207.318 163.434 209.912 164.301C211.233 164.744 212.78 164.253 212.925 164.301C218.522 166.237 226.949 169.946 230.445 174.593Z" fill="white"/>
<path d="M13.7404 174.112C15.0083 172.686 18.2962 171.212 20.0077 170.321C21.1454 169.729 31.6552 165.192 32.3012 165.201C33.1449 165.211 39.7786 169.527 41.1863 170.321C58.5179 180.094 75.0346 190.984 92.3228 200.843C89.2759 195.752 85.5059 191.051 81.6876 186.538C75.0298 178.678 65.8169 167.629 58.2575 160.958C57.5006 160.294 57.1737 156.773 54.5221 157.736C50.7087 158.839 46.8125 160.52 43.028 161.628C40.3716 162.408 37.5899 163.434 34.9962 164.301C33.6752 164.744 32.1277 164.253 31.9831 164.301C26.3859 166.237 17.2356 169.464 13.7404 174.112Z" fill="white"/>
<path d="M69.2881 33.2763C71.9107 42.0661 75.054 50.7501 78.9928 59.0246C75.054 58.9861 64.4044 57.9457 61.4202 58.6923C60.5042 58.9186 58.7831 60.9126 58.5758 61.8711C57.7852 65.4737 60.2439 84.1613 60.9189 88.9584C61.6468 94.1456 62.6351 101.389 63.932 106.346C74.6153 147.217 147.147 150.001 171.04 119.721C178.243 110.589 181.295 83.5496 182.085 71.5664C182.297 68.3443 183.729 59.723 179.573 58.6923C176.744 57.9891 166.441 58.9861 162.671 59.0246L173.716 27.2558C189.529 50.6778 186.222 79.788 180.412 106.004C176.912 121.787 172.549 131.367 160.665 142.618C135.066 166.863 110.117 169.329 83.0135 145.628C82.3097 145.011 81.249 144.164 80.6705 143.619C54.748 119.239 47.0199 56.7657 67.2826 27.251C68.4396 28.8885 68.7144 31.3353 69.2929 33.2714L69.2881 33.2763Z" fill="#D42422"/>
<path d="M60.9857 163.516C60.9857 163.516 58.1812 156.876 56.1647 157.014C55.7775 157.04 55.5709 157.139 55.2005 157.255C54.7168 157.406 54.2363 157.736 54.2363 157.736L60.9857 163.516Z" fill="#D42422"/>
<path d="M182.716 164.721C182.716 164.721 187.449 156.875 189.465 157.014C189.853 157.04 190.059 157.138 190.43 157.254C190.913 157.406 191.394 157.978 191.394 157.978L182.716 164.721Z" fill="#D42422"/>
<path d="M170.238 63.0947H70.3079C65.9383 63.0947 62.3989 66.5964 62.5626 70.963C63.0121 82.9487 64.8927 105.547 72.5565 116.556C84.1421 133.2 99.51 135.822 119.802 135.822C141.015 135.822 157.507 135.094 169.459 116.556C176.71 105.31 177.897 82.6307 177.99 70.7498C178.024 66.4679 174.52 63.0947 170.238 63.0947Z" fill="white"/>
<path d="M107.99 63.0947L102.442 134.745C94.1894 133.467 86.9692 130.805 80.6582 125.537L84.2139 63.0947H107.99Z" fill="#D5D5D5"/>
</svg>
