<svg width="393" height="782" viewBox="0 0 393 782" fill="none" xmlns="http://www.w3.org/2000/svg">
<g clip-path="url(#clip0_2761_438)">
<path d="M393 0H0V782H393V0Z" fill="#A72116" stroke="#A72116" stroke-miterlimit="10"/>
<path d="M88.4999 610.2C81.4999 607.3 70.6999 624.9 69.2999 626.9C64.5999 633.5 54.8999 643.8 50.8999 657.5C45.2999 682.8 60.2999 701.3 87.1999 725.7C108.3 744.8 170.6 796.4 170.6 796.4C170.6 796.4 220.5 776.5 221.8 766.6C224.7 743.9 101 732.8 86.1999 669.5C79.8999 642.5 96.5999 613.6 88.4999 610.2Z" fill="#782521" stroke="#782521" stroke-miterlimit="10"/>
<path d="M141.5 384.5C143.7 384.7 146.7 384.6 154.7 387C168.2 390.9 209.4 426.4 240.3 446C250.2 452.3 261.9 451.7 265.7 451.9C276.7 452.4 288.9 451.3 294.5 449.6C299 448.3 319.5 444.8 318.9 439C318 429.7 261.2 446.3 218.2 415.6C190.3 395.7 182.8 366.3 163.4 368.1C153.5 369 146.2 377.5 141.4 384.6L141.5 384.5Z" fill="#782521" stroke="#782521" stroke-miterlimit="10"/>
<path d="M267 275.3C262.1 280.7 250.7 287.3 245 298.3C243.3 301.7 239 313.1 244.1 324.8C248.3 334.4 260.9 345.3 288.6 368.9C292 371.8 301.8 379.7 304.1 387.4C308 400 304.2 401 306.5 403.1C309.7 406.2 326.6 399.3 327.5 378.4C327.9 369.4 321.5 362.6 310.1 350.5C292.5 331.8 286.3 335 279.5 323.4C268.2 304.1 276 279.4 269.5 278.1C268.7 277.9 267.9 274.1 267 275.2V275.3Z" fill="#782521" stroke="#782521" stroke-miterlimit="10"/>
<path d="M62.2002 634.1C58.2002 641.3 50.7002 665.5 61.1002 684.4C74.6002 708.7 164.3 775.6 178.8 787.5C194.3 800.3 199.8 810.3 201 810.9C202.7 811.8 206.4 782.4 195.6 768.3C159.5 721.5 65.8002 627.6 62.2002 634.1Z" fill="#81170E" stroke="#81170E" stroke-miterlimit="10"/>
<path d="M75.8999 383.9C71.8999 391.1 60.1999 412 73.0998 429.3C89.2999 451 162.4 506.6 176.8 518.5C192.3 531.3 175.8 549 177 549.6C178.7 550.5 211.4 525.6 200.5 511.6C164.4 464.8 79.3999 377.4 75.7999 383.9H75.8999Z" fill="#81170E" stroke="#81170E" stroke-miterlimit="10"/>
<path d="M268.4 451.7C265.9 451.1 260.6 450.2 256.2 447.9C245.9 442.7 238.8 437.2 235.7 434.8C193.8 402 175.5 386.7 164.7 384.2C152.7 381.4 147 383.2 139 384.9C131.6 386.4 133.4 367.7 138.9 362.7C145.2 356.9 157.9 363.2 200.6 383.6C254.5 409.4 270.9 416.8 272.5 431.7C273.4 439.5 271.3 447.2 268.3 451.7H268.4Z" fill="#81170E" stroke="#81170E" stroke-miterlimit="10"/>
<path d="M256.9 290C254.1 293.3 250.3 304 251 312.6C251.6 320.7 255.5 327.7 264.8 336.4C275.2 346 285.2 352.9 301.7 367.4C304.8 370.1 308.6 373.4 311.8 378.9C314 382.7 313.5 390.7 315.4 389.8C317.3 388.9 323.4 391 323.4 382.2C323.4 350.5 272.2 272.5 256.9 290.1V290Z" fill="#81170E" stroke="#81170E" stroke-miterlimit="10"/>
<path d="M294.7 308.6C296.6 305.2 301 300.5 302.3 299.2C314.1 287.3 409.9 224.5 419.6 218C426.6 213.2 415.2 203.4 408 207.5C350.9 240.1 297.8 280.5 290.9 290.2C287.7 294.7 292 313.6 294.7 308.6Z" fill="#DB3821" stroke="#DB3821" stroke-miterlimit="10"/>
<path d="M347.7 373.2C354.8 365.3 352.7 397.6 352.1 400.8C349.6 413.8 340.3 424 332.6 431.6C327.7 436.5 317.1 445.7 297 450.3C289 452.1 274.5 452.2 268.4 451.6C266.8 451.5 265.6 450.1 265.8 448.5C266.7 439.9 272.3 429.1 270.1 424C269.1 421.7 327.7 395.5 347.7 373.1V373.2Z" fill="#DB3821" stroke="#DB3821" stroke-miterlimit="10"/>
<path d="M143.1 367.2C143.4 368.5 142.6 377 142.2 382.7C142.2 383.7 141.4 384.6 140.4 384.8C137.2 385.7 125.7 391.5 122.5 393.8C116.5 398.2 113.1 402.4 111.9 407.8C110.9 412.1 101.4 401.7 100.3 395.4C98.1001 382.7 112.9 368.8 127.1 365.4C130.6 364.6 141.6 361.1 143 367.2H143.1Z" fill="#DB3821" stroke="#DB3821" stroke-miterlimit="10"/>
<path d="M226.9 513.9C228.1 513.9 229.4 534.7 228.7 542.1C227.4 555.8 220.6 560.1 214.2 565.4C203.1 574.8 180.1 593.3 180.1 593.3C180.1 593.3 105.6 649.7 102.5 660.2C99.4001 670.7 96.2001 672.1 94.3001 672.2C91.9001 672.4 90.1001 654 90.1001 646.7C90.1001 639.4 218.5 513.3 226.8 513.9H226.9Z" fill="#DB3821" stroke="#DB3821" stroke-miterlimit="10"/>
<path d="M271.6 269.6C270.7 270.3 257.2 281 256.4 296.3C256.1 301.7 257.9 308.9 263.5 316.9C269.1 324.9 282 334.4 294 344.4C306 354.4 316.8 364.6 317.6 372.9C318.5 382.1 312 393.2 302.5 400.2C293 407.2 280.3 409.9 268.7 402.4C259.8 396.6 244.9 383.4 228.6 370.6C212.3 357.8 194.7 345.3 180.4 340.9C175.5 339.4 164.8 337 151.4 337.4C138 337.8 122 341.1 106.6 351C102 354 91.7002 359.8 82.6002 370.6C73.5002 381.4 66.3002 397.8 75.8002 414.6C83.3002 427.9 116.3 454 134.2 468.5C161.2 490.5 189.7 506.9 189.8 521.2C189.8 531 182.1 535.4 174.1 542.6C165.6 550.1 105.5 592.3 86.3002 606.4C61.9002 624.4 57.0002 637.1 58.0002 654.4C59.8002 683.7 117.1 723 226.4 807.2C249.1 824.7 275.9 812.3 267.9 808.2C268.6 793.7 182.2 727.8 160.8 711.7C158.2 709.8 105.1 670 99.7002 660C91.4002 644.8 103.7 635.2 116.6 625.3C116.6 625.3 183.5 571.8 210 551.5C219.1 544.2 226.8 534.5 227.8 526.5C230.6 503.5 215.8 493 212.5 490.4C202.7 482.4 158.3 447.8 129 425.2C125.1 422.6 110.1 411.7 109.1 401.7C108.5 395.6 110.4 389.8 113.6 385.4C116.8 381 121.3 377.9 122.8 376.6C129.5 370.9 142.2 364.5 158.4 365.9C179.4 367.7 202.4 391.2 208.1 395C211.3 397.1 226.3 409.6 237.6 418C248.4 426.5 253.3 429.7 261.4 431.9C267.9 433.7 274.7 434.4 278.7 434.6C289.9 435.1 299.7 432.4 307.6 429C315.5 425.6 321.4 421.4 324.8 419C329.6 415.6 334.7 411.1 339.4 405.8C344.1 400.5 349.1 394.9 350.8 386.8C352.1 380.6 352.2 377.9 351.9 373.1C351 359.7 336.1 345.2 328.2 338.3C320.3 331.4 298.5 313.8 296.1 311.3C293.7 308.8 291.1 305.6 290.6 301.8C290.3 299.3 290.6 296.9 291.3 294.7C292 292.5 293.1 290.6 294.4 289.2C306.2 276.3 427.5 197.9 427.5 197.9L413.4 192L417.2 169.8C417.2 169.8 288.5 256.4 271.8 269.8L271.6 269.6Z" fill="#F4F1F1" stroke="#F4F1F1" stroke-miterlimit="10"/>
<path d="M321.2 250.6L396.7 198.4" stroke="#A72116" stroke-width="3" stroke-miterlimit="10"/>
<path d="M298.8 267.2C286.3 276.8 268.3 286.7 274.2 304.1C278.4 316.6 296.1 328.6 300.6 333.1" stroke="#A72116" stroke-width="3" stroke-miterlimit="10"/>
<path d="M321.5 351.8C323.1 352.9 331.8 361.2 333.7 371.7C335.4 380.8 332.1 388.4 330.9 390.6" stroke="#A72116" stroke-width="3" stroke-miterlimit="10"/>
<path d="M314.2 407.9C311.4 410.3 299.8 420.9 282.2 420.6C262 420.3 249.7 407.1 247.6 404.8" stroke="#A72116" stroke-width="3" stroke-miterlimit="10"/>
<path d="M227.2 388.9L198 366.5" stroke="#A72116" stroke-width="3" stroke-miterlimit="10"/>
<path d="M172.3 354.1C168.5 352.7 161.5 351.1 154.2 351C146.5 350.9 139.5 352.5 135.6 353.9" stroke="#A72116" stroke-width="3" stroke-miterlimit="10"/>
<path d="M113.5 363.8C112.6 364.4 94.5999 374 90.8999 392.2C86.8999 411.7 101.9 422 102.8 422.9" stroke="#A72116" stroke-width="3" stroke-miterlimit="10"/>
<path d="M124.4 441.1C136.5 450.7 149.2 459.7 161.4 469.3" stroke="#A72116" stroke-width="3" stroke-miterlimit="10"/>
<path d="M184.1 486.8C184.1 486.8 214.6 505 211.4 521C207.9 538.5 174.3 560.5 174.3 560.5" stroke="#A72116" stroke-width="3" stroke-miterlimit="10"/>
<path d="M150.7 577.4C129.2 592.8 111.7 605.6 98.7999 615.4C89.8999 622.2 78.5999 633.1 77.0999 644.7C74.5999 664.4 89.3999 674.5 93.5999 678.5" stroke="#A72116" stroke-width="3" stroke-miterlimit="10"/>
<path d="M114.6 696L148.7 722.5" stroke="#A72116" stroke-width="3" stroke-miterlimit="10"/>
<path d="M168.1 738.4L246.8 803.3" stroke="#A72116" stroke-width="3" stroke-miterlimit="10"/>
</g>
<defs>
<clipPath id="clip0_2761_438">
<rect width="393" height="782" fill="white"/>
</clipPath>
</defs>
</svg>
