<svg width="281" height="145" viewBox="0 0 281 145" fill="none" xmlns="http://www.w3.org/2000/svg">
<path d="M56.12 0H223.96C254.92 0 280.07 25.14 280.07 56.12V121.82C280.07 134.41 269.85 144.63 257.26 144.63H22.81C10.22 144.62 0 134.4 0 121.81V56.12C0 25.14 25.14 0 56.12 0Z" fill="#81170E"/>
<path d="M60.8399 10.6699H221.56C250.3 10.6699 273.63 33.9999 273.63 62.7399V111.58C273.63 121.14 265.87 128.9 256.31 128.9H23.7599C14.1999 128.9 6.43994 121.14 6.43994 111.58V65.0699C6.43994 35.0399 30.8199 10.6699 60.8399 10.6699Z" fill="#A72116"/>
<path d="M3 74.6996C2.93 59.0996 10.39 33.3696 27.76 21.9896C40.86 13.4096 47.98 10.9496 69.33 10.7596C153.8 10.0096 209.47 9.94959 222.33 10.5396C235.19 11.1296 249.16 16.9396 259.58 27.5896C271.3 39.5696 272.95 49.9396 273.35 64.8196C273.66 76.4496 273.03 95.5296 274.71 117.33" stroke="#DB3821" stroke-width="3" stroke-miterlimit="10"/>
<path d="M59.4498 3.66016H219.82C250.79 3.66016 275.94 28.8002 275.94 59.7802V118.99C275.94 131.58 265.72 141.8 253.13 141.8H26.1498C13.5598 141.8 3.33984 131.58 3.33984 118.99V59.7802C3.33984 28.8102 28.4798 3.66016 59.4498 3.66016Z" stroke="#81170E" stroke-width="6" stroke-miterlimit="10"/>
<path d="M68.17 17.5898H213.69C242.43 17.5898 265.76 40.9198 265.76 69.6598V104.66C265.76 114.22 258 121.98 248.44 121.98H31.09C21.53 121.98 13.77 114.22 13.77 104.66V71.9898C13.77 41.9598 38.15 17.5898 68.17 17.5898Z" fill="black"/>
<path d="M36.1899 48.0996C39.9799 50.5896 45.3999 53.6096 49.1899 56.1096" stroke="#F4F1F1" stroke-width="3" stroke-miterlimit="10"/>
<path d="M69.48 42.5299C67.17 40.3099 65.08 37.5999 62.77 35.3799" stroke="#F4F1F1" stroke-width="3" stroke-miterlimit="10"/>
<path d="M87.7998 29.2803C89.4598 31.8803 91.1198 34.4803 92.7898 37.0903" stroke="#F4F1F1" stroke-width="3" stroke-miterlimit="10"/>
<path d="M114.83 28.0098C115.59 30.7798 116.42 34.0398 117.18 36.7998" stroke="#F4F1F1" stroke-width="3" stroke-miterlimit="10"/>
<path d="M141.86 23.7305C142.02 27.2105 142.18 31.0205 142.34 34.5005" stroke="#F4F1F1" stroke-width="3" stroke-miterlimit="10"/>
<path d="M195.84 29.2998C194.18 31.8998 192.52 34.4998 190.85 37.1098" stroke="#F4F1F1" stroke-width="3" stroke-miterlimit="10"/>
<path d="M168.63 27.2197C167.87 29.9897 167.04 33.2497 166.28 36.0097" stroke="#F4F1F1" stroke-width="3" stroke-miterlimit="10"/>
<path d="M214.8 42.5396C217.11 40.3196 219.2 37.6096 221.51 35.3896" stroke="#F4F1F1" stroke-width="3" stroke-miterlimit="10"/>
<path d="M247.13 48.2305C243.34 50.7205 237.92 53.7405 234.13 56.2405" stroke="#F4F1F1" stroke-width="3" stroke-miterlimit="10"/>
<path d="M141.26 47.9795L139.31 66.1795L145.36 66.2595L142.6 47.5195L141.26 47.9795Z" fill="#F4F1F1" stroke="#F4F1F1" stroke-miterlimit="10"/>
</svg>
