<svg width="218" height="125" viewBox="0 0 218 125" fill="none" xmlns="http://www.w3.org/2000/svg">
<path fill-rule="evenodd" clip-rule="evenodd" d="M74.4122 0.67308C73.9548 1.1439 73.7825 1.65352 73.8794 2.24802C73.9584 2.73144 80.8046 19.5395 89.0935 39.5993C97.3821 59.659 104.38 76.5938 104.643 77.232L105.122 78.3925L105.856 76.6856C106.259 75.7469 106.768 74.4668 106.988 73.8408C107.378 72.73 107.038 71.8534 92.6379 36.9202C84.5255 17.2398 77.6702 0.876662 77.4045 0.557364C76.7468 -0.232095 75.2345 -0.173408 74.4122 0.67308ZM139.766 0.557364C139.498 0.876662 137.32 5.91216 134.925 11.7477C130.795 21.8101 126.144 33.0893 100.465 95.3024C94.4439 109.891 89.5138 122.168 89.5097 122.585C89.4948 124.099 91.4613 125.221 92.6782 124.392C93.2537 124 93.2992 123.893 109.878 83.6976C118.603 62.5437 129.709 35.6172 134.558 23.8612C139.406 12.1048 143.373 2.22017 143.373 1.8949C143.373 0.313662 140.777 -0.648874 139.766 0.557364ZM72.6719 11.4715C68.6904 17.0621 63.7822 20.7255 56.8291 23.2965C51.221 25.3698 46.117 25.6151 38.3689 24.1834C28.6308 22.3844 22.3193 23.2624 14.1576 27.5518C8.78785 30.3738 5.25281 33.6016 1.63949 38.9819L0 41.4236L11.0165 68.1143C23.4064 98.1326 22.4488 96.3743 24.5952 93.0464C27.7898 88.0938 31.5983 84.4582 36.0955 82.0683C44.3596 77.6763 50.008 76.8846 60.2604 78.6803C70.1134 80.4061 76.3139 79.5208 84.4153 75.2317C88.2 73.228 91.374 70.6803 93.9946 67.5423C97.1547 63.7585 97.1634 64.6902 93.8922 56.7034C92.3193 52.8626 90.9598 49.7183 90.8712 49.7167C90.7826 49.7147 90.3049 50.3732 89.8099 51.1799C88.7907 52.8407 85.2837 56.6461 83.1988 58.3536L81.807 59.4932L84.2452 65.425C87.0485 72.2453 87.1876 71.3842 82.9304 73.5656C80.3698 74.8779 74.7897 76.9432 74.4202 76.7158C74.3185 76.6531 73.1589 73.9794 71.8434 70.7744L69.4515 64.9468L66.8747 65.2041C63.6901 65.5221 60.1564 65.4233 57.2713 64.9362C56.0638 64.7323 55.005 64.6385 54.9181 64.728C54.8311 64.8175 55.7877 67.3888 57.0439 70.4419C58.3001 73.4949 59.2645 76.0583 59.1872 76.1382C59.1095 76.2178 57.8553 76.1037 56.3997 75.8849C54.1344 75.5437 49.0413 75.5914 45.5018 75.9867C44.8077 76.0642 44.5403 75.5805 42.3545 70.2897C41.0407 67.1096 39.9018 64.4419 39.8235 64.3616C39.4924 64.0208 33.8608 66.1358 30.7573 67.7668L27.3965 69.5327L26.9717 68.492C26.7382 67.9193 25.5673 65.1023 24.3698 62.2316C23.1725 59.3609 22.2752 56.7916 22.3756 56.5221C22.6243 55.855 28.6131 52.9309 31.6824 51.978C33.0536 51.5522 34.1767 51.0313 34.1787 50.8205C34.1822 50.3589 29.3887 38.722 29.0341 38.3307C28.6437 37.9 23.0556 39.9693 19.6922 41.7903C18.0122 42.6998 16.5936 43.3247 16.5398 43.1795C16.4864 43.034 15.3761 40.3785 14.0729 37.2783C12.2865 33.0286 11.794 31.5462 12.0717 31.2531C13.2596 29.9998 22.9055 25.8937 23.8779 26.2272C24.066 26.2919 25.32 29.0001 26.6644 32.2455C28.6511 37.0419 29.2064 38.1066 29.6319 37.9345C31.5014 37.1769 41.9535 37.5416 43.4735 38.4172C43.9354 38.6832 49.1509 50.9916 48.908 51.2419C48.8378 51.3138 48.0448 51.2296 47.1461 51.0539C44.11 50.4614 39.8576 50.2989 37.2634 50.6766C35.8584 50.8811 34.6586 51.1 34.5974 51.163C34.5362 51.226 35.6993 54.1703 37.1819 57.7064C39.0836 62.2409 40.0113 64.097 40.3311 64.0062C41.7329 63.6073 49.7274 63.6385 51.9776 64.0516C53.3504 64.3036 54.4739 64.4518 54.4739 64.3809C54.4739 64.3099 53.3066 61.4113 51.88 57.9392C50.4531 54.467 49.3299 51.5864 49.3837 51.5376C49.4375 51.4889 50.6409 51.6471 52.0581 51.8891C55.9101 52.5473 62.9374 52.3835 63.6808 51.6182C63.781 51.5151 62.6739 48.5771 61.2206 45.089L58.5787 38.7471L56.6068 39.0074C53.9295 39.3609 47.971 39.1845 45.6541 38.6832L43.7595 38.273L41.3837 32.5011C40.0766 29.3264 39.0537 26.6818 39.1097 26.6241C39.1658 26.5661 40.1456 26.6788 41.2868 26.8741C43.909 27.323 50.3288 27.335 52.1686 26.8943L53.5675 26.5591L54.289 28.2713C54.6861 29.2133 55.7919 31.8864 56.7463 34.2113C57.9348 37.1066 58.6431 38.4388 58.9942 38.4388C60.4498 38.4388 68.2401 35.1201 70.5222 33.5276C70.8568 33.2939 70.413 31.9308 68.454 27.1755C66.2257 21.7667 66.0179 21.0876 66.5056 20.8068C67.8307 20.0432 71.0665 16.9957 72.7125 14.9613C75.0615 12.0567 75.2422 11.6343 74.7098 10.2911L74.2817 9.21124L72.6719 11.4715ZM142.422 10.376C141.966 11.7991 142.034 11.947 144.652 15.1847C146.163 17.0544 149.391 20.0714 150.666 20.8054C151.15 21.0846 150.939 21.7749 148.712 27.1712C146.736 31.9623 146.305 33.2866 146.646 33.5247C148.938 35.1218 156.722 38.4388 158.179 38.4388C158.53 38.4388 159.242 37.1036 160.434 34.2113C161.392 31.8864 162.503 29.2146 162.903 28.2743L163.631 26.5647L165.017 26.9043C166.895 27.3638 173.69 27.3512 176.041 26.8834C177.089 26.6748 177.996 26.5548 178.057 26.6168C178.117 26.6785 177.097 29.3264 175.79 32.5011L173.414 38.273L171.519 38.6832C169.202 39.1845 163.244 39.3609 160.567 39.0074L158.595 38.7471L155.953 45.089C154.499 48.5771 153.392 51.5151 153.493 51.6182C154.236 52.3835 161.263 52.5473 165.115 51.8891C166.532 51.6471 167.737 51.4899 167.792 51.54C167.847 51.5904 166.731 54.4395 165.312 57.8722C163.893 61.3049 162.787 64.17 162.854 64.2393C162.922 64.3089 164.288 64.1813 165.89 63.9558C168.436 63.5977 175.444 63.6338 176.842 64.0125C177.16 64.0987 178.1 62.2171 179.991 57.7064C181.474 54.1703 182.637 51.226 182.576 51.163C182.515 51.1 181.315 50.8811 179.91 50.6766C177.316 50.2989 173.063 50.4614 170.027 51.0539C169.129 51.2296 168.335 51.3135 168.265 51.2409C168.048 51.0184 173.066 38.9613 173.54 38.5635C174.698 37.593 185.481 37.1099 187.541 37.9365C187.967 38.1069 188.524 37.0369 190.509 32.2455C191.853 29.0001 193.107 26.2919 193.295 26.2272C194.267 25.894 204.322 30.1695 205.181 31.2813C205.352 31.5018 204.541 33.8323 203.095 37.2783C201.795 40.3785 200.687 43.034 200.634 43.1795C200.58 43.3247 199.161 42.6998 197.481 41.7903C194.118 39.9693 188.53 37.9 188.139 38.3307C187.785 38.722 182.991 50.3589 182.995 50.8205C182.997 51.0313 184.12 51.5509 185.491 51.9753C188.45 52.8901 194.563 55.8914 194.808 56.5496C194.903 56.8042 194.001 59.3609 192.804 62.2316C191.606 65.1023 190.435 67.9193 190.202 68.492L189.777 69.5327L186.416 67.7668C183.313 66.1358 177.681 64.0208 177.35 64.3616C177.272 64.4419 176.133 67.1096 174.819 70.2897C172.633 75.5805 172.366 76.0642 171.672 75.9867C168.132 75.5914 163.039 75.5437 160.774 75.8849C159.318 76.1037 158.064 76.2178 157.986 76.1382C157.909 76.0583 158.873 73.4949 160.129 70.4419C161.386 67.3888 162.342 64.8175 162.255 64.728C162.168 64.6385 161.11 64.7323 159.902 64.9362C157.017 65.4233 153.483 65.5221 150.299 65.2041L147.722 64.9468L145.33 70.7744C144.014 73.9794 142.854 76.6554 142.751 76.7211C142.4 76.9442 136.458 74.7198 134.025 73.4545C130.022 71.3723 130.137 72.2154 132.928 65.425L135.366 59.4932L133.975 58.352C131.783 56.5549 128.455 52.9587 127.414 51.2624C126.891 50.4103 126.391 49.7163 126.302 49.72C126.214 49.724 124.855 52.8699 123.283 56.7114C120.016 64.6972 120.025 63.7658 123.179 67.5423C125.799 70.6803 128.973 73.228 132.758 75.2317C140.866 79.5245 147.074 80.4094 156.913 78.675C163.683 77.4814 168.392 77.4804 172.793 78.6717C176.131 79.5752 181.611 82.0868 184.117 83.8617C186.697 85.6889 189.608 88.7354 191.725 91.8223C194.425 95.7613 194.738 95.7666 196.337 91.9038C196.997 90.3083 200.336 82.2138 203.756 73.9164C207.176 65.6189 211.594 54.9137 213.574 50.1268L217.173 41.4236L215.534 38.9819C211.921 33.6016 208.385 30.3738 203.016 27.5518C194.854 23.2624 188.543 22.3844 178.804 24.1834C169.327 25.9348 163.342 25.1798 155.774 21.2779C150.522 18.5694 147.483 15.7766 143.266 9.78319C142.842 9.18107 142.794 9.21456 142.422 10.376ZM78.8507 25.259C77.4728 27.2982 75.5843 29.4023 73.2678 31.4799L71.608 32.968L73.8247 38.273C75.0442 41.1908 76.0932 43.7273 76.1564 43.9096C76.4839 44.8549 81.9258 39.9076 84.0098 36.7704L85.0077 35.2674L82.6302 29.5091C81.3225 26.3416 80.2016 23.698 80.1398 23.6344C80.0776 23.5704 79.4975 24.3015 78.8507 25.259ZM134.593 29.3841L132.168 35.2703L133.165 36.7717C135.248 39.908 140.69 44.8546 141.017 43.9096C141.08 43.7273 142.129 41.1908 143.349 38.273L145.565 32.968L143.906 31.4809C141.611 29.4238 140.313 27.9948 138.632 25.6735C137.841 24.5793 137.153 23.642 137.106 23.5909C137.058 23.5395 135.927 26.1463 134.593 29.3841ZM15.3126 44.4514C12.7355 46.4398 7.44727 52.5625 7.44727 53.5582C7.44727 53.714 8.6239 56.7064 10.0618 60.2081L12.6762 66.5748L14.5209 64.0287C16.3079 61.5619 18.7147 59.045 20.9181 57.3381L21.9885 56.5091L19.422 50.221C18.0105 46.7624 16.7202 43.8864 16.5543 43.8294C16.3884 43.7724 15.8299 44.0525 15.3126 44.4514ZM200.077 44.6557C199.85 45.157 198.657 48.0293 197.425 51.0383L195.186 56.5091L196.256 57.3381C198.46 59.0466 200.866 61.5625 202.652 64.0287L204.497 66.5748L207.112 60.2081C208.549 56.7064 209.726 53.714 209.726 53.5582C209.726 52.2591 201.908 43.7439 200.716 43.7439C200.591 43.7439 200.303 44.1543 200.077 44.6557ZM73.193 48.0887C71.5307 48.9746 68.9217 50.1059 67.3952 50.6023C65.8688 51.0983 64.4905 51.6149 64.3321 51.7502C64.0712 51.9727 68.6985 63.6992 69.3439 64.4518C69.9782 65.1909 81.5303 60.2505 81.5303 59.2403C81.5303 58.793 76.7307 46.9952 76.4227 46.6855C76.3087 46.5711 74.8554 47.2024 73.193 48.0887ZM140.265 47.6258C139.991 48.2996 138.84 51.096 137.706 53.8404C136.572 56.5847 135.644 59.0088 135.643 59.2277C135.642 60.2472 147.189 65.1975 147.829 64.4518C148.475 63.6992 153.102 51.9727 152.841 51.7502C152.683 51.6149 151.303 51.0977 149.774 50.6006C148.245 50.1036 145.592 48.9554 143.878 48.0489L140.762 46.4007L140.265 47.6258ZM24.7373 71.7728C22.8311 73.3915 19.2464 77.5908 18.429 79.1634C18.2151 79.5742 18.7871 81.3086 20.5558 85.6114L22.9748 91.4977L24.5112 89.4211C26.0769 87.3047 29.7118 83.5703 31.4286 82.3143L32.3797 81.618L29.9791 75.7828C28.6588 72.5732 27.4255 69.9452 27.2387 69.9426C27.0516 69.9399 25.9258 70.7635 24.7373 71.7728ZM187.194 75.7828L184.794 81.618L185.745 82.3143C187.462 83.5709 191.096 87.305 192.664 89.4234L194.202 91.5016L196.623 85.6207C198.411 81.2778 198.967 79.5908 198.748 79.1704C197.418 76.6123 191.033 69.9266 189.935 69.9426C189.748 69.9452 188.514 72.5732 187.194 75.7828ZM110.867 86.8332C109.997 89.0023 109.862 89.6465 110.12 90.4018C110.546 91.6475 123.308 122.513 123.774 123.425C124.258 124.371 124.673 124.635 125.689 124.641C126.693 124.647 127.673 123.628 127.666 122.585C127.661 121.904 112.664 85.0464 112.145 84.4393C112.026 84.3004 111.451 85.3776 110.867 86.8332Z" fill="white"/>
<g clip-path="url(#clip0_2976_32)">
<path d="M84.4701 64.0443C85.7848 61.2776 88.2227 59.1268 91.2312 58.0742C86.4502 53.6772 83.6635 47.6976 83.4558 41.3957C73.7849 41.7694 65.3139 47.6327 62.0129 56.2361C60.1901 62.2596 63.8761 68.5386 70.2461 70.2623C75.9687 71.8106 82.0261 69.1583 84.4781 64.0291L84.4721 64.0443H84.4701Z" fill="#CA2B31"/>
<path d="M107.26 70.4454C107.097 71.4521 106.788 72.436 106.347 73.3646C100.904 84.79 86.6985 89.8811 74.614 84.7347C62.5315 79.5883 57.1476 66.1551 62.59 54.7278C59.9504 60.4749 62.7372 67.1581 68.8167 69.6541C74.7794 72.1024 81.72 69.6159 84.4684 64.0443C85.7831 61.2776 88.221 59.1268 91.2295 58.0742C95.4156 61.9488 100.874 64.359 106.704 64.9024C107.214 64.9481 107.73 64.9787 108.252 64.9977C108.162 66.8587 107.827 68.7026 107.256 70.4873C107.258 70.4759 107.258 70.4625 107.26 70.4454Z" fill="#831C1C"/>
<path d="M109.238 65.0225C108.793 65.0225 108.355 65.0111 107.923 64.9901C107.373 77.2392 96.4257 86.7464 83.4721 86.2258C70.5184 85.7053 60.4645 75.3534 61.0149 63.1043C61.5332 51.5874 71.2867 42.3605 83.468 41.8686C83.4459 41.4567 83.4338 41.043 83.4338 40.6254C83.4338 40.305 83.4479 39.9942 83.4579 39.6739C69.2239 40.2002 58.1334 51.5397 58.69 65.0015C59.2465 78.4634 71.2363 88.9506 85.4724 88.4243C98.9301 87.9267 109.718 77.7254 110.242 64.9996C109.906 65.013 109.575 65.0225 109.238 65.0225Z" fill="#100F30"/>
<path d="M108.912 40.959C111.838 42.2023 114.112 44.5075 115.225 47.3525C119.875 42.8315 126.199 40.1963 132.863 39.9999C132.47 30.8512 126.265 22.8352 117.163 19.7138C110.793 17.9901 104.153 21.4756 102.33 27.4991C100.693 32.9106 103.497 38.6385 108.922 40.9571H108.914L108.912 40.959Z" fill="#FA1D00"/>
<path d="M102.147 62.5075C101.082 62.353 100.041 62.0613 99.0593 61.6437C86.9768 56.4973 81.5929 43.0641 87.0353 31.6368C92.4777 20.2115 106.683 15.1204 118.766 20.2668C112.688 17.7708 105.621 20.4059 102.981 26.1549C100.392 31.7932 103.022 38.3563 108.914 40.9552C111.84 42.1985 114.114 44.5037 115.227 47.3486C111.13 51.3071 108.581 56.4687 108.006 61.9812C107.958 62.4655 107.926 62.9537 107.905 63.4456C105.937 63.3598 103.988 63.0433 102.1 62.5037L102.144 62.5075H102.147Z" fill="#F04F4F"/>
<path d="M107.879 64.3761C107.879 63.9547 107.892 63.541 107.914 63.1329C94.9601 62.6257 84.892 52.2853 85.4283 40.0362C85.9486 28.1322 96.3151 18.7394 108.914 18.7547C121.525 18.7547 131.839 28.2333 132.367 40.0305C132.803 40.0095 133.24 39.998 133.682 39.998C134.021 39.998 134.349 40.0114 134.688 40.0209C134.156 27.0186 122.801 16.56 108.914 16.56C94.6677 16.5638 83.1195 27.4858 83.1235 40.9591C83.1256 54.0548 94.0648 64.8128 107.904 65.3276C107.904 65.0111 107.881 64.6927 107.881 64.3761H107.879Z" fill="#100F30"/>
<path d="M109.214 87.5034C106.288 86.2602 104.014 83.9549 102.9 81.11C98.2485 85.6214 91.925 88.247 85.2646 88.432C85.6417 97.5921 91.8463 105.623 100.961 108.747C107.331 110.47 113.971 106.985 115.794 100.961C117.431 95.55 114.626 89.822 109.202 87.5034H109.214Z" fill="#8D0000"/>
<path d="M115.981 65.9511C117.046 66.1056 118.087 66.3973 119.069 66.8149C131.151 71.9613 136.535 85.3945 131.093 96.8218C125.65 108.247 111.444 113.338 99.3599 108.192C105.437 110.688 112.505 108.053 115.145 102.304C117.734 96.6654 115.104 90.1023 109.212 87.5034C106.286 86.2602 104.012 83.9549 102.899 81.11C107 77.1534 109.551 71.9918 110.128 66.4774C110.176 65.9931 110.208 65.5049 110.228 65.013C112.197 65.0988 114.146 65.4153 116.034 65.9549L115.979 65.9511H115.981Z" fill="#B60000"/>
<path d="M110.222 65.3142C109.464 65.4935 108.672 65.4935 107.913 65.3142C107.71 64.5992 107.71 63.846 107.913 63.131C108.66 62.8831 109.474 62.8831 110.222 63.131C110.515 63.8327 110.515 64.6125 110.222 65.3142Z" fill="#100F30"/>
<path d="M133.649 64.3971C132.335 67.1638 129.897 69.3147 126.888 70.3672C131.669 74.7642 134.456 80.7439 134.664 87.0458C144.338 86.6739 152.816 80.8068 156.117 72.1996C157.939 66.1761 154.253 59.8971 147.883 58.1734C142.161 56.6251 136.103 59.2774 133.651 64.4067V64.399L133.649 64.3971Z" fill="#B31904"/>
<path d="M110.857 57.998C111.021 56.9912 111.329 56.0073 111.771 55.0787C117.215 43.6533 131.423 38.5642 143.506 43.7124C155.588 48.8607 160.97 62.2959 155.526 73.7212C158.165 67.9742 155.378 61.291 149.299 58.795C143.336 56.3467 136.396 58.8332 133.647 64.4047C132.333 67.1715 129.895 69.3223 126.886 70.3748C122.7 66.5003 117.241 64.0901 111.412 63.5467C111.009 63.5086 110.603 63.4838 110.194 63.4647C110.085 63.4647 110.194 63.2759 110.091 63.2721C110.091 63.1482 109.869 63.2035 109.883 63.0776C110 61.3425 110.327 59.6245 110.859 57.9618C110.859 57.9675 110.857 57.9827 110.855 57.998H110.857Z" fill="#EE1C00"/>
<path d="M108.886 63.4189C109.331 63.4189 109.763 63.4361 110.2 63.457C110.747 51.2079 121.69 41.697 134.644 42.2118C147.597 42.7285 157.655 53.0766 157.111 65.3257C156.597 76.8483 146.839 86.0809 134.654 86.569C134.676 86.9809 134.688 87.3947 134.688 87.8122C134.688 88.1326 134.674 88.4434 134.664 88.7637C148.9 88.2375 159.99 76.8998 159.434 63.438C158.877 49.9762 146.887 39.4889 132.651 40.0152C119.194 40.5129 108.404 50.716 107.881 63.4418C108.218 63.4303 108.553 63.4189 108.89 63.4189H108.886Z" fill="#100F30"/>
<path d="M110.249 64.0825C110.249 64.5039 110.236 64.9176 110.214 65.3257C123.168 65.8329 133.236 76.1733 132.7 88.4224C132.179 100.326 121.813 109.719 109.214 109.704C96.6033 109.704 86.2892 100.21 85.7609 88.4053C85.3152 88.4262 84.9099 88.4434 84.4683 88.4434C84.1296 88.4434 83.7727 88.4243 83.4399 88.411C83.9723 101.423 95.3269 111.899 109.214 111.899C123.46 111.893 135.006 100.967 135 87.4957C134.994 74.4019 124.057 63.6477 110.22 63.131C110.234 63.4475 110.247 63.7659 110.247 64.0825H110.249Z" fill="#100F30"/>
</g>
<defs>
<clipPath id="clip0_2976_32">
<rect width="100.78" height="95.3386" fill="white" transform="translate(58.6699 16.56)"/>
</clipPath>
</defs>
</svg>
