<svg preserveAspectRatio="none" overflow="visible" style="display: block;" width="377.566" height="504.272" viewBox="0 0 377.566 504.272" fill="none" xmlns="http://www.w3.org/2000/svg">
<path id="Vector" d="M367.498 402.322H361.856V350.517H361.756V137.003H361.856V91.6682H365.571C369.419 91.6682 372.54 88.5509 372.54 84.7052V55.9157C372.585 55.5396 372.606 55.1583 372.606 54.7716V10.0644C372.606 4.50515 368.096 0 362.537 0H237.166C231.604 0 227.097 4.50515 227.097 10.0644V11.2748H182.168C179.349 11.2748 176.8 12.4348 174.972 14.3021C174.15 14.9324 173.414 15.7031 172.799 16.6063L162.067 32.3253H139.669C139.468 26.9461 135.04 22.6449 129.608 22.6449H10.0689C4.50717 22.6449 0 27.1527 0 32.7093V186.472C0 192.032 4.50717 196.537 10.0689 196.537H22.5253V306.89H10.0689C4.50717 306.89 0 311.398 0 316.955V470.718C0 476.277 4.50717 480.782 10.0689 480.782H23.1056C24.494 484.681 28.2169 487.472 32.5942 487.472H77.7295V487.372H200.343V487.472H262.539V494.207C262.539 499.764 267.047 504.272 272.608 504.272H367.498C373.057 504.272 377.566 499.764 377.566 494.207V412.387C377.566 406.827 373.057 402.322 367.498 402.322ZM334.678 428.609H97.25L49.1549 386.73V130.625L104.145 75.6632H143.398V84.7052C143.398 88.5509 146.516 91.6682 150.364 91.6682H334.678V428.609Z" fill="#240131"/>
</svg>
