<svg width="393" height="852" viewBox="0 0 393 852" fill="none" xmlns="http://www.w3.org/2000/svg">
<path d="M392.859 859.937H-253.025V-13H392.859V859.937Z" fill="black" stroke="black" stroke-width="0.169568"/>
<path d="M250.211 79.8389H230.626L393.157 109.259V103.239L250.211 79.8389Z" fill="#BF5409" fill-opacity="0.7"/>
<path d="M187.301 81.7041H139.483L365.772 133.931L393.157 132.744V121.977L187.301 81.7041Z" fill="#BF5409" fill-opacity="0.7"/>
<path d="M93.3608 83.315H22.227L237.409 141.392L310.747 137.746L93.3608 83.315Z" fill="#BF5409" fill-opacity="0.7"/>
<path d="M-59.0809 84.502L-136.743 87.4694L72.6735 150.888L164.918 145.886L-59.0809 84.502Z" fill="#BF5409" fill-opacity="0.7"/>
<path d="M-253.83 95.7783L-206.436 91.7934L-12.4497 155.805C-137.421 165.787 -215.78 170.352 -225.682 194.636C-208.967 208.066 -196.575 215.137 -152.937 224.48L220.028 297.819L393.157 325.543V582.184V776.594V797.027L-152.937 729.115C104.089 707.256 380.375 663.918 389.342 598.208C389.849 588.142 369.586 565.395 308.119 544.54C246.83 523.746 -252.381 401.377 -253.83 412.684V412.786C-253.834 412.751 -253.834 412.717 -253.83 412.684V95.7783Z" fill="#BF5409" fill-opacity="0.7"/>
<path d="M250.211 79.8389H230.626L393.157 109.259V103.239L250.211 79.8389Z" stroke="#EE1C00" stroke-width="0.169568"/>
<path d="M187.301 81.7041H139.483L365.772 133.931L393.157 132.744V121.977L187.301 81.7041Z" stroke="#EE1C00" stroke-width="0.169568"/>
<path d="M93.3608 83.315H22.227L237.409 141.392L310.747 137.746L93.3608 83.315Z" stroke="#EE1C00" stroke-width="0.169568"/>
<path d="M-59.0809 84.502L-136.743 87.4694L72.6735 150.888L164.918 145.886L-59.0809 84.502Z" stroke="#EE1C00" stroke-width="0.169568"/>
<path d="M-253.83 95.7783L-206.436 91.7934L-12.4497 155.805C-137.421 165.787 -215.78 170.352 -225.682 194.636C-208.967 208.066 -196.575 215.137 -152.937 224.48L220.028 297.819L393.157 325.543V582.184V776.594V797.027L-152.937 729.115C104.089 707.256 380.375 663.918 389.342 598.208C389.849 588.142 369.586 565.395 308.119 544.54C246.83 523.746 -252.381 401.377 -253.83 412.684V412.786C-253.834 412.751 -253.834 412.717 -253.83 412.684V95.7783Z" stroke="#EE1C00" stroke-width="0.169568"/>
</svg>
