<svg width="70" height="70" viewBox="0 -10 70 70" fill="none" xmlns="http://www.w3.org/2000/svg">
<rect y="5.71875" width="58.1406" height="55.2812" rx="10" fill="#F7F7F7"/>
<path d="M0 15.7188C0 10.1959 4.47715 5.71875 10 5.71875H48.1406C53.6635 5.71875 58.1406 10.1959 58.1406 15.7188V20.0156H0V15.7188Z" fill="#F33B3B"/>
<rect x="12.3906" width="6.67188" height="16.2031" rx="3.33594" fill="#353535"/>
<rect x="39.0781" width="6.67188" height="16.2031" rx="3.33594" fill="#353535"/>
<path d="M20.2324 36.3457C19.8118 35.8014 19.6387 35.1953 19.7129 34.5273C19.8118 33.8594 20.1335 33.3027 20.6777 32.8574L27.9883 27.1797C28.5326 26.6849 29.151 26.4375 29.8438 26.4375C30.5117 26.4622 31.0807 26.7096 31.5508 27.1797C32.0208 27.625 32.2682 28.1816 32.293 28.8496V47.0332C32.1445 48.5176 31.3281 49.3216 29.8438 49.4453C29.151 49.4453 28.5449 49.2227 28.0254 48.7773C27.5306 48.3073 27.2832 47.7259 27.2832 47.0332V34.0449L23.7207 36.791C23.1764 37.2116 22.5703 37.3724 21.9023 37.2734C21.2096 37.1992 20.653 36.89 20.2324 36.3457Z" fill="black"/>
</svg>
