<svg width="80" height="90" viewBox="0 -10 110 110" fill="none" xmlns="http://www.w3.org/2000/svg">
<g clip-path="url(#clip0_2927_685)">
<g filter="url(#filter0_d_2927_685)">
<path d="M88.7705 83.972L94.6485 83.6121C101.817 83.1755 102.206 82.9212 102.206 78.6698C102.206 73.5691 101.86 73.4155 90.2196 73.4155C80.5892 73.4155 80.5892 73.4155 77.7678 75.3349C74.6104 77.4798 67.72 78.2763 67.1777 75.8147L70.4166 72.5758C73.1757 69.8216 73.1757 69.8216 78.5739 69.668C83.9721 69.5193 83.9721 69.5193 83.9721 67.1585C83.9721 64.1931 83.3243 63.8188 78.1948 63.8188C75.5989 63.8188 74.2266 63.6124 73.7995 63.1566C72.8638 62.1585 74.3417 60.9397 76.4818 60.9397C78.9866 60.9397 79.2265 60.4791 76.7745 56.1414H81.0931H83.4923C86.7168 55.8535 86.9183 55.6519 87.5949 53.5598C88.6121 50.4025 89.9605 49.9035 97.4076 49.9035C107.854 49.9035 107.475 49.2317 107.479 67.7918C107.484 84.116 107.494 84.0728 103.89 84.9797C101.088 85.685 90.0852 85.3635 89.3175 84.5526L88.7705 83.972Z" fill="#28282B"/>
</g>
<g filter="url(#filter1_d_2927_685)">
<path d="M30.71 84.0716L24.832 83.7117C17.6632 83.2751 17.2745 83.0208 17.2745 78.7694C17.2745 73.6687 17.62 73.5152 29.2609 73.5152C38.8912 73.5152 38.8912 73.5152 41.7127 75.4345C44.87 77.5794 51.7605 78.3759 52.3027 75.9144L49.0638 72.6754C46.3048 69.9212 46.3048 69.9212 40.9066 69.7676C35.5084 69.6189 35.5084 69.6189 35.5084 67.2581C35.5084 64.2927 36.1562 63.9184 41.2856 63.9184C43.8816 63.9184 45.2539 63.7121 45.681 63.2562C46.6166 62.2581 45.1387 61.0394 42.9987 61.0394C40.4939 61.0394 40.254 60.5787 42.706 56.241H38.3874H35.9882C32.7637 55.9531 32.5622 55.7515 31.8856 53.6594C30.8683 50.5021 29.52 50.0031 22.0729 50.0031C11.6268 50.0031 12.0059 49.3313 12.0011 67.8914C11.9963 84.2156 11.9867 84.1724 15.5903 85.0793C18.3925 85.7846 29.3952 85.4631 30.163 84.6522L30.71 84.0716Z" fill="#28282B"/>
</g>
<path d="M53 76.5C49.4962 57.1609 49.3956 55.4127 46.635 54.5966L44.6176 54L42.3824 55.9091C39.5268 60.2236 39.5829 61 42.5 61C44.9924 61 46.0897 62.5073 45 63.5C44.5026 63.9534 43.7515 63.5455 40.7282 63.5455C34.7544 63.5455 34 64.3596 34 67.3091C34 69.6573 34 69.6573 40.2868 69.8053C46.5735 69.958 46.2868 70.2605 49.5 73L53 76.5Z" fill="#B52821"/>
<path d="M67 76.5C70.5038 57.1609 70.6044 55.4127 73.365 54.5966L75 54L77.6176 55.9091C80.4732 60.2236 80.4171 61 77.5 61C75.0076 61 73.9103 62.5073 75 63.5C75.4974 63.9534 76.2485 63.5455 79.2718 63.5455C85.2456 63.5455 86 64.3596 86 67.3091C86 69.6573 86 69.6573 79.7132 69.8053C73.4265 69.958 73.7132 70.2605 70.5 73L67 76.5Z" fill="#B52821"/>
<path d="M88.2905 83.4921C96.1119 82.7868 96.9276 82.3117 96.9276 80.2628C96.9276 77.7389 96.894 77.7341 81.2657 77.7341C67.0672 77.7341 64.9272 77.5134 66.6306 76.2274L67.1776 75.8147C67.7198 78.2763 74.6103 77.4798 77.7677 75.3349C80.5891 73.4155 80.5891 73.4155 90.2195 73.4155C101.86 73.4155 102.206 73.5691 102.206 78.6698C102.206 82.9211 101.817 83.1754 94.6484 83.6121L88.7704 83.972L88.2905 83.4921Z" fill="#B52821"/>
<path d="M30.9155 83.4917C23.0942 82.7863 22.2784 82.3113 22.2784 80.2623C22.2784 77.7384 22.312 77.7336 37.9404 77.7336C52.1388 77.7336 54.2789 77.5129 52.5755 76.2269L52.0284 75.8142C51.4862 78.2758 44.5957 77.4793 41.4384 75.3344C38.617 73.415 38.617 73.415 28.9866 73.415C17.3457 73.415 17.0002 73.5686 17.0002 78.6693C17.0002 82.9206 17.3889 83.175 24.5577 83.6116L30.4357 83.9715L30.9155 83.4917Z" fill="#B52821"/>
<path d="M54.3126 42.5039C55.6946 41.5347 63.0265 41.4723 64.7251 42.4176C65.9247 43.0797 67.9305 48.4971 67.4458 49.7591C67.2635 50.2341 65.3777 50.3829 59.5141 50.3829C52.4413 50.3829 51.8223 50.3157 51.8223 49.524C51.8223 47.3647 53.2906 43.2189 54.3126 42.5039Z" fill="#28282B"/>
<g filter="url(#filter2_d_2927_685)">
<path d="M81.0927 56.141C81.3327 49.1833 81.3327 49.1833 76.1744 49.3033L71.0161 49.4232C69.2983 43.3533 68.6937 43.6172 77.4364 43.6412L85.501 43.6412C84.954 46.0596 84.0629 48.8906 83.8614 51.4626L83.4919 56.141H81.0927Z" fill="#B52821"/>
</g>
<g filter="url(#filter3_d_2927_685)">
<path d="M38.4082 56.1415C38.1683 49.1838 38.1683 49.1838 43.3266 49.3038L48.4848 49.4237C50.2027 43.3538 50.8073 43.6177 42.0646 43.6417L34 43.6417C34.547 46.0601 35.438 48.8911 35.6396 51.463L36.009 56.1415H38.4082Z" fill="#B52821"/>
</g>
<path d="M58.54 35.9879C62.5899 36.0262 64.0006 35.7479 64.658 35.2921L65.7376 34.5483V35.0282C64.9459 36.0214 63.7127 36.1846 61.6638 36.1078L58.54 35.9879Z" fill="#B52821"/>
<g filter="url(#filter4_d_2927_685)">
<path d="M66.1152 35.0067C87.4664 35.0067 86.7186 34.5986 85.9795 40.4042L85.5654 43.6434L77.9707 43.619C69.1113 43.595 69.7231 43.3317 71.4639 49.4012C72.0279 50.3321 72.904 51.4118 73.7744 52.4002L75.3545 54.2L73.5986 54.7997C71.1968 55.6201 71.1092 55.8705 68.0605 75.3124L67.5742 75.7928L67.0195 76.2049C65.2934 77.4909 67.4624 77.7118 81.8506 77.7118C97.6881 77.7118 97.7227 77.7171 97.7227 80.2411C97.7226 82.2897 96.8953 82.7652 88.9697 83.4706H60.2305V83.4715H30.7529C22.8274 82.7662 22.0001 82.2907 22 80.242C22 77.7181 22.0346 77.7127 37.8721 77.7127C52.2604 77.7127 54.4293 77.4919 52.7031 76.2059L52.1484 75.7938L51.6621 75.3133C48.6134 55.8714 48.5259 55.6211 46.124 54.8006L44.3682 54.201L45.9482 52.4012C46.8186 51.4128 47.6947 50.3331 48.2588 49.4022C49.9995 43.3326 50.6114 43.596 41.752 43.62L34.1572 43.6444L33.7432 40.4051C33.0041 34.5996 32.2563 35.0077 53.6074 35.0077C54.4097 36.0007 55.6594 36.1635 57.7354 36.0868L59.4922 36.0194V35.9911L59.874 36.0047L60.2305 35.992V36.0184L61.9873 36.0858C64.0633 36.1625 65.3129 35.9997 66.1152 35.0067ZM60.2305 41.7245V41.7264C57.9197 41.6926 55.5203 41.9107 54.6338 42.3973C53.4182 43.0594 51.3853 48.4756 51.876 49.7381C52.0563 50.2017 53.881 50.3531 59.4922 50.3602L59.8086 50.3612C65.7506 50.3612 67.6619 50.2122 67.8467 49.7372C68.3373 48.4748 66.3055 43.0598 65.0898 42.3963C64.2977 41.9614 62.2965 41.7423 60.2305 41.7245Z" fill="#E53F33"/>
</g>
<rect x="53" y="33" width="13" height="4" rx="2" fill="#28282B"/>
</g>
<defs>
<filter id="filter0_d_2927_685" x="67.1777" y="49.9004" width="49.3027" height="43.4683" filterUnits="userSpaceOnUse" color-interpolation-filters="sRGB">
<feFlood flood-opacity="0" result="BackgroundImageFix"/>
<feColorMatrix in="SourceAlpha" type="matrix" values="0 0 0 0 0 0 0 0 0 0 0 0 0 0 0 0 0 0 127 0" result="hardAlpha"/>
<feOffset dx="5" dy="4"/>
<feGaussianBlur stdDeviation="2"/>
<feComposite in2="hardAlpha" operator="out"/>
<feColorMatrix type="matrix" values="0 0 0 0 0 0 0 0 0 0 0 0 0 0 0 0 0 0 0.25 0"/>
<feBlend mode="normal" in2="BackgroundImageFix" result="effect1_dropShadow_2927_685"/>
<feBlend mode="normal" in="SourceGraphic" in2="effect1_dropShadow_2927_685" result="shape"/>
</filter>
<filter id="filter1_d_2927_685" x="12" y="50" width="49.3027" height="43.4683" filterUnits="userSpaceOnUse" color-interpolation-filters="sRGB">
<feFlood flood-opacity="0" result="BackgroundImageFix"/>
<feColorMatrix in="SourceAlpha" type="matrix" values="0 0 0 0 0 0 0 0 0 0 0 0 0 0 0 0 0 0 127 0" result="hardAlpha"/>
<feOffset dx="5" dy="4"/>
<feGaussianBlur stdDeviation="2"/>
<feComposite in2="hardAlpha" operator="out"/>
<feColorMatrix type="matrix" values="0 0 0 0 0 0 0 0 0 0 0 0 0 0 0 0 0 0 0.25 0"/>
<feBlend mode="normal" in2="BackgroundImageFix" result="effect1_dropShadow_2927_685"/>
<feBlend mode="normal" in="SourceGraphic" in2="effect1_dropShadow_2927_685" result="shape"/>
</filter>
<filter id="filter2_d_2927_685" x="69.9736" y="43.6333" width="24.5273" height="20.5078" filterUnits="userSpaceOnUse" color-interpolation-filters="sRGB">
<feFlood flood-opacity="0" result="BackgroundImageFix"/>
<feColorMatrix in="SourceAlpha" type="matrix" values="0 0 0 0 0 0 0 0 0 0 0 0 0 0 0 0 0 0 127 0" result="hardAlpha"/>
<feOffset dx="5" dy="4"/>
<feGaussianBlur stdDeviation="2"/>
<feComposite in2="hardAlpha" operator="out"/>
<feColorMatrix type="matrix" values="0 0 0 0 0 0 0 0 0 0 0 0 0 0 0 0 0 0 0.25 0"/>
<feBlend mode="normal" in2="BackgroundImageFix" result="effect1_dropShadow_2927_685"/>
<feBlend mode="normal" in="SourceGraphic" in2="effect1_dropShadow_2927_685" result="shape"/>
</filter>
<filter id="filter3_d_2927_685" x="34" y="43.6338" width="24.5273" height="20.5078" filterUnits="userSpaceOnUse" color-interpolation-filters="sRGB">
<feFlood flood-opacity="0" result="BackgroundImageFix"/>
<feColorMatrix in="SourceAlpha" type="matrix" values="0 0 0 0 0 0 0 0 0 0 0 0 0 0 0 0 0 0 127 0" result="hardAlpha"/>
<feOffset dx="5" dy="4"/>
<feGaussianBlur stdDeviation="2"/>
<feComposite in2="hardAlpha" operator="out"/>
<feColorMatrix type="matrix" values="0 0 0 0 0 0 0 0 0 0 0 0 0 0 0 0 0 0 0.25 0"/>
<feBlend mode="normal" in2="BackgroundImageFix" result="effect1_dropShadow_2927_685"/>
<feBlend mode="normal" in="SourceGraphic" in2="effect1_dropShadow_2927_685" result="shape"/>
</filter>
<filter id="filter4_d_2927_685" x="22" y="35.0005" width="84.7227" height="56.4712" filterUnits="userSpaceOnUse" color-interpolation-filters="sRGB">
<feFlood flood-opacity="0" result="BackgroundImageFix"/>
<feColorMatrix in="SourceAlpha" type="matrix" values="0 0 0 0 0 0 0 0 0 0 0 0 0 0 0 0 0 0 127 0" result="hardAlpha"/>
<feOffset dx="5" dy="4"/>
<feGaussianBlur stdDeviation="2"/>
<feComposite in2="hardAlpha" operator="out"/>
<feColorMatrix type="matrix" values="0 0 0 0 0 0 0 0 0 0 0 0 0 0 0 0 0 0 0.25 0"/>
<feBlend mode="normal" in2="BackgroundImageFix" result="effect1_dropShadow_2927_685"/>
<feBlend mode="normal" in="SourceGraphic" in2="effect1_dropShadow_2927_685" result="shape"/>
</filter>
<clipPath id="clip0_2927_685">
<rect width="119" height="119" fill="white"/>
</clipPath>
</defs>
</svg>
