<svg width="84" height="84" viewBox="0 0 74 74" fill="none" xmlns="http://www.w3.org/2000/svg">
<g filter="url(#filter0_d_2927_705)">
<path d="M18.1498 15.4755C18.9821 13.9495 20.5815 13 22.3198 13H61.0136C62.7518 13 64.3512 13.9495 65.1836 15.4755L73.3333 30.4167H67V63.6667C67 67.1645 64.1645 70 60.6667 70H48V58.9167C48 56.2933 45.8734 54.1667 43.25 54.1667H40.0833C37.46 54.1667 35.3333 56.2933 35.3333 58.9167V70H22.6667C19.1689 70 16.3333 67.1645 16.3333 63.6667V30.4167H10L18.1498 15.4755Z" fill="#FCC164"/>
<rect x="16" y="33" width="52" height="37" rx="6" fill="#EEEEEE"/>
</g>
<rect x="49" y="45" width="13" height="13" rx="2" fill="#FCC164"/>
<path d="M73.333 30.416C73.333 31.8715 73.0462 33.3125 72.4893 34.6572C71.9323 36.0019 71.1161 37.2237 70.0869 38.2529C69.0577 39.2821 67.8359 40.0983 66.4912 40.6553C65.1465 41.2123 63.7055 41.499 62.25 41.499C60.7945 41.499 59.3535 41.2123 58.0088 40.6553C56.6641 40.0983 55.4423 39.2821 54.4131 38.2529C53.3839 37.2237 52.5677 36.0019 52.0107 34.6572L51.958 34.5293C51.4058 35.9107 50.5762 37.1806 49.5039 38.2529C47.4255 40.3314 44.6064 41.4989 41.667 41.499C38.7275 41.499 35.9076 40.3315 33.8291 38.2529C32.7568 37.1806 31.9271 35.9107 31.375 34.5293L31.3232 34.6572C30.7663 36.0018 29.9499 37.2238 28.9209 38.2529C27.8919 39.282 26.6697 40.0983 25.3252 40.6553C23.9805 41.2123 22.5385 41.499 21.083 41.499C19.6276 41.499 18.1864 41.2122 16.8418 40.6553C15.4972 40.0983 14.2752 39.282 13.2461 38.2529C12.217 37.2238 11.4007 36.0018 10.8438 34.6572C10.2868 33.3126 10 31.8714 10 30.416H73.333Z" fill="#F33B3B"/>
<path d="M28 56C28 54.3431 29.3431 53 31 53H38C39.6569 53 41 54.3431 41 56V70H28V56Z" fill="#F33B3B"/>
<defs>
<filter id="filter0_d_2927_705" x="10" y="13" width="72.334" height="65" filterUnits="userSpaceOnUse" color-interpolation-filters="sRGB">
<feFlood flood-opacity="0" result="BackgroundImageFix"/>
<feColorMatrix in="SourceAlpha" type="matrix" values="0 0 0 0 0 0 0 0 0 0 0 0 0 0 0 0 0 0 127 0" result="hardAlpha"/>
<feOffset dx="5" dy="4"/>
<feGaussianBlur stdDeviation="2"/>
<feComposite in2="hardAlpha" operator="out"/>
<feColorMatrix type="matrix" values="0 0 0 0 0 0 0 0 0 0 0 0 0 0 0 0 0 0 0.25 0"/>
<feBlend mode="normal" in2="BackgroundImageFix" result="effect1_dropShadow_2927_705"/>
<feBlend mode="normal" in="SourceGraphic" in2="effect1_dropShadow_2927_705" result="shape"/>
</filter>
</defs>
</svg>
