<svg width="32" height="32" viewBox="0 0 32 32" fill="none" xmlns="http://www.w3.org/2000/svg">
<path d="M19.3334 24.0003C18.4 24.0003 17.6111 23.6781 16.9667 23.0337C16.3223 22.3892 16 21.6003 16 20.667C16 19.7337 16.3223 18.9448 16.9667 18.3003C17.6111 17.6559 18.4 17.3337 19.3334 17.3337C20.2667 17.3337 21.0556 17.6559 21.7 18.3003C22.3445 18.9448 22.6667 19.7337 22.6667 20.667C22.6667 21.6003 22.3445 22.3892 21.7 23.0337C21.0556 23.6781 20.2667 24.0003 19.3334 24.0003ZM6.6667 29.3337C5.93336 29.3337 5.30559 29.0725 4.78336 28.5503C4.26114 28.0281 4.00003 27.4003 4.00003 26.667V8.00033C4.00003 7.26699 4.26114 6.63921 4.78336 6.11699C5.30559 5.59477 5.93336 5.33366 6.6667 5.33366H8.00003V2.66699H10.6667V5.33366H21.3334V2.66699H24V5.33366H25.3334C26.0667 5.33366 26.6945 5.59477 27.2167 6.11699C27.7389 6.63921 28 7.26699 28 8.00033V26.667C28 27.4003 27.7389 28.0281 27.2167 28.5503C26.6945 29.0725 26.0667 29.3337 25.3334 29.3337H6.6667ZM6.6667 26.667H25.3334V13.3337H6.6667V26.667Z" fill="currentColor"/>
</svg>
