<svg width="32" height="32" viewBox="0 0 32 32" fill="none" xmlns="http://www.w3.org/2000/svg">
<path d="M16.0003 15.9992C14.5337 15.9992 13.2781 15.477 12.2336 14.4325C11.1892 13.3881 10.667 12.1325 10.667 10.6659C10.667 9.19919 11.1892 7.94363 12.2336 6.89919C13.2781 5.85474 14.5337 5.33252 16.0003 5.33252C17.467 5.33252 18.7225 5.85474 19.767 6.89919C20.8114 7.94363 21.3337 9.19919 21.3337 10.6659C21.3337 12.1325 20.8114 13.3881 19.767 14.4325C18.7225 15.477 17.467 15.9992 16.0003 15.9992ZM5.33365 26.6659V22.9325C5.33365 22.177 5.52809 21.4825 5.91698 20.8492C6.30587 20.2159 6.82254 19.7325 7.46698 19.3992C8.84476 18.7103 10.2448 18.1936 11.667 17.8492C13.0892 17.5047 14.5337 17.3325 16.0003 17.3325C17.467 17.3325 18.9114 17.5047 20.3337 17.8492C21.7559 18.1936 23.1559 18.7103 24.5337 19.3992C25.1781 19.7325 25.6948 20.2159 26.0837 20.8492C26.4725 21.4825 26.667 22.177 26.667 22.9325V26.6659H5.33365Z" fill="currentColor"/>
</svg>
