<svg width="32" height="32" viewBox="0 0 32 32" fill="none" xmlns="http://www.w3.org/2000/svg">
<path d="M2.66565 9.33415V2.66748H9.33232V5.33415H5.33232V9.33415H2.66565ZM2.66565 29.3341V22.6675H5.33232V26.6675H9.33232V29.3341H2.66565ZM22.6656 29.3341V26.6675H26.6656V22.6675H29.3323V29.3341H22.6656ZM26.6656 9.33415V5.33415H22.6656V2.66748H29.3323V9.33415H26.6656ZM23.3323 23.3341H25.3323V25.3341H23.3323V23.3341ZM23.3323 19.3341H25.3323V21.3341H23.3323V19.3341ZM21.3323 21.3341H23.3323V23.3341H21.3323V21.3341ZM19.3323 23.3341H21.3323V25.3341H19.3323V23.3341ZM17.3323 21.3341H19.3323V23.3341H17.3323V21.3341ZM21.3323 17.3341H23.3323V19.3341H21.3323V17.3341ZM19.3323 19.3341H21.3323V21.3341H19.3323V19.3341ZM17.3323 17.3341H19.3323V19.3341H17.3323V17.3341ZM25.3323 6.66748V14.6675H17.3323V6.66748H25.3323ZM14.6656 17.3341V25.3341H6.66565V17.3341H14.6656ZM14.6656 6.66748V14.6675H6.66565V6.66748H14.6656ZM12.6656 23.3341V19.3341H8.66565V23.3341H12.6656ZM12.6656 12.6675V8.66748H8.66565V12.6675H12.6656ZM23.3323 12.6675V8.66748H19.3323V12.6675H23.3323Z" fill="currentColor"/>
</svg>
