<svg width="85" height="85" viewBox="0 -5 85 85" fill="none" xmlns="http://www.w3.org/2000/svg">
<g filter="url(#filter0_d_3199_34)">
<path d="M47.5643 10.3212C47.9046 10.5422 48.2177 10.6986 48.6112 10.8116C48.7438 10.8508 48.7438 10.8508 48.879 10.8907C49.324 11.0033 49.7602 11.0538 50.2179 11.0814C50.2721 11.0847 50.3263 11.0881 50.3822 11.0916C50.5545 11.1023 50.7268 11.1126 50.8991 11.1229C51.3367 11.1493 51.7742 11.1769 52.2117 11.2059C52.304 11.2118 52.3963 11.2176 52.4914 11.2237C52.5734 11.2298 52.6554 11.2359 52.7399 11.2422C52.8463 11.2497 52.8463 11.2497 52.9549 11.2574C53.1248 11.2889 53.1248 11.2889 53.2908 11.4549C53.4535 11.5211 53.6182 11.5826 53.7836 11.6417C54.7149 11.9941 55.4501 12.4557 56.196 13.1151C56.2489 13.16 56.3018 13.2049 56.3562 13.2512C57.1393 13.9657 57.5982 14.9603 57.9998 15.9213C58.511 17.1259 59.1989 17.7878 60.327 18.3987C60.6701 18.5858 60.9995 18.7903 61.327 19.0034C61.3751 19.0348 61.4233 19.0661 61.4729 19.0984C61.6792 19.2334 61.8845 19.3699 62.0896 19.5067C62.0896 19.5614 62.0896 19.6162 62.0896 19.6727C62.138 19.6936 62.1863 19.7146 62.2362 19.7362C63.1399 20.2355 63.7381 21.5498 64.0202 22.4972C64.3149 23.6777 64.2755 24.8431 64.2091 26.0481C64.1389 27.3746 64.2734 28.3021 64.9059 29.4689C65.8214 31.1646 66.29 32.838 65.7526 34.7668C65.4419 35.6366 64.9973 36.3896 64.4284 37.1157C63.9246 37.7787 63.5794 38.4443 63.4177 39.2625C63.4028 39.3373 63.388 39.4121 63.3727 39.4892C63.3235 39.8406 63.3117 40.1896 63.2984 40.544C63.2009 42.6837 62.6721 44.5879 61.0676 46.0951C60.2956 46.7357 59.4341 47.1596 58.5185 47.5513C57.8191 47.8527 57.1906 48.2372 56.6993 48.8344C56.6643 48.8768 56.6293 48.9193 56.5932 48.9631C56.3769 49.5518 56.7599 50.2047 56.995 50.7332C57.0786 50.9257 57.1619 51.1183 57.245 51.311C57.2783 51.388 57.2783 51.388 57.3123 51.4665C57.5999 52.134 57.8699 52.8087 58.1415 53.4828C58.2489 53.7487 58.3563 54.0146 58.4638 54.2804C58.4901 54.3453 58.5163 54.4101 58.5433 54.477C58.7765 55.053 59.0134 55.6274 59.2518 56.2013C59.6662 57.1997 60.0771 58.1995 60.4865 59.2C60.5182 59.2773 60.5498 59.3546 60.5824 59.4343C61.0866 60.6669 61.5869 61.9011 62.0856 63.1359C62.4477 64.0323 62.8129 64.9273 63.1843 65.8198C63.5629 66.7302 63.9331 67.6438 64.2997 68.5591C64.3251 68.6225 64.3506 68.6859 64.3768 68.7512C64.4492 68.9317 64.5214 69.1123 64.5934 69.2929C64.6148 69.3462 64.6362 69.3995 64.6583 69.4545C65.083 70.5216 65.083 70.5216 64.9949 71.0545C64.8276 71.366 64.7081 71.5224 64.4138 71.7186C63.4425 71.9629 62.2368 71.2427 61.3433 70.8839C60.9473 70.725 60.5507 70.5679 60.1542 70.4106C60.0769 70.3798 59.9995 70.3491 59.9199 70.3175C59.309 70.0748 58.6981 69.8323 58.0845 69.5967C58.0082 69.5665 57.9319 69.5364 57.8533 69.5053C57.4467 69.3509 57.1294 69.279 56.6941 69.3113C56.5498 69.5895 56.4056 69.8676 56.2615 70.1459C56.2074 70.2503 56.1533 70.3547 56.0992 70.4591C55.7283 71.1745 55.3605 71.8914 54.9957 72.6099C54.8791 72.839 54.7625 73.0681 54.6459 73.2972C54.5696 73.4474 54.4935 73.5977 54.4175 73.7481C54.3094 73.962 54.2007 74.1755 54.092 74.3891C54.0604 74.452 54.0288 74.515 53.9962 74.5799C53.3037 75.9339 53.3037 75.9339 52.7927 76.201C52.4022 76.2624 52.091 76.2896 51.7571 76.0591C51.0858 75.4497 50.8018 74.2908 50.4685 73.4566C50.4148 73.3228 50.361 73.1891 50.3072 73.0554C50.1958 72.7783 50.0846 72.5011 49.9737 72.2238C49.8327 71.8716 49.6909 71.5198 49.5488 71.168C49.4401 70.8989 49.3317 70.6298 49.2234 70.3606C49.1716 70.2321 49.1198 70.1036 49.0679 69.9752C48.9959 69.7969 48.9243 69.6185 48.8528 69.4401C48.812 69.3388 48.7712 69.2375 48.7293 69.1331C48.6423 68.8963 48.6423 68.8963 48.6423 68.7303C48.5875 68.7029 48.5328 68.6755 48.4763 68.6473C48.421 68.4536 48.3656 68.2599 48.3103 68.0662C48.2555 68.0388 48.2007 68.0114 48.1443 67.9832C48.1286 67.8513 48.113 67.7194 48.0976 67.5875C48.0205 67.1943 47.8398 66.8299 47.6826 66.4631C47.613 66.2993 47.5437 66.1353 47.4747 65.9713C47.4439 65.8993 47.4132 65.8274 47.3815 65.7533C47.3142 65.576 47.3142 65.576 47.3142 65.41C47.2594 65.3826 47.2046 65.3552 47.1482 65.327C47.0941 65.1781 47.0941 65.1781 47.0428 64.9794C46.8825 64.4127 46.6539 63.8775 46.4271 63.3348C46.3434 63.1343 46.2601 62.9337 46.1771 62.733C46.1404 62.6452 46.1037 62.5575 46.0659 62.4671C45.9861 62.2557 45.9861 62.2557 45.9861 62.0897C45.9313 62.0623 45.8765 62.0349 45.8201 62.0067C45.7646 61.8554 45.7646 61.8554 45.7123 61.6547C45.5591 61.1149 45.3499 60.6028 45.1378 60.0839C45.096 59.9806 45.0541 59.8773 45.0123 59.7739C44.903 59.5042 44.7933 59.2345 44.6834 58.965C44.5076 58.5332 44.3325 58.1011 44.1573 57.669C44.0965 57.5194 44.0357 57.37 43.9748 57.2205C43.7807 56.743 43.5907 56.2649 43.4128 55.7811C43.3033 55.7811 43.1937 55.7811 43.0808 55.7811C42.5828 55.7811 42.0847 55.7811 41.5867 55.7811C41.5492 55.8747 41.5492 55.8747 41.511 55.9701C40.3377 58.9036 40.3377 58.9036 40.2221 59.1926C40.14 59.3978 40.0579 59.6029 39.9759 59.8081C39.7727 60.3162 39.5694 60.8243 39.3659 61.3323C38.8179 62.7006 38.2729 64.0701 37.7295 65.4403C37.2726 66.5925 36.8149 67.7444 36.3572 68.8963C36.336 68.9497 36.3147 69.0031 36.2929 69.0581C34.7935 72.8309 34.7935 72.8309 34.1435 74.3999C34.0984 74.5089 34.0535 74.618 34.0088 74.7272C33.9493 74.8725 33.8887 75.0175 33.828 75.1624C33.7951 75.2416 33.7622 75.3209 33.7283 75.4025C33.5466 75.7604 33.3428 76.0654 32.9539 76.201C32.6165 76.2475 32.3057 76.2355 31.9837 76.1232C31.3071 75.5197 30.9441 74.5487 30.5414 73.7523C30.411 73.4954 30.2802 73.2386 30.1494 72.9818C30.1186 72.9211 30.0877 72.8603 30.0559 72.7978C29.8633 72.4198 29.6638 72.0472 29.4492 71.6811C29.3845 71.5526 29.3845 71.5526 29.3845 71.3865C29.3297 71.3591 29.2749 71.3318 29.2185 71.3035C29.1264 71.1282 29.0409 70.9495 28.9591 70.7692C28.9144 70.6717 28.8696 70.5742 28.8236 70.4738C28.7205 70.2244 28.7205 70.2244 28.7205 70.0584C28.6657 70.031 28.6109 70.0036 28.5544 69.9754C28.4656 69.822 28.4656 69.822 28.378 69.6382C28.3487 69.5773 28.3194 69.5164 28.2892 69.4537C28.2672 69.4067 28.2451 69.3597 28.2224 69.3113C27.6694 69.2622 27.2586 69.4348 26.7526 69.6453C26.667 69.68 26.5815 69.7146 26.4933 69.7504C26.3109 69.8244 26.1287 69.8988 25.9466 69.9737C25.664 70.0899 25.3808 70.2047 25.0975 70.3192C24.4922 70.5639 23.8874 70.81 23.2827 71.0564C22.9187 71.2045 22.5541 71.3506 22.1888 71.4955C22.1069 71.5293 22.025 71.5631 21.9406 71.5979C21.511 71.7671 21.2128 71.8503 20.7517 71.7186C20.4988 71.5806 20.3133 71.3787 20.1343 71.1531C20.0013 70.6358 20.2275 70.0986 20.4197 69.6236C20.4452 69.5588 20.4707 69.494 20.4969 69.4272C20.5811 69.2136 20.6664 69.0005 20.7517 68.7874C20.8119 68.6353 20.872 68.4833 20.932 68.3312C21.0576 68.0136 21.1835 67.6962 21.3099 67.379C21.4893 66.9284 21.6675 66.4773 21.8454 66.0261C22.1684 65.2069 22.4926 64.3882 22.8169 63.5696C22.9761 63.1678 23.1351 62.7659 23.2941 62.364C23.5586 61.6958 23.8231 61.0276 24.0876 60.3595C24.3829 59.6136 24.6782 58.8676 24.9734 58.1217C25.2335 57.4642 25.4938 56.8069 25.7541 56.1495C25.9734 55.5955 26.1926 55.0415 26.4117 54.4875C26.5689 54.09 26.7262 53.6925 26.8835 53.295C26.9586 53.1051 27.0338 52.9152 27.1088 52.7252C27.214 52.459 27.3194 52.1929 27.4248 51.9267C27.4577 51.8434 27.4906 51.7601 27.5245 51.6743C27.6749 51.2948 27.8273 50.9166 27.9868 50.5408C28.0143 50.4759 28.0418 50.4109 28.07 50.344C28.1204 50.2256 28.1713 50.1076 28.2231 49.9898C28.3477 49.6969 28.4327 49.4596 28.3884 49.1404C28.2588 48.9573 28.1375 48.8078 27.9838 48.6476C27.9418 48.6034 27.8997 48.5591 27.8565 48.5136C27.3171 47.9631 26.7034 47.6727 26.0115 47.3502C25.8963 47.2965 25.8963 47.2965 25.7789 47.2416C25.7023 47.206 25.6257 47.1703 25.5467 47.1336C24.9727 46.8616 24.4776 46.5611 23.989 46.1522C23.8683 46.0583 23.8683 46.0583 23.7452 45.9625C23.46 45.7236 23.2459 45.4465 23.0292 45.1457C22.9894 45.0906 22.9496 45.0355 22.9086 44.9787C22.5946 44.5342 22.3461 44.0932 22.1628 43.5789C22.1325 43.4973 22.1021 43.4156 22.0708 43.3315C21.7916 42.4849 21.746 41.6265 21.6821 40.7427C21.5923 39.5249 21.5056 38.4213 20.7514 37.4107C19.556 35.799 18.8537 34.0579 19.1149 32.0252C19.2537 31.152 19.5775 30.4086 19.9967 29.6367C20.1556 29.3411 20.3055 29.0411 20.456 28.7413C20.4844 28.6858 20.5128 28.6304 20.542 28.5733C20.7411 28.1796 20.8462 27.8774 20.8415 27.4377C20.841 27.365 20.8404 27.2923 20.8399 27.2175C20.8389 27.1393 20.838 27.0611 20.837 26.9806C20.8359 26.813 20.8349 26.6453 20.8339 26.4777C20.8319 26.2151 20.8296 25.9525 20.8267 25.6899C20.8042 23.43 21.0559 21.4819 22.7024 19.7917C23.3803 19.1463 24.141 18.6922 24.9644 18.2564C25.6256 17.8997 26.1737 17.5021 26.5623 16.8504C26.5623 16.7682 26.5623 16.6861 26.5623 16.6014C26.6444 16.6014 26.7266 16.6014 26.8113 16.6014C26.8331 16.5461 26.8549 16.4907 26.8774 16.4338C27.7576 14.2533 28.8788 12.6709 31.067 11.6618C32.341 11.157 33.7533 11.0993 35.1073 11.025C35.9543 10.9719 36.6482 10.7633 37.3896 10.355C37.4507 10.3222 37.5118 10.2894 37.5747 10.2556C37.9164 10.0696 38.244 9.87161 38.5673 9.65467C39.3203 9.16182 40.1962 8.83231 41.0886 8.71564C41.1508 8.70655 41.213 8.69745 41.277 8.68808C43.6679 8.39071 45.5978 9.01005 47.5643 10.3212Z" fill="#E53F33"/>
</g>
<path d="M53.4575 18.1788C53.5374 18.2419 53.6172 18.305 53.6994 18.3701C54.0962 18.6878 54.471 19.0128 54.8236 19.3788C54.9661 19.5257 54.9661 19.5257 55.2007 19.7092C55.5138 19.9767 55.7683 20.2694 56.0308 20.586C56.0665 20.6286 56.1023 20.6712 56.1392 20.7151C58.8308 23.9331 60.2126 27.8193 60.2119 32.0122C60.2123 32.257 60.2153 32.5016 60.2185 32.7463C60.2433 36.9765 58.4246 41.2878 55.5577 44.3687C55.3919 44.548 55.2334 44.7309 55.0762 44.9177C52.4421 47.9316 48.0773 49.7096 44.1607 50.0538C43.9055 50.0667 43.6506 50.0711 43.3951 50.0736C43.3242 50.0744 43.2532 50.0752 43.1801 50.076C41.6519 50.0899 40.176 50.0832 38.6821 49.7217C38.6075 49.7048 38.5329 49.6879 38.456 49.6705C34.9505 48.8667 31.4359 46.8752 29.1362 44.0772C29.0726 44.0033 29.0089 43.9293 28.9433 43.8532C25.7987 40.1691 24.4316 35.4044 24.7714 30.6001C24.9219 28.8788 25.3399 27.1685 25.9819 25.5665C26.0161 25.48 26.0161 25.48 26.0509 25.3918C26.9419 23.1638 28.3268 21.3225 29.9663 19.5899C30.0458 19.5052 30.0458 19.5052 30.1268 19.4187C35.6366 13.7107 44.8872 12.9665 53.4575 18.1788Z" fill="#E53F33"/>
<path d="M23.7393 45.7373C23.9673 45.8873 24.1933 46.0362 24.4115 46.2003C24.9169 46.575 25.4371 46.8343 26.0068 47.0917C27.3876 47.7167 28.3663 48.4645 28.9748 49.8666C29.1084 50.1713 29.2479 50.441 29.4455 50.7097C29.6329 50.9668 29.6329 50.9668 29.6329 51.1328C29.6877 51.1328 29.7424 51.1328 29.7989 51.1328C29.9007 51.2547 29.9007 51.2547 30.0168 51.4233C30.8768 52.5913 32.107 53.3499 33.5342 53.623C34.4462 53.7551 35.3537 53.7042 36.2657 53.5939C37.0181 53.5393 37.5372 53.8378 38.1755 54.1919C40.2217 55.3163 42.4018 55.8529 44.7173 55.2326C45.6428 54.9513 46.4806 54.4195 47.3064 53.9272C47.9418 53.5846 48.5209 53.5665 49.2227 53.6646C50.8415 53.8862 52.502 53.4927 53.8374 52.5595C54.7215 51.8862 54.7215 51.8862 55.2823 50.9623C55.3762 50.6857 55.4899 50.5857 55.6973 50.3857C55.8369 50.1496 55.8369 50.1496 55.9567 49.8929C55.998 49.8082 56.0393 49.7236 56.0819 49.6364C56.1959 49.3991 56.1959 49.3991 56.2674 49.1815C56.3921 48.907 56.5737 48.7007 56.7764 48.4818C56.8171 48.4378 56.8577 48.3939 56.8996 48.3486C57.2591 47.9731 57.6361 47.7083 58.1045 47.4805C58.2278 47.4203 58.2278 47.4203 58.3536 47.3589C58.9779 47.0654 58.9779 47.0654 59.1837 47.0654C59.1837 47.1202 59.1837 47.175 59.1837 47.2314C59.1394 47.251 59.0951 47.2706 59.0494 47.2908C57.8946 47.774 57.8946 47.774 56.9424 48.5596C56.8985 48.6063 56.8545 48.6531 56.8092 48.7013C56.5844 48.9682 56.5256 49.0681 56.5349 49.4331C56.608 49.8963 56.805 50.3077 56.9943 50.7333C57.0779 50.9258 57.1612 51.1185 57.2443 51.3111C57.2665 51.3625 57.2887 51.4138 57.3116 51.4667C57.5992 52.1342 57.8692 52.8089 58.1409 53.483C58.2482 53.7489 58.3557 54.0148 58.4632 54.2806C58.5025 54.3779 58.5025 54.3779 58.5426 54.4771C58.7758 55.0532 59.0127 55.6276 59.2511 56.2015C59.6655 57.1999 60.0765 58.1997 60.4858 59.2001C60.5175 59.2775 60.5491 59.3548 60.5817 59.4345C61.0859 60.6671 61.5862 61.9013 62.085 63.1361C62.447 64.0325 62.8122 64.9274 63.1836 65.82C63.5622 66.7304 63.9324 67.644 64.299 68.5593C64.3245 68.6227 64.3499 68.6861 64.3761 68.7514C64.4485 68.9319 64.5207 69.1125 64.5928 69.293C64.6142 69.3464 64.6356 69.3997 64.6576 69.4546C65.0823 70.5218 65.0823 70.5218 64.9942 71.0547C64.8269 71.3661 64.7074 71.5226 64.4131 71.7188C63.4418 71.9631 62.2361 71.2429 61.3426 70.8841C60.9467 70.7252 60.55 70.5681 60.1535 70.4107C60.0375 70.3647 60.0375 70.3647 59.9192 70.3177C59.3084 70.0749 58.6974 69.8325 58.0838 69.5969C58.0075 69.5667 57.9313 69.5366 57.8527 69.5055C57.446 69.3511 57.1288 69.2792 56.6934 69.3115C56.5491 69.5896 56.4049 69.8678 56.2608 70.146C56.2067 70.2505 56.1526 70.3549 56.0985 70.4593C55.7276 71.1747 55.3599 71.8916 54.995 72.6101C54.8784 72.8392 54.7618 73.0683 54.6452 73.2974C54.5689 73.4476 54.4928 73.5979 54.4168 73.7482C54.3087 73.9621 54.2001 74.1757 54.0913 74.3893C54.0597 74.4522 54.0281 74.5152 53.9955 74.58C53.3031 75.934 53.3031 75.934 52.792 76.2012C52.4015 76.2626 52.0903 76.2897 51.7564 76.0593C51.0851 75.4499 50.8011 74.291 50.4678 73.4567C50.4141 73.323 50.3603 73.1892 50.3065 73.0555C50.1951 72.7785 50.0839 72.5013 49.973 72.224C49.832 71.8718 49.6902 71.5199 49.5481 71.1682C49.4394 70.8991 49.331 70.6299 49.2227 70.3607C49.1709 70.2322 49.1191 70.1038 49.0672 69.9753C48.9952 69.7971 48.9236 69.6187 48.8521 69.4403C48.8113 69.339 48.7706 69.2377 48.7286 69.1333C48.6417 68.8965 48.6417 68.8965 48.6417 68.7305C48.5869 68.7031 48.5321 68.6757 48.4756 68.6475C48.4203 68.4538 48.365 68.2601 48.3096 68.0664C48.2548 68.039 48.2001 68.0116 48.1436 67.9834C48.1279 67.8515 48.1123 67.7196 48.097 67.5877C48.0198 67.1945 47.8391 66.83 47.6819 66.4633C47.6124 66.2995 47.5431 66.1355 47.474 65.9714C47.4433 65.8995 47.4125 65.8276 47.3808 65.7534C47.3135 65.5762 47.3135 65.5762 47.3135 65.4102C47.2587 65.3828 47.204 65.3554 47.1475 65.3271C47.0934 65.1783 47.0934 65.1783 47.0421 64.9796C46.8818 64.4128 46.6533 63.8777 46.4264 63.335C46.3427 63.1345 46.2595 62.9339 46.1764 62.7332C46.1397 62.6454 46.1031 62.5577 46.0653 62.4673C45.9854 62.2559 45.9854 62.2559 45.9854 62.0898C45.9306 62.0625 45.8758 62.0351 45.8194 62.0068C45.7639 61.8556 45.7639 61.8556 45.7116 61.6549C45.5585 61.1151 45.3493 60.603 45.1372 60.084C45.0953 59.9807 45.0534 59.8774 45.0116 59.7741C44.9023 59.5043 44.7926 59.2347 44.6828 58.9651C44.5069 58.5333 44.3318 58.1012 44.1566 57.6692C44.0959 57.5196 44.035 57.3701 43.9741 57.2206C43.78 56.7431 43.59 56.2651 43.4122 55.7812C43.3026 55.7812 43.193 55.7812 43.0801 55.7812C42.5821 55.7812 42.084 55.7812 41.586 55.7812C41.5486 55.8748 41.5486 55.8748 41.5104 55.9703C40.337 58.9038 40.337 58.9038 40.2214 59.1928C40.1393 59.3979 40.0573 59.6031 39.9752 59.8083C39.772 60.3164 39.5687 60.8245 39.3652 61.3325C38.8172 62.7008 38.2722 64.0703 37.7288 65.4405C37.2719 66.5927 36.8142 67.7446 36.3565 68.8965C36.3353 68.9499 36.3141 69.0033 36.2922 69.0583C34.7929 72.8311 34.7929 72.8311 34.1428 74.4001C34.0977 74.5091 34.0528 74.6182 34.0082 74.7274C33.9486 74.8727 33.888 75.0177 33.8274 75.1626C33.7945 75.2418 33.7616 75.321 33.7277 75.4026C33.5459 75.7606 33.3421 76.0655 32.9532 76.2012C32.6158 76.2476 32.305 76.2357 31.983 76.1234C31.3064 75.5199 30.9434 74.5489 30.5408 73.7524C30.4103 73.4955 30.2795 73.2388 30.1488 72.982C30.1179 72.9213 30.0871 72.8605 30.0553 72.7979C29.8627 72.4199 29.6631 72.0474 29.4486 71.6813C29.3838 71.5527 29.3838 71.5527 29.3838 71.3867C29.3291 71.3593 29.2743 71.3319 29.2178 71.3037C29.1258 71.1284 29.0402 70.9497 28.9584 70.7693C28.9137 70.6719 28.869 70.5744 28.8229 70.474C28.7198 70.2246 28.7198 70.2246 28.7198 70.0586C28.665 70.0312 28.6102 70.0038 28.5538 69.9756C28.4649 69.8222 28.4649 69.8222 28.3774 69.6384C28.3481 69.5775 28.3187 69.5166 28.2885 69.4539C28.2665 69.4069 28.2444 69.3599 28.2217 69.3115C27.6687 69.2624 27.2579 69.4349 26.7519 69.6455C26.6236 69.6975 26.6236 69.6975 26.4926 69.7505C26.3102 69.8245 26.128 69.899 25.9459 69.9739C25.6633 70.09 25.3802 70.2049 25.0968 70.3194C24.4915 70.5641 23.8867 70.8102 23.282 71.0565C22.9181 71.2046 22.5534 71.3508 22.1881 71.4957C22.1062 71.5295 22.0243 71.5633 21.94 71.5981C21.5104 71.7672 21.2121 71.8505 20.751 71.7188C20.4982 71.5808 20.3126 71.3789 20.1337 71.1533C20.0007 70.636 20.2269 70.0988 20.419 69.6238C20.4445 69.559 20.47 69.4941 20.4963 69.4274C20.5805 69.2138 20.6657 69.0007 20.751 68.7875C20.8112 68.6355 20.8713 68.4834 20.9314 68.3313C21.0569 68.0138 21.1829 67.6964 21.3092 67.3792C21.4886 66.9285 21.6669 66.4775 21.8447 66.0262C22.1678 65.2071 22.4919 64.3884 22.8162 63.5698C22.9754 63.1679 23.1344 62.766 23.2935 62.3642C23.5579 61.696 23.8224 61.0278 24.0869 60.3596C24.3822 59.6137 24.6775 58.8678 24.9727 58.1218C25.2329 57.4644 25.4931 56.807 25.7534 56.1497C25.9727 55.5957 26.1919 55.0417 26.411 54.4877C26.5682 54.0901 26.7255 53.6927 26.8828 53.2952C26.958 53.1053 27.0331 52.9153 27.1082 52.7254C27.2134 52.4592 27.3187 52.193 27.4241 51.9269C27.457 51.8436 27.4899 51.7603 27.5238 51.6745C27.6742 51.295 27.8266 50.9168 27.9862 50.541C28.0136 50.4761 28.0411 50.4111 28.0694 50.3442C28.1197 50.2258 28.1707 50.1077 28.2224 49.99C28.347 49.6971 28.4321 49.4597 28.3878 49.1406C28.2581 48.9575 28.1368 48.8079 27.9831 48.6478C27.9411 48.6035 27.8991 48.5593 27.8558 48.5137C27.3164 47.9632 26.7027 47.6729 26.0108 47.3503C25.934 47.3145 25.8573 47.2787 25.7782 47.2418C25.6636 47.1885 25.6636 47.1885 25.5466 47.1341C24.8857 46.8212 24.2281 46.4621 23.7393 45.9033C23.7393 45.8485 23.7393 45.7937 23.7393 45.7373Z" fill="#E53F33"/>
<path d="M42.9973 20.6691C43.7551 20.9897 44.082 21.9884 44.3981 22.6976C44.4765 22.8711 44.555 23.0446 44.6335 23.218C44.6763 23.313 44.719 23.408 44.7631 23.5058C45.0142 24.0627 45.2686 24.6181 45.5226 25.1736C45.6108 25.3667 45.6988 25.5597 45.7868 25.7528C45.8418 25.8734 45.8968 25.994 45.9519 26.1146C45.9767 26.1692 46.0016 26.2239 46.0272 26.2802C46.0957 26.43 46.1651 26.5793 46.2346 26.7287C46.2768 26.8654 46.2768 26.8654 46.3199 27.0049C46.5122 27.2654 46.5744 27.2739 46.8815 27.3376C47.0519 27.3625 47.2228 27.385 47.3938 27.4054C47.4858 27.4182 47.5778 27.431 47.6725 27.4442C47.9677 27.4846 48.2632 27.5218 48.5588 27.5588C48.7495 27.5839 48.9402 27.6092 49.1309 27.6347C49.801 27.7232 50.4716 27.8081 51.1425 27.891C51.4298 27.9266 51.7169 27.9633 52.004 28.0001C52.0903 28.0104 52.1766 28.0208 52.2655 28.0315C53.4778 28.1887 53.4778 28.1887 53.8662 28.643C54.1585 29.0594 54.174 29.3809 54.1204 29.883C53.8429 30.4611 53.29 30.9022 52.8114 31.3181C52.4666 31.6183 52.1331 31.9291 51.8013 32.2435C51.7412 32.3003 51.6811 32.357 51.6191 32.4155C51.429 32.595 51.239 32.7746 51.0491 32.9543C50.7985 33.1913 50.5477 33.4282 50.2968 33.665C50.2406 33.7183 50.1844 33.7716 50.1264 33.8265C50.0721 33.8777 50.0178 33.929 49.9619 33.9818C49.883 34.0577 49.883 34.0577 49.8026 34.1352C49.6379 34.2824 49.6379 34.2824 49.4464 34.415C49.2531 34.5539 49.1113 34.6687 48.9739 34.8634C48.9266 35.21 48.9855 35.5194 49.0569 35.8595C49.0794 35.9766 49.0794 35.9766 49.1023 36.0961C49.1533 36.3436 49.2109 36.589 49.2696 36.8349C49.4832 37.7647 49.6832 38.6967 49.8728 39.6317C49.9028 39.779 49.933 39.9263 49.9636 40.0735C50.0069 40.2824 50.0492 40.4915 50.0912 40.7006C50.1107 40.7931 50.1107 40.7931 50.1305 40.8874C50.2295 41.3888 50.3197 41.9244 50.1204 42.4068C49.891 42.6757 49.7209 42.8131 49.3602 42.8546C48.7535 42.8721 48.3421 42.7465 47.8085 42.4677C47.7324 42.4298 47.6564 42.3919 47.578 42.3529C47.4165 42.2722 47.2554 42.1907 47.0947 42.1084C46.8448 41.9803 46.5939 41.8546 46.3426 41.7294C45.863 41.4901 45.3846 41.2483 44.9065 41.006C44.4959 40.7983 44.0843 40.5926 43.6718 40.3887C43.5922 40.3476 43.5126 40.3065 43.4306 40.2642C42.9983 40.0506 42.7292 39.9415 42.2502 40.0929C41.8938 40.2434 41.5484 40.413 41.2023 40.5858C41.0984 40.6369 40.9946 40.6879 40.8907 40.7388C40.6648 40.8496 40.4391 40.9608 40.2136 41.0723C39.6066 41.3721 38.9977 41.6679 38.3889 41.964C38.1853 42.0632 37.9818 42.1626 37.7783 42.2621C37.652 42.3238 37.5258 42.3854 37.3995 42.447C37.3421 42.4751 37.2847 42.5033 37.2255 42.5323C36.3093 42.9785 36.3093 42.9785 35.7756 42.9152C35.4219 42.7634 35.1723 42.5837 34.9456 42.2719C34.7661 41.6887 34.8697 41.1138 35.0085 40.5316C35.0237 40.4648 35.039 40.3979 35.0547 40.3291C35.104 40.1136 35.1545 39.8983 35.205 39.6831C35.2393 39.534 35.2735 39.3849 35.3076 39.2357C35.4584 38.5785 35.6124 37.9221 35.7672 37.2658C35.8014 37.1201 35.8014 37.1201 35.8362 36.9715C35.8773 36.797 35.9189 36.6226 35.9612 36.4484C36.014 36.2251 36.061 36.0012 36.1077 35.7765C36.1267 35.7064 36.1458 35.6363 36.1654 35.564C36.2368 35.2253 36.2487 35.0355 36.0555 34.7391C35.8583 34.5209 35.6516 34.3237 35.4332 34.1267C35.3251 34.0237 35.3251 34.0237 35.2147 33.9186C34.9451 33.6638 34.6764 33.4174 34.3817 33.1919C34.3213 33.1409 34.2608 33.0898 34.1985 33.0373C34.1985 32.9825 34.1985 32.9277 34.1985 32.8713C34.125 32.8385 34.125 32.8385 34.0501 32.805C33.8585 32.7009 33.7364 32.593 33.585 32.4371C33.5333 32.3844 33.4816 32.3317 33.4283 32.2775C33.3743 32.2217 33.3203 32.166 33.2647 32.1086C32.8928 31.7304 32.5214 31.3619 32.1162 31.0191C31.0674 30.0945 31.0674 30.0945 31.0244 29.7027C31.0105 29.2207 31.0333 28.9241 31.3762 28.5549C31.9328 28.1364 32.5833 28.1052 33.2543 28.0205C33.382 28.0034 33.5098 27.9863 33.6375 27.969C33.9065 27.9328 34.1755 27.8974 34.4446 27.8625C34.8669 27.8075 35.2889 27.75 35.7108 27.692C36.7205 27.5536 36.7205 27.5536 37.1103 27.5015C37.229 27.4855 37.3477 27.4689 37.4662 27.4519C37.7696 27.4092 38.06 27.393 38.3657 27.394C38.679 27.3429 38.679 27.3429 38.8104 27.1532C38.9413 26.9203 39.0453 26.6849 39.1478 26.4382C39.1885 26.3472 39.2292 26.2562 39.2711 26.1624C39.3604 25.9623 39.4485 25.762 39.5352 25.5608C39.7624 25.0352 40.0024 24.5155 40.2401 23.9946C40.3178 23.8237 40.3948 23.6524 40.4716 23.481C40.7285 22.9085 40.9916 22.339 41.2658 21.7745C41.2917 21.7197 41.3176 21.665 41.3442 21.6085C41.7339 20.8183 42.1489 20.5814 42.9973 20.6691Z" fill="#E53F33"/>
<path d="M56.8604 50.8008C57.1715 51.0082 57.2109 51.1623 57.35 51.507C57.3837 51.5897 57.3837 51.5897 57.4181 51.674C57.4923 51.8565 57.5654 52.0394 57.6385 52.2223C57.6906 52.3509 57.7428 52.4795 57.795 52.6081C57.9025 52.8729 58.0095 53.138 58.1162 53.4032C58.2571 53.7536 58.3989 54.1036 58.5413 54.4534C58.5845 54.5598 58.6278 54.6662 58.6711 54.7726C58.703 54.8512 58.703 54.8512 58.7357 54.9314C58.8017 55.0937 58.8675 55.256 58.9333 55.4184C59.2829 56.2804 59.6354 57.1412 59.9887 58.0017C60.1009 58.2749 60.2131 58.5482 60.3253 58.8214C60.3537 58.8907 60.3822 58.96 60.4115 59.0315C60.7589 59.8777 61.1054 60.7244 61.4517 61.571C61.4837 61.6493 61.5157 61.7275 61.5487 61.8082C61.9437 62.7738 62.3384 63.7395 62.7312 64.706C62.9394 65.218 63.1488 65.7295 63.3591 66.2407C63.4939 66.5683 63.6285 66.8961 63.763 67.2238C63.8294 67.3854 63.896 67.5469 63.9626 67.7084C65.0926 70.4484 65.0926 70.4484 64.9951 71.0547C64.8279 71.3661 64.7084 71.5226 64.4141 71.7188C63.3905 71.9763 62.061 71.1729 61.1197 70.7953C60.802 70.6685 60.4842 70.5421 60.1664 70.4156C60.0888 70.3847 60.0112 70.3537 59.9312 70.3218C59.1982 70.0301 58.4624 69.7463 57.7247 69.4666C57.6468 69.437 57.5688 69.4073 57.4884 69.3767C57.4225 69.3518 57.3565 69.3268 57.2885 69.3012C57.1129 69.2299 56.9463 69.1481 56.7773 69.0625C57.3124 69.1035 57.7476 69.2038 58.2426 69.4062C58.3095 69.4327 58.3764 69.4591 58.4453 69.4864C58.5885 69.5432 58.7315 69.6004 58.8744 69.6579C59.0991 69.7484 59.3243 69.8378 59.5496 69.9268C59.858 70.0487 60.1662 70.1709 60.4743 70.2935C61.0944 70.54 61.7152 70.7844 62.3376 71.0252C62.5171 71.0949 62.6962 71.1656 62.8753 71.2363C62.9847 71.2787 63.0942 71.3211 63.2036 71.3634C63.2976 71.4001 63.3916 71.4369 63.4884 71.4748C63.8429 71.5804 64.1252 71.5855 64.4815 71.4905C64.6693 71.4054 64.6693 71.4054 64.7305 71.2518C64.7736 70.7066 64.7442 70.2814 64.549 69.7681C64.5273 69.7091 64.5057 69.6501 64.4835 69.5893C64.075 68.4945 63.6062 67.4217 63.143 66.3492C62.9963 66.0094 62.8584 65.6683 62.728 65.322C62.5443 64.8369 62.3422 64.361 62.1365 63.8849C61.7573 63.0065 61.3985 62.1226 61.0574 61.2286C60.7448 60.4123 60.4214 59.5979 60.051 58.8058C59.8922 58.4633 59.7569 58.115 59.6272 57.7608C59.3386 56.9828 59.0239 56.2161 58.7073 55.4492C58.6484 55.3063 58.5896 55.1633 58.5308 55.0203C58.1727 54.1505 57.8129 53.2813 57.4493 52.4138C57.2995 52.0562 57.1508 51.6983 57.0043 51.3394C56.9767 51.2719 56.9491 51.2044 56.9206 51.1349C56.8604 50.9668 56.8604 50.9668 56.8604 50.8008Z" fill="#D83826"/>
<path d="M28.0099 68.9561C28.2227 68.9794 28.2227 68.9794 28.3488 69.078C28.7274 69.6087 29.0052 70.1869 29.288 70.772C29.7772 71.7812 30.2776 72.7822 30.8316 73.7575C31.001 74.0573 31.1629 74.358 31.3128 74.668C31.3567 74.759 31.3567 74.759 31.4015 74.8518C31.4559 74.9656 31.5093 75.0799 31.5617 75.1947C31.7242 75.5362 31.8844 75.7515 32.207 75.9521C32.3939 76.0036 32.3939 76.0036 32.5806 75.9936C32.6413 75.9944 32.7021 75.9953 32.7647 75.9962C33.0335 75.9336 33.1673 75.8072 33.3691 75.62C33.5068 75.3798 33.5068 75.3798 33.6101 75.1048C33.6717 74.953 33.6717 74.953 33.7345 74.7981C33.777 74.6899 33.8195 74.5817 33.862 74.4735C33.9063 74.3631 33.9508 74.2527 33.9953 74.1424C34.0818 73.9276 34.1676 73.7126 34.2528 73.4972C34.3421 73.2714 34.4321 73.0459 34.5231 72.8208C34.6376 72.5368 34.7506 72.2523 34.8633 71.9677C34.9051 71.8635 34.9469 71.7593 34.9888 71.6551C35.2251 71.0672 35.4565 70.4778 35.6788 69.8844C35.7816 69.6305 35.8999 69.3888 36.0254 69.1454C36.1316 69.4422 36.0856 69.6014 35.9693 69.8899C35.9186 70.0175 35.9186 70.0175 35.8669 70.1478C35.8284 70.2416 35.79 70.3354 35.7504 70.432C35.7107 70.5307 35.671 70.6294 35.6301 70.7311C35.539 70.9571 35.4473 71.1829 35.3552 71.4085C35.207 71.7721 35.0609 72.1366 34.915 72.5011C34.7828 72.831 34.6498 73.1606 34.5166 73.4902C34.4506 73.6539 34.3847 73.8177 34.3191 73.9816C34.2257 74.2147 34.1312 74.4474 34.0364 74.68C34.0088 74.7496 33.9812 74.8191 33.9527 74.8907C33.7607 75.3582 33.5439 75.8554 33.1172 76.1528C32.7387 76.2649 32.3552 76.2528 31.9839 76.1233C31.3074 75.5198 30.9443 74.5488 30.5417 73.7523C30.4112 73.4954 30.2805 73.2387 30.1497 72.9819C30.1188 72.9212 30.088 72.8604 30.0562 72.7978C29.8636 72.4199 29.664 72.0473 29.4495 71.6812C29.3848 71.5526 29.3848 71.5526 29.3848 71.3866C29.33 71.3592 29.2752 71.3318 29.2188 71.3036C29.1267 71.1283 29.0411 70.9496 28.9594 70.7693C28.9146 70.6718 28.8699 70.5743 28.8238 70.4739C28.7207 70.2245 28.7207 70.2245 28.7207 70.0585C28.6659 70.0311 28.6111 70.0037 28.5547 69.9755C28.507 69.866 28.4624 69.7551 28.4198 69.6435C28.2994 69.3803 28.2994 69.3803 28.0534 69.2492C27.8491 69.2226 27.8491 69.2226 27.5586 69.2284C27.7049 69.0436 27.7713 68.9836 28.0099 68.9561Z" fill="#F23B3B"/>
<path d="M55.1172 12.4512C55.563 12.5297 55.8591 12.8309 56.1963 13.1152C56.2463 13.1571 56.2962 13.1989 56.3477 13.242C57.134 13.9624 57.5958 14.9542 58 15.9215C58.5113 17.126 59.1992 17.788 60.3272 18.3989C60.6704 18.586 60.9997 18.7905 61.3272 19.0036C61.3754 19.0349 61.4235 19.0663 61.4731 19.0986C61.6794 19.2336 61.8847 19.3701 62.0898 19.5068C62.0898 19.5616 62.0898 19.6164 62.0898 19.6729C62.1624 19.7043 62.1624 19.7043 62.2364 19.7364C63.0389 20.1798 63.5805 21.3008 63.916 22.1216C63.9959 22.4011 64.0207 22.6213 63.999 22.9102C63.8321 22.6597 63.7473 22.4404 63.6462 22.1579C63.3066 21.2673 62.8393 20.601 62.1729 19.9219C62.0992 19.8452 62.0992 19.8452 62.024 19.7669C61.4927 19.2578 60.8221 18.9418 60.1807 18.5938C58.7876 17.8317 58.1327 16.8384 57.5192 15.4187C56.999 14.2199 56.2182 13.2507 55.1172 12.5342C55.1172 12.5068 55.1172 12.4794 55.1172 12.4512Z" fill="#E43F2C"/>
<path d="M56.3615 69.4775C56.4262 69.6657 56.4573 69.7718 56.3922 69.9631C56.3628 70.0158 56.3334 70.0685 56.3031 70.1228C56.2536 70.2138 56.2536 70.2138 56.2031 70.3066C56.1663 70.372 56.1296 70.4374 56.0917 70.5048C56.0141 70.6471 55.9368 70.7896 55.8595 70.9321C55.819 71.0066 55.7785 71.081 55.7368 71.1577C55.5355 71.5343 55.347 71.917 55.1579 72.2998C54.7418 73.1369 54.315 73.9673 53.8712 74.79C53.8295 74.8681 53.8295 74.8681 53.7869 74.9478C53.2469 75.9515 53.2469 75.9515 52.7921 76.2012C52.3997 76.2702 52.092 76.2912 51.7565 76.0588C51.1155 75.4785 50.8277 74.3675 50.5103 73.5749C50.4307 73.3765 50.3495 73.1788 50.2684 72.9811C50.2173 72.8543 50.1663 72.7275 50.1155 72.6007C50.079 72.5126 50.079 72.5126 50.0419 72.4228C49.8807 72.0142 49.8807 72.0142 49.9141 71.7622C49.9325 71.7205 49.9509 71.6787 49.9699 71.6357C50.3476 72.4979 50.702 73.3689 51.0523 74.2425C51.3754 75.2397 51.3754 75.2397 52.0451 75.9521C52.3043 75.995 52.5366 76.0177 52.7921 75.9521C53.127 75.66 53.3326 75.3465 53.5272 74.9528C53.5557 74.8968 53.5842 74.8409 53.6136 74.7832C53.7054 74.6025 53.7961 74.4213 53.8868 74.2401C53.9501 74.1151 54.0135 73.9902 54.077 73.8653C54.2016 73.62 54.326 73.3745 54.4501 73.1289C54.6554 72.7238 54.8667 72.322 55.0801 71.9211C55.3608 71.3917 55.6329 70.8587 55.8969 70.3207C56.0396 70.0312 56.191 69.7517 56.3615 69.4775Z" fill="#F23B3B"/>
<path d="M23.7402 45.7373C23.9682 45.8873 24.1943 46.0362 24.4124 46.2003C24.9178 46.575 25.438 46.8343 26.0077 47.0917C26.95 47.5182 27.9872 48.071 28.5547 48.9746C28.6553 49.3664 28.6242 49.5893 28.4675 49.959C28.4094 50.1002 28.4094 50.1002 28.3502 50.2442C28.3293 50.2941 28.3084 50.344 28.2869 50.3954C28.1753 50.667 28.0734 50.9423 27.9701 51.2171C27.9051 51.3875 27.84 51.5577 27.7749 51.728C27.7303 51.8448 27.686 51.9617 27.6419 52.0786C27.5771 52.2499 27.5117 52.421 27.4461 52.5919C27.4079 52.6924 27.3696 52.7929 27.3303 52.8965C27.2266 53.125 27.2266 53.125 27.0605 53.208C27.1064 52.7749 27.2126 52.4058 27.3819 52.0037C27.4053 51.9466 27.4288 51.8894 27.4529 51.8306C27.5273 51.6496 27.6026 51.469 27.6779 51.2885C27.7282 51.1667 27.7784 51.0449 27.8285 50.923C27.9207 50.6993 28.0132 50.4758 28.1061 50.2524C28.1445 50.1595 28.183 50.0665 28.2227 49.9707C28.2704 49.8557 28.2704 49.8557 28.319 49.7383C28.4052 49.5123 28.429 49.3807 28.3887 49.1406C28.259 48.9575 28.1378 48.8079 27.984 48.6478C27.942 48.6035 27.9 48.5593 27.8567 48.5137C27.3174 47.9632 26.7036 47.6729 26.0117 47.3503C25.9349 47.3145 25.8582 47.2787 25.7791 47.2418C25.7027 47.2063 25.6263 47.1707 25.5475 47.1341C24.8866 46.8212 24.229 46.4621 23.7402 45.9033C23.7402 45.8485 23.7402 45.7937 23.7402 45.7373Z" fill="#DD3724"/>
<path d="M39.4297 60.6787C39.5393 60.9801 39.4861 61.1388 39.3625 61.4293C39.3271 61.514 39.2917 61.5988 39.2553 61.6861C39.1957 61.8251 39.1957 61.8251 39.1349 61.967C39.0719 62.1177 39.009 62.2684 38.9462 62.4192C38.9014 62.5268 38.8565 62.6343 38.8115 62.7418C38.5393 63.393 38.28 64.0493 38.0202 64.7056C37.9708 64.8302 37.9213 64.9548 37.8719 65.0793C37.7471 65.3937 37.6225 65.708 37.498 66.0224C37.3689 66.3481 37.2397 66.6738 37.1105 66.9995C36.8597 67.6318 36.609 68.2641 36.3584 68.8965C36.2762 68.8965 36.194 68.8965 36.1094 68.8965C36.2435 68.5482 36.3777 68.2 36.5122 67.8518C36.5577 67.7338 36.6032 67.6158 36.6486 67.4978C36.7146 67.3263 36.7808 67.1548 36.847 66.9834C36.8667 66.9323 36.8863 66.8811 36.9066 66.8284C37.0334 66.5009 37.1662 66.1762 37.3018 65.8523C37.5265 65.3152 37.7426 64.775 37.9576 64.2341C38.0183 64.0818 38.079 63.9294 38.1398 63.7771C38.2877 63.4061 38.4354 63.035 38.583 62.6638C38.6666 62.4535 38.7503 62.2433 38.8342 62.0331C38.9128 61.836 38.9912 61.6389 39.0695 61.4416C39.1047 61.3535 39.1399 61.2653 39.1762 61.1744C39.2072 61.0965 39.2382 61.0186 39.2702 60.9383C39.3467 60.7617 39.3467 60.7617 39.4297 60.6787Z" fill="#D83321"/>
<path d="M33.6494 11.2007C33.7184 11.201 33.7875 11.2014 33.8586 11.2018C34.0275 11.2028 34.1964 11.2043 34.3654 11.2058C34.3654 11.2332 34.3654 11.2606 34.3654 11.2889C34.2087 11.3011 34.2087 11.3011 34.0489 11.3135C31.9344 11.4917 30.0905 12.0587 28.6015 13.6546C28.0498 14.3151 27.6829 15.0841 27.3097 15.8543C27.2135 15.5667 27.2261 15.5238 27.3499 15.2191C27.4111 15.0997 27.4739 14.9812 27.538 14.8634C27.5887 14.7696 27.5887 14.7696 27.6405 14.6739C28.5599 13.0327 30.0467 11.9456 31.844 11.4186C32.4565 11.2563 33.0187 11.1941 33.6494 11.2007Z" fill="#E8412E"/>
<path d="M65.7422 32.041C66.1635 32.8554 65.9917 33.9097 65.7529 34.767C65.4422 35.6368 64.9975 36.3898 64.4287 37.1158C63.9628 37.7288 63.6292 38.3346 63.4682 39.0899C63.4433 39.1754 63.4433 39.1754 63.418 39.2627C63.3358 39.3038 63.3358 39.3038 63.252 39.3457C63.2978 38.4133 63.6698 37.7698 64.2325 37.0474C64.5769 36.605 64.8748 36.1648 65.1248 35.6622C65.1505 35.611 65.1762 35.5598 65.2027 35.507C65.5862 34.7027 65.6989 33.9561 65.7162 33.0682C65.7191 32.969 65.7219 32.8699 65.7248 32.7677C65.7316 32.5255 65.7374 32.2833 65.7422 32.041Z" fill="#E03C28"/>
<path d="M21.9971 65.7422C22.1076 66.0737 22.0212 66.1975 21.8936 66.5201C21.863 66.5985 21.863 66.5985 21.8316 66.6785C21.7876 66.7908 21.7432 66.903 21.6984 67.015C21.6285 67.1902 21.5596 67.3658 21.491 67.5415C21.2901 68.0543 21.0856 68.5652 20.8697 69.0719C20.4085 70.0682 20.4085 70.0682 20.4199 71.1377C20.5774 71.3581 20.681 71.4342 20.918 71.5527C21.4444 71.5483 21.9235 71.4044 22.4121 71.2207C22.1542 71.6076 21.7714 71.687 21.333 71.8018C20.9681 71.8077 20.7599 71.7458 20.477 71.5268C20.1454 71.1952 20.1454 71.1952 20.0879 70.9717C20.1248 70.4491 20.2596 70.0198 20.4549 69.5362C20.4833 69.4642 20.5117 69.3921 20.5409 69.3179C20.6313 69.089 20.7227 68.8604 20.8142 68.6319C20.8744 68.4801 20.9345 68.3283 20.9945 68.1765C21.1099 67.8846 21.2258 67.593 21.3419 67.3014C21.5124 66.8722 21.677 66.441 21.8392 66.0086C21.9141 65.8252 21.9141 65.8252 21.9971 65.7422Z" fill="#D83927"/>
<path d="M21.7471 21.333C21.8019 21.3604 21.8566 21.3878 21.9131 21.416C21.8851 21.4682 21.857 21.5204 21.8281 21.5742C21.2908 22.6054 21.2329 23.5969 21.2468 24.7483C21.2478 24.9209 21.2488 25.0934 21.2498 25.266C21.2519 25.5341 21.2542 25.8022 21.257 26.0704C21.2595 26.3318 21.261 26.5932 21.2623 26.8546C21.2634 26.9346 21.2646 27.0145 21.2657 27.0968C21.2672 27.5067 21.2453 27.8382 21.083 28.2227C21.0556 28.2227 21.0282 28.2227 21 28.2227C21 26.4421 21 24.6616 21 22.8271C21.0548 22.7998 21.1096 22.7724 21.166 22.7441C21.2255 22.5871 21.2781 22.4275 21.3268 22.2668C21.4317 21.9221 21.5504 21.6356 21.7471 21.333Z" fill="#E55B4F"/>
<path d="M45.0742 59.6826C45.3266 59.8949 45.4173 60.1236 45.5363 60.4277C45.5762 60.5287 45.6161 60.6297 45.6572 60.7337C45.6998 60.8433 45.7424 60.953 45.785 61.0626C45.8292 61.175 45.8734 61.2874 45.9178 61.3998C46.0082 61.6291 46.0982 61.8585 46.1881 62.0879C46.3448 62.4876 46.5047 62.886 46.6649 63.2843C46.7986 63.6171 46.9313 63.9503 47.064 64.2835C47.1405 64.4749 47.2181 64.6658 47.296 64.8567C47.3349 64.9537 47.3739 65.0508 47.414 65.1508C47.446 65.2293 47.478 65.3078 47.511 65.3888C47.5645 65.5762 47.5645 65.5762 47.4814 65.8252C47.4575 65.7584 47.4335 65.6917 47.4088 65.6229C47.3376 65.3991 47.3376 65.3991 47.1494 65.3271C47.0953 65.1783 47.0953 65.1783 47.044 64.9796C46.8837 64.4128 46.6552 63.8777 46.4283 63.335C46.3446 63.1345 46.2613 62.9339 46.1783 62.7332C46.1416 62.6454 46.105 62.5577 46.0672 62.4673C45.9873 62.2559 45.9873 62.2559 45.9873 62.0898C45.9325 62.0625 45.8777 62.0351 45.8213 62.0068C45.7681 61.8609 45.7681 61.8609 45.7175 61.6644C45.5913 61.2124 45.4207 60.786 45.2387 60.3543C45.1399 60.1158 45.0742 59.9436 45.0742 59.6826Z" fill="#F23B3B"/>
<path d="M47.7305 66.3232C47.9998 66.5437 48.0873 66.8027 48.2107 67.1228C48.2321 67.1777 48.2534 67.2326 48.2755 67.2892C48.3452 67.4685 48.414 67.6481 48.4827 67.8278C48.5546 68.0137 48.6267 68.1996 48.6988 68.3855C48.7475 68.5109 48.7961 68.6364 48.8446 68.7619C48.9983 69.1591 49.1558 69.5545 49.317 69.9487C49.3559 70.0441 49.3948 70.1394 49.4349 70.2377C49.508 70.4164 49.5815 70.5948 49.6556 70.7731C49.6878 70.8522 49.72 70.9313 49.7531 71.0129C49.7815 71.0815 49.8098 71.1501 49.839 71.2208C49.8887 71.3867 49.8887 71.3867 49.8057 71.5527C49.581 71.2832 49.4599 71.0116 49.3326 70.6857C49.3127 70.635 49.2928 70.5842 49.2722 70.532C49.2305 70.4253 49.189 70.3186 49.1477 70.2118C49.0844 70.0479 49.0203 69.8845 48.956 69.7211C48.6436 68.9205 48.6436 68.9205 48.6436 68.7305C48.5888 68.7031 48.534 68.6757 48.4775 68.6475C48.4222 68.4538 48.3669 68.2601 48.3115 68.0664C48.2567 68.039 48.202 68.0116 48.1455 67.9834C48.1285 67.85 48.1119 67.7166 48.0972 67.583C48.0412 67.2913 47.9185 67.029 47.8002 66.7577C47.7305 66.5723 47.7305 66.5723 47.7305 66.3232Z" fill="#F23B3B"/>
<path d="M27.4766 69.2285C27.4766 69.2833 27.4766 69.3381 27.4766 69.3945C27.3343 69.4504 27.1921 69.5063 27.0499 69.5622C26.9568 69.5987 26.8638 69.6353 26.7679 69.673C26.5608 69.7543 26.3536 69.8356 26.1463 69.9167C25.6483 70.1117 25.1506 70.3076 24.6549 70.5085C24.443 70.5944 24.2308 70.6796 24.0186 70.7647C23.8675 70.8257 23.7168 70.8876 23.566 70.9496C23.474 70.9864 23.382 71.0232 23.2873 71.0612C23.2064 71.094 23.1256 71.1269 23.0423 71.1608C22.8175 71.2237 22.7116 71.2185 22.4961 71.1377C22.9118 70.9145 23.3032 70.7569 23.7566 70.6296C23.9926 70.5559 24.2151 70.4678 24.4426 70.3712C24.5732 70.316 24.5732 70.316 24.7065 70.2598C24.7989 70.2208 24.8912 70.1818 24.9863 70.1416C25.375 69.9797 25.7642 69.8193 26.1536 69.6591C26.2539 69.6174 26.3543 69.5758 26.4576 69.5328C26.5534 69.4935 26.6493 69.4542 26.748 69.4137C26.8342 69.3781 26.9205 69.3424 27.0093 69.3057C27.2275 69.2285 27.2275 69.2285 27.4766 69.2285Z" fill="#D73624"/>
<path d="M26.5615 54.1211C26.6163 54.1211 26.6711 54.1211 26.7275 54.1211C26.6445 54.3701 26.5615 54.6191 26.4785 54.8682C26.4554 54.9399 26.4324 55.0116 26.4086 55.0856C26.2932 55.4227 26.1639 55.7532 26.0327 56.0844C26.0059 56.1524 25.9791 56.2203 25.9514 56.2903C25.8949 56.4334 25.8383 56.5765 25.7817 56.7195C25.6955 56.9371 25.6096 57.1548 25.5238 57.3725C25.4686 57.5121 25.4134 57.6517 25.3582 57.7913C25.3328 57.8557 25.3074 57.9201 25.2812 57.9865C25.2105 58.1648 25.1392 58.3427 25.0674 58.5205C25.0451 58.5762 25.0228 58.6318 24.9998 58.6891C24.9045 58.9204 24.831 59.0889 24.6523 59.2676C24.7053 58.8199 24.8511 58.4356 25.0165 58.0202C25.0447 57.9483 25.0728 57.8764 25.1019 57.8024C25.192 57.5729 25.2827 57.3437 25.3735 57.1146C25.4329 56.9634 25.4923 56.8123 25.5516 56.6611C25.885 55.8131 26.222 54.9666 26.5615 54.1211Z" fill="#DD3A28"/>
<path d="M27.0615 15.9375C27.1163 15.9375 27.1711 15.9375 27.2275 15.9375C26.9218 17.0993 26.1136 17.8366 25.1138 18.4248C25.0663 18.4521 25.0188 18.4794 24.9698 18.5075C24.8117 18.5987 24.655 18.6922 24.4983 18.786C24.393 18.8483 24.2876 18.9104 24.1822 18.9725C24.1324 19.0023 24.0825 19.0321 24.0312 19.0628C23.9097 19.133 23.7842 19.1961 23.6582 19.2578C23.6034 19.2304 23.5486 19.203 23.4922 19.1748C23.9339 18.8468 24.3782 18.5568 24.867 18.3032C25.5698 17.9324 26.1515 17.5416 26.5635 16.8506C26.5635 16.7684 26.5635 16.6862 26.5635 16.6016C26.6457 16.6016 26.7278 16.6016 26.8125 16.6016C26.9018 16.3814 26.9864 16.163 27.0615 15.9375Z" fill="#E6412D"/>
<path d="M40.4258 8.96491C40.3428 9.13092 40.3428 9.13092 40.1025 9.22107C40.0258 9.24627 40.0258 9.24627 39.9476 9.27199C39.301 9.4849 38.737 9.77423 38.1586 10.1322C36.6257 11.0802 36.6257 11.0802 36.2645 11.0016C36.2133 10.9869 36.1621 10.9722 36.1094 10.9571C36.257 10.8906 36.257 10.8906 36.4077 10.8229C37.0934 10.5091 37.7542 10.1859 38.3869 9.77423C39.6956 8.92544 39.6956 8.92544 40.4258 8.96491Z" fill="#EA412D"/>
<path d="M23.2422 19.3408C23.297 19.3682 23.3518 19.3956 23.4082 19.4238C23.337 19.4911 23.2659 19.5584 23.1926 19.6278C22.1864 20.5953 21.5099 21.6217 21.167 22.9932C21.1396 22.9932 21.1122 22.9932 21.084 22.9932C21.084 21.8686 21.7337 20.8017 22.4951 20.0049C22.7371 19.7746 22.985 19.554 23.2422 19.3408Z" fill="#E7402C"/>
<path d="M28.0099 68.9561C28.2227 68.9794 28.2227 68.9794 28.3488 69.078C28.8487 69.7788 29.2447 70.5824 29.5508 71.3866C29.496 71.4414 29.4412 71.4962 29.3848 71.5526C29.3848 71.4979 29.3848 71.4431 29.3848 71.3866C29.33 71.3592 29.2752 71.3318 29.2188 71.3036C29.1267 71.1283 29.0411 70.9496 28.9594 70.7693C28.9146 70.6718 28.8699 70.5743 28.8238 70.4739C28.7207 70.2245 28.7207 70.2245 28.7207 70.0585C28.6659 70.0311 28.6111 70.0037 28.5547 69.9755C28.507 69.866 28.4624 69.7551 28.4198 69.6435C28.2994 69.3803 28.2994 69.3803 28.0534 69.2492C27.8491 69.2226 27.8491 69.2226 27.5586 69.2284C27.7049 69.0436 27.7713 68.9836 28.0099 68.9561Z" fill="#F23B3B"/>
<path d="M62.9209 42.417C62.9483 42.417 62.9757 42.417 63.0039 42.417C62.9975 43.8116 62.1471 44.9062 61.2607 45.9033C61.1786 45.8759 61.0964 45.8485 61.0117 45.8203C61.0922 45.7484 61.1727 45.6765 61.2556 45.6024C62.0146 44.8372 62.4414 43.9323 62.7549 42.915C62.8099 42.7489 62.8652 42.5829 62.9209 42.417Z" fill="#DF3A26"/>
<path d="M59.184 47.0654C59.184 47.1202 59.184 47.175 59.184 47.2314C59.1397 47.251 59.0954 47.2706 59.0498 47.2908C57.8192 47.84 57.0327 48.3417 56.2787 49.4727C56.2508 49.2985 56.2508 49.2985 56.2787 49.0576C56.4218 48.8612 56.5579 48.6967 56.7249 48.5233C56.7702 48.4754 56.8155 48.4276 56.8622 48.3783C57.2365 47.9949 57.6202 47.7127 58.1049 47.4805C58.187 47.4404 58.269 47.4004 58.3536 47.3592C58.9777 47.0654 58.9777 47.0654 59.184 47.0654Z" fill="#DC3723"/>
<path d="M43.2461 8.71588C44.3233 8.68483 45.8261 9.01197 46.6407 9.76937C46.6983 9.8326 46.756 9.89584 46.8154 9.961C46.5023 9.87035 46.2254 9.74985 45.9387 9.59784C45.0938 9.16844 44.1695 8.98162 43.2461 8.79889C43.2461 8.7715 43.2461 8.7441 43.2461 8.71588Z" fill="#EB422F"/>
<path d="M24.4866 59.3506C24.5414 59.3506 24.5961 59.3506 24.6526 59.3506C24.5275 60.082 24.2247 60.8003 23.9149 61.4721C23.7896 61.747 23.6713 62.0248 23.5527 62.3026C23.5303 62.3551 23.5078 62.4076 23.4847 62.4618C23.4312 62.5868 23.3778 62.7118 23.3245 62.8369C23.2375 62.5735 23.243 62.4338 23.3463 62.1776C23.3713 62.1145 23.3962 62.0514 23.4219 61.9863C23.4496 61.9191 23.4772 61.8518 23.5057 61.7825C23.5335 61.7129 23.5612 61.6434 23.5898 61.5717C23.6786 61.3498 23.7687 61.1284 23.8588 60.907C23.9193 60.7566 23.9796 60.6061 24.0399 60.4556C24.1878 60.0869 24.3369 59.7186 24.4866 59.3506Z" fill="#DD3825"/>
<path d="M43.7461 56.3623C43.9949 56.5732 44.091 56.8004 44.2133 57.0996C44.253 57.1966 44.2926 57.2935 44.3335 57.3934C44.3742 57.4949 44.4149 57.5963 44.4568 57.7008C44.4979 57.8003 44.5389 57.8998 44.5812 58.0024C44.7957 58.5318 44.972 59.0373 45.0742 59.5996C44.7903 59.3738 44.6913 59.0637 44.5648 58.7358C44.5412 58.676 44.5176 58.6161 44.4933 58.5544C44.4437 58.4281 44.3944 58.3017 44.3454 58.1751C44.2702 57.9814 44.194 57.788 44.1175 57.5948C44.0694 57.4719 44.0214 57.349 43.9734 57.2261C43.9506 57.1683 43.9277 57.1104 43.9042 57.0508C43.811 56.8086 43.7461 56.6243 43.7461 56.3623Z" fill="#F23B3B"/>
<path d="M21.9973 42.583C22.1495 42.8112 22.2301 43.0138 22.3171 43.2714C22.5408 43.9271 22.8256 44.4542 23.2382 45.0094C23.3929 45.2182 23.5279 45.4293 23.6575 45.6543C23.0292 45.4135 22.6023 44.5855 22.3345 44.0045C22.2758 43.8634 22.2185 43.7217 22.1633 43.5791C22.1274 43.4884 22.0914 43.3976 22.0544 43.3041C21.991 43.0562 21.9852 42.8379 21.9973 42.583Z" fill="#DF3A27"/>
<path d="M19.5901 30.5469C19.6976 30.8694 19.6213 30.998 19.5175 31.3199C19.2687 32.1511 19.2717 33.0057 19.2581 33.8672C19.0475 33.6566 19.0663 33.5147 19.0605 33.2268C19.0607 33.1625 19.0608 33.0982 19.0609 33.0319C19.0609 32.9659 19.0609 32.9 19.061 32.832C19.0749 32.0857 19.1689 31.1786 19.5901 30.5469Z" fill="#E2402E"/>
<path d="M40.5908 57.6904C40.7227 58.0211 40.6176 58.2336 40.491 58.5546C40.4613 58.6303 40.4613 58.6303 40.431 58.7077C40.389 58.8142 40.3465 58.9206 40.3037 59.0268C40.2383 59.1891 40.1747 59.3519 40.1113 59.5148C39.7672 60.3828 39.7672 60.3828 39.5117 60.5957C39.5619 60.2041 39.6719 59.8756 39.823 59.5114C39.8679 59.4022 39.9128 59.2929 39.9576 59.1836C39.9801 59.1288 40.0027 59.0739 40.0259 59.0175C40.1659 58.6721 40.2953 58.3226 40.4264 57.9738C40.5078 57.7734 40.5078 57.7734 40.5908 57.6904Z" fill="#F23B3B"/>
<path d="M19.4238 34.7803C19.5898 34.8633 19.5898 34.8633 19.6618 35.0578C19.6894 35.1443 19.717 35.2307 19.7455 35.3198C19.9609 35.9093 20.2856 36.3769 20.6605 36.8772C20.7031 36.9343 20.7457 36.9915 20.7896 37.0503C20.8282 37.1009 20.8669 37.1514 20.9067 37.2034C21.0074 37.3637 21.0484 37.5007 21.084 37.6855C20.4683 37.1276 20.0249 36.4458 19.6729 35.6985C19.6477 35.6455 19.6226 35.5925 19.5967 35.5379C19.471 35.2598 19.4238 35.0917 19.4238 34.7803Z" fill="#E03926"/>
<path d="M41.4209 55.5322C41.9961 55.5322 42.5714 55.5322 43.1641 55.5322C43.1641 55.5596 43.1641 55.587 43.1641 55.6152C42.6436 55.6152 42.1231 55.6152 41.5869 55.6152C41.5047 55.8618 41.4226 56.1083 41.3379 56.3623C41.2703 56.5548 41.2013 56.7469 41.1304 56.9382C41.0803 57.0754 41.0803 57.0754 41.0292 57.2154C40.9229 57.4414 40.9229 57.4414 40.6738 57.6074C40.8661 56.8906 41.1402 56.2183 41.4209 55.5322Z" fill="#F23B3B"/>
<path d="M25.8984 25.8984C26.0097 26.1209 25.9605 26.2334 25.9088 26.4743C25.8936 26.547 25.8784 26.6196 25.8628 26.6945C25.8154 26.8945 25.8154 26.8945 25.7324 27.1436C25.6776 27.1436 25.6229 27.1436 25.5664 27.1436C25.5633 27.2126 25.5602 27.2816 25.557 27.3527C25.5515 27.4429 25.5461 27.5331 25.5405 27.626C25.5357 27.7156 25.5308 27.8052 25.5259 27.8974C25.4809 28.1542 25.4375 28.2335 25.2344 28.3887C25.2485 27.8541 25.3598 27.3703 25.5197 26.8634C25.5378 26.8062 25.5558 26.7489 25.5744 26.6899C25.6639 26.4148 25.7586 26.1521 25.8984 25.8984Z" fill="#E53F33"/>
<path d="M43.8281 55.5321C43.7459 55.5732 43.7459 55.5732 43.6621 55.6151C43.7169 55.8616 43.7717 56.1082 43.8281 56.3622C43.7459 56.4033 43.7459 56.4033 43.6621 56.4452C43.5799 56.226 43.4978 56.0069 43.4131 55.7811C43.3035 55.7811 43.1939 55.7811 43.0811 55.7811C42.6107 55.7811 42.1403 55.7811 41.6699 55.7811C41.6699 55.7263 41.6699 55.6715 41.6699 55.6151C41.9051 55.601 42.1403 55.5872 42.3755 55.5736C42.4412 55.5696 42.5069 55.5657 42.5746 55.5616C42.9932 55.5376 43.4088 55.5282 43.8281 55.5321Z" fill="#F23B3B"/>
<path d="M40.5898 50.0535C41.5071 50.0433 42.4143 50.0676 43.3291 50.1365C43.3291 50.1639 43.3291 50.1913 43.3291 50.2195C43.0007 50.2521 42.6721 50.2827 42.3434 50.3129C42.2498 50.3222 42.1561 50.3315 42.0597 50.3411C41.9703 50.3491 41.881 50.3572 41.7889 50.3654C41.665 50.3772 41.665 50.3772 41.5386 50.3891C41.3369 50.3855 41.3369 50.3855 41.1709 50.2195C40.9781 50.1863 40.7843 50.1581 40.5898 50.1365C40.5898 50.1091 40.5898 50.0817 40.5898 50.0535Z" fill="#DE2C31"/>
<path d="M47.6465 10.625C48.1078 10.7749 48.1078 10.7749 48.2963 10.8575C48.7503 11.0522 49.1484 11.0672 49.6387 11.04C49.6661 11.0948 49.6935 11.1496 49.7217 11.2061C49.9731 11.2607 49.9731 11.2607 50.2197 11.2891C50.2197 11.3165 50.2197 11.3438 50.2197 11.3721C49.355 11.3599 48.589 11.2978 47.8125 10.874C47.7577 10.7918 47.7029 10.7097 47.6465 10.625Z" fill="#EC5C4D"/>
<path d="M30.0479 12.3682C30.1026 12.3956 30.1574 12.4229 30.2139 12.4512C30.1597 12.4943 30.1056 12.5374 30.0498 12.5818C29.8995 12.7018 29.7494 12.822 29.5994 12.9424C29.4796 13.0385 29.3595 13.1341 29.2382 13.2284C28.8818 13.511 28.5957 13.8473 28.3047 14.1943C28.3047 13.7521 28.7101 13.4514 29.0101 13.1493C29.327 12.8518 29.6864 12.608 30.0479 12.3682Z" fill="#E96053"/>
<path d="M46.8984 10.0439C47.1777 10.0965 47.3635 10.2037 47.5988 10.3604C48.0834 10.661 48.5918 10.811 49.1396 10.957C49.1396 11.0118 49.1396 11.0666 49.1396 11.123C48.6605 11.0811 48.3041 10.9435 47.879 10.7236C47.821 10.6951 47.7631 10.6665 47.7034 10.6372C47.3844 10.4754 47.1367 10.3179 46.8984 10.0439Z" fill="#E83D2A"/>
<path d="M20.3359 71.2207C20.4164 71.2772 20.4969 71.3337 20.5798 71.3919C20.957 71.6059 21.2526 71.568 21.6641 71.4697C21.9169 71.3961 22.1646 71.3134 22.4111 71.2207C22.1535 71.6072 21.7703 71.6878 21.332 71.8018C20.9673 71.8018 20.8102 71.7578 20.5071 71.5579C20.4506 71.5014 20.3941 71.4449 20.3359 71.3867C20.3359 71.3319 20.3359 71.2771 20.3359 71.2207Z" fill="#F23B3B"/>
<path d="M22.0801 65.9082C22.1831 66.2174 22.1195 66.2799 21.9971 66.5723C21.9659 66.7377 21.9373 66.9036 21.9141 67.0703C21.8593 67.0703 21.8045 67.0703 21.748 67.0703C21.733 67.1264 21.7179 67.1825 21.7023 67.2402C21.6815 67.3143 21.6606 67.3883 21.6391 67.4646C21.6189 67.5378 21.5987 67.611 21.5778 67.6864C21.4973 67.9052 21.3986 68.0543 21.25 68.2324C21.3569 67.6951 21.5078 67.2047 21.7117 66.6968C21.738 66.6296 21.7643 66.5624 21.7913 66.4931C21.9848 66.0035 21.9848 66.0035 22.0801 65.9082Z" fill="#DD554A"/>
<path d="M60.8447 45.9863C60.8995 46.0137 60.9543 46.0411 61.0107 46.0693C60.5853 46.4578 60.1332 46.8357 59.5996 47.0654C59.4086 47.0372 59.4086 47.0372 59.2676 46.9824C59.3549 46.9372 59.3549 46.9372 59.444 46.891C59.945 46.6255 60.4035 46.3428 60.8447 45.9863Z" fill="#DF3622"/>
<path d="M25.7333 56.7773C25.8444 56.9995 25.7816 57.13 25.7113 57.3594C25.6266 57.5886 25.516 57.8006 25.4029 58.0169C25.2693 58.2878 25.1708 58.5682 25.0693 58.8525C24.967 58.5624 25.0047 58.4089 25.1205 58.1278C25.1504 58.0544 25.1802 57.9809 25.211 57.9052C25.243 57.8292 25.275 57.7532 25.3079 57.6749C25.3393 57.5979 25.3706 57.5209 25.4029 57.4416C25.636 56.8747 25.636 56.8747 25.7333 56.7773Z" fill="#DE584C"/>
<path d="M31.793 46.5674C32.1608 46.6935 32.4595 46.8933 32.7735 47.1173C32.8231 47.1522 32.8727 47.1871 32.9238 47.223C33.0452 47.3085 33.1662 47.3944 33.2871 47.4805C33.2049 47.5216 33.2049 47.5216 33.1211 47.5635C33.053 47.5165 32.985 47.4695 32.9149 47.4211C32.8254 47.3602 32.736 47.2994 32.6438 47.2366C32.5109 47.1456 32.5109 47.1456 32.3753 47.0528C32.1679 46.9257 32.0293 46.8525 31.793 46.8164C31.793 46.7342 31.793 46.6521 31.793 46.5674Z" fill="#DB2B30"/>
<path d="M27.3936 15.6055C27.4935 15.9054 27.4513 15.9826 27.3365 16.2695C27.3088 16.3414 27.2811 16.4133 27.2525 16.4874C27.1339 16.7039 27.0185 16.8018 26.8125 16.9336C26.8678 16.7676 26.9232 16.6016 26.9785 16.4355C27.0076 16.3465 27.0367 16.2575 27.0667 16.1658C27.1527 15.9135 27.2047 15.7943 27.3936 15.6055Z" fill="#E95C4D"/>
<path d="M25.898 25.8984C26.0088 26.1201 25.9627 26.2337 25.9136 26.4743C25.8993 26.547 25.8851 26.6196 25.8704 26.6945C25.815 26.8945 25.815 26.8945 25.649 27.1436C25.4966 26.6485 25.6724 26.3341 25.898 25.8984Z" fill="#E53F33"/>
<path d="M28.0203 68.9536C28.2227 68.9796 28.2227 68.9796 28.3887 69.1456C28.3613 69.2277 28.3339 69.3099 28.3057 69.3946C28.2783 69.3672 28.2509 69.3398 28.2227 69.3116C28.1108 69.2924 27.9982 69.2774 27.8854 69.2649C27.7776 69.2529 27.6697 69.2409 27.5586 69.2286C27.7089 69.0387 27.775 68.9835 28.0203 68.9536Z" fill="#D8402F"/>
<path d="M27.1445 23.2422C27.2275 23.4082 27.2275 23.4082 27.2067 23.569C27.1346 23.7674 27.0437 23.841 26.8955 23.9893C26.8086 24.1533 26.7249 24.3191 26.6464 24.4873C26.5634 24.2383 26.5634 24.2383 26.6614 24.0171C26.731 23.8955 26.731 23.8955 26.8021 23.7714C26.8481 23.6898 26.8941 23.6083 26.9415 23.5243C27.0615 23.3252 27.0615 23.3252 27.1445 23.2422Z" fill="#E53F33"/>
<path d="M23.4072 19.1748C23.5442 19.1748 23.6812 19.1748 23.8223 19.1748C23.7472 19.2707 23.6708 19.3656 23.594 19.4601C23.5516 19.5131 23.5092 19.5661 23.4656 19.6206C23.3079 19.7715 23.205 19.806 22.9922 19.8389C23.0453 19.7601 23.0983 19.6814 23.153 19.6002C23.3181 19.3613 23.3181 19.3613 23.4072 19.1748Z" fill="#E7594C"/>
<path d="M57.7734 16.0205C58.0037 16.3083 58.1851 16.6069 58.3545 16.9336C58.3271 16.9884 58.2997 17.0432 58.2715 17.0996C58.0225 16.7883 58.0225 16.7883 58.0225 16.6016C57.9403 16.6016 57.8581 16.6016 57.7734 16.6016C57.7734 16.4098 57.7734 16.2181 57.7734 16.0205Z" fill="#E85E4F"/>
<path d="M24.8193 34.5312C24.8467 34.5312 24.8741 34.5312 24.9023 34.5312C24.9297 34.8326 24.9571 35.1339 24.9854 35.4443C24.958 35.3896 24.9306 35.3348 24.9023 35.2783C24.8476 35.2783 24.7928 35.2783 24.7363 35.2783C24.7637 35.0318 24.7911 34.7853 24.8193 34.5312Z" fill="#E13135"/>
<path d="M19.5078 34.5312C19.7628 34.9138 19.9644 35.2219 19.9229 35.6934C19.6192 35.3344 19.5078 35.0003 19.5078 34.5312Z" fill="#E25E52"/>
<path d="M22.1641 42.832C22.3688 43.0367 22.4672 43.2297 22.5791 43.4961C22.5444 43.6783 22.5444 43.6783 22.4961 43.8281C22.4402 43.7091 22.385 43.5897 22.3301 43.4702C22.2993 43.4037 22.2684 43.3373 22.2367 43.2688C22.1641 43.0811 22.1641 43.0811 22.1641 42.832Z" fill="#E1584C"/>
<path d="M56.6123 69.0625C56.8588 69.1036 56.8588 69.1036 57.1104 69.1455C57.1104 69.1729 57.1104 69.2003 57.1104 69.2285C57.047 69.2354 56.9837 69.2422 56.9184 69.2493C56.6518 69.3237 56.5879 69.4125 56.4463 69.6436C56.4189 69.5614 56.3915 69.4792 56.3633 69.3945C56.4826 69.213 56.4826 69.213 56.6123 69.0625Z" fill="#D84636"/>
<path d="M40.5898 49.8047C40.87 49.7943 40.87 49.7943 41.1709 49.8047C41.2257 49.8594 41.2805 49.9142 41.3369 49.9707C41.1121 50.0831 40.9211 50.0591 40.6729 50.0537C40.6455 49.9715 40.6181 49.8893 40.5898 49.8047Z" fill="#E53F33"/>
<path d="M27.3096 48.1445C27.3644 48.1993 27.4191 48.2541 27.4756 48.3105C27.4208 48.3105 27.366 48.3105 27.3096 48.3105C27.2822 48.3653 27.2548 48.4201 27.2266 48.4766C27.254 48.367 27.2813 48.2574 27.3096 48.1445Z" fill="#DE5649"/>
<path d="M27.8906 69.4775C27.9728 69.5186 27.9728 69.5186 28.0566 69.5605C28.0019 69.6153 27.9471 69.6701 27.8906 69.7266C27.8906 69.6444 27.8906 69.5622 27.8906 69.4775Z" fill="#DB5447"/>
<path d="M27.8906 48.6426C27.9728 48.6837 27.9728 48.6837 28.0566 48.7256C28.0292 48.7804 28.0019 48.8352 27.9736 48.8916C27.9462 48.8094 27.9188 48.7272 27.8906 48.6426Z" fill="#DF5446"/>
<path d="M35.8594 10.791C36.1084 10.874 36.1084 10.874 36.1084 10.874L35.8594 10.791Z" fill="#E86555"/>
<path d="M40.0098 8.79883C40.2588 8.88184 40.2588 8.88184 40.2588 8.88184L40.0098 8.79883Z" fill="#E96A5B"/>
<path d="M44.0781 8.63281C44.3271 8.71582 44.3271 8.71582 44.3271 8.71582L44.0781 8.63281Z" fill="#E86557"/>
<path d="M49.8867 72.3828C50.0527 72.4658 50.0527 72.4658 50.0527 72.4658L49.8867 72.3828Z" fill="#F23B3B"/>
<path d="M29.3848 72.1338C29.5508 72.2168 29.5508 72.2168 29.5508 72.2168L29.3848 72.1338Z" fill="#F23B3B"/>
<path d="M59.2676 70.1416C59.4336 70.2246 59.4336 70.2246 59.4336 70.2246L59.2676 70.1416Z" fill="#DD5243"/>
<path d="M28.0566 69.3115C28.2227 69.3945 28.2227 69.3945 28.2227 69.3945L28.0566 69.3115Z" fill="#DC5648"/>
<path d="M58.1055 47.7295C58.2715 47.8125 58.2715 47.8125 58.2715 47.8125L58.1055 47.7295Z" fill="#E05A4A"/>
<path d="M61.2598 18.8428C61.4258 18.9258 61.4258 18.9258 61.4258 18.9258L61.2598 18.8428Z" fill="#E26353"/>
<path d="M23.9883 18.5938C24.1543 18.6768 24.1543 18.6768 24.1543 18.6768L23.9883 18.5938Z" fill="#E26758"/>
<path d="M59.5996 17.9297C59.7656 18.0127 59.7656 18.0127 59.7656 18.0127L59.5996 17.9297Z" fill="#E46253"/>
<path d="M25.2344 17.9297C25.4004 18.0127 25.4004 18.0127 25.4004 18.0127L25.2344 17.9297Z" fill="#E36557"/>
<path d="M54.7031 11.9531C54.8691 12.0361 54.8691 12.0361 54.8691 12.0361L54.7031 11.9531Z" fill="#E26052"/>
<path d="M53.457 11.3721C53.623 11.4551 53.623 11.4551 53.623 11.4551L53.457 11.3721Z" fill="#E56354"/>
<path d="M50.8008 10.957C50.9668 11.04 50.9668 11.04 50.9668 11.04L50.8008 10.957Z" fill="#E86354"/>
<path d="M36.5234 10.625C36.6895 10.708 36.6895 10.708 36.6895 10.708L36.5234 10.625Z" fill="#E76655"/>
<defs>
<filter id="filter0_d_3199_34" x="19.0605" y="8.61475" width="55.9199" height="75.6294" filterUnits="userSpaceOnUse" color-interpolation-filters="sRGB">
<feFlood flood-opacity="0" result="BackgroundImageFix"/>
<feColorMatrix in="SourceAlpha" type="matrix" values="0 0 0 0 0 0 0 0 0 0 0 0 0 0 0 0 0 0 127 0" result="hardAlpha"/>
<feOffset dx="5" dy="4"/>
<feGaussianBlur stdDeviation="2"/>
<feComposite in2="hardAlpha" operator="out"/>
<feColorMatrix type="matrix" values="0 0 0 0 0 0 0 0 0 0 0 0 0 0 0 0 0 0 0.25 0"/>
<feBlend mode="normal" in2="BackgroundImageFix" result="effect1_dropShadow_3199_34"/>
<feBlend mode="normal" in="SourceGraphic" in2="effect1_dropShadow_3199_34" result="shape"/>
</filter>
</defs>
</svg>
