<svg width="132" height="19" viewBox="0 0 132 19" fill="none" xmlns="http://www.w3.org/2000/svg">
<path d="M26.6709 19H1.47559V4.23438C1.47559 3.83887 1.46094 3.42871 1.41699 3.0332C1.37305 2.6377 1.24121 2.27148 1.03613 1.90527C0.816406 1.55371 0.479492 1.23145 0.0107422 0.953125H8.46289V15.9092H26.6709V19ZM52.0859 19H33.1748C32.1934 19 31.2852 18.751 30.4795 18.2676C29.6592 17.7842 29 17.125 28.5166 16.3047C28.0332 15.4844 27.7842 14.5762 27.7842 13.5947V6.37305C27.7842 5.37695 28.0332 4.46875 28.5166 3.64844C29 2.82812 29.6592 2.16895 30.4795 1.68555C31.2852 1.20215 32.1934 0.953125 33.1748 0.953125H52.0859C53.0674 0.953125 53.9756 1.20215 54.7959 1.68555C55.6162 2.16895 56.2754 2.82812 56.7588 3.64844C57.2422 4.46875 57.4766 5.37695 57.4766 6.37305V13.5947C57.4766 14.5762 57.2422 15.4844 56.7588 16.3047C56.2754 17.125 55.6162 17.7842 54.7959 18.2676C53.9756 18.751 53.0674 19 52.0859 19ZM47.5596 15.9092C48.3652 15.9092 49.0684 15.6162 49.6396 15.0449C50.2109 14.4736 50.5039 13.7705 50.5039 12.9502V7.00293C50.5039 6.19727 50.2109 5.49414 49.6396 4.9082C49.0684 4.33691 48.3652 4.04395 47.5596 4.04395H37.7158C36.9102 4.04395 36.207 4.33691 35.6357 4.9082C35.0498 5.49414 34.7568 6.19727 34.7568 7.00293V12.9502C34.7568 13.7705 35.0498 14.4736 35.6357 15.0449C36.207 15.6162 36.9102 15.9092 37.7158 15.9092H47.5596ZM90.7871 19H65.0498C64.0977 19 63.2773 18.6631 62.5889 17.9746C61.9004 17.2861 61.5635 16.4658 61.5635 15.499V4.08789C61.5635 3.72168 61.5342 3.35547 61.4902 2.97461C61.4463 2.59375 61.3145 2.22754 61.1094 1.87598C60.8896 1.53906 60.5674 1.23145 60.1133 0.953125H90.7871V4.04395H70.0742C69.6494 4.04395 69.2979 4.19043 68.9902 4.4834C68.6826 4.79102 68.5361 5.15723 68.5361 5.58203V14.3711C68.5361 14.7959 68.6826 15.1475 68.9902 15.4551C69.2979 15.7627 69.6494 15.9092 70.0742 15.9092H83.8145V11.6172H72.7842V8.81934H90.7871V19ZM101.407 19H94.4346V4.29297C94.4346 3.89746 94.4199 3.4873 94.376 3.07715C94.332 2.68164 94.2002 2.28613 93.9951 1.91992C93.7754 1.55371 93.4385 1.23145 92.9697 0.953125H101.407V19ZM131.539 19H123.395L108.263 3.80957V19H105.187V4.29297C105.187 3.89746 105.172 3.4873 105.128 3.07715C105.084 2.68164 104.952 2.28613 104.747 1.91992C104.527 1.55371 104.19 1.23145 103.722 0.953125H113.551L128.448 15.9092V0.953125H131.539V19Z" fill="black"/>
</svg>
