<svg width="61" height="61" viewBox="0 0 61 61" fill="none" xmlns="http://www.w3.org/2000/svg">
<g clip-path="url(#clip0_1252_762)">
<path d="M15.6164 30.3818C16.4122 28.6116 17.8878 27.2354 19.7088 26.562C16.8149 23.7486 15.1282 19.9227 15.0025 15.8906C9.14891 16.1297 4.02153 19.8812 2.02355 25.3859C0.920211 29.2399 3.15131 33.2573 7.00691 34.3602C10.4707 35.3508 14.1371 33.6538 15.6213 30.372L15.6176 30.3818H15.6164Z" fill="#CA2B31"/>
<path d="M29.4107 34.4773C29.3119 35.1215 29.1251 35.751 28.8578 36.3451C25.5637 43.6554 16.9652 46.9128 9.65062 43.62C2.33731 40.3272 -0.921456 31.7323 2.37271 24.4209C0.775056 28.0979 2.4618 32.374 6.14165 33.971C9.7507 35.5375 13.9517 33.9466 15.6153 30.3818C16.411 28.6116 17.8866 27.2354 19.7076 26.562C22.2414 29.041 25.5454 30.5831 29.0739 30.9308C29.3826 30.9601 29.6951 30.9796 30.0112 30.9918C29.9563 32.1825 29.7537 33.3622 29.4083 34.5042C29.4095 34.4968 29.4095 34.4883 29.4107 34.4773Z" fill="#831C1C"/>
<path d="M30.608 31.0077C30.3382 31.0077 30.0734 31.0003 29.8122 30.9869C29.479 38.8242 22.8528 44.9071 15.0122 44.574C7.17167 44.241 1.08619 37.6176 1.41939 29.7803C1.73307 22.4115 7.63669 16.508 15.0098 16.1932C14.9964 15.9297 14.9891 15.6649 14.9891 15.3978C14.9891 15.1928 14.9976 14.9939 15.0037 14.789C6.3881 15.1257 -0.324718 22.381 0.0121436 30.9942C0.349005 39.6074 7.60617 46.3174 16.223 45.9807C24.3687 45.6623 30.8984 39.1353 31.2158 30.993C31.0119 31.0015 30.8118 31.0077 30.608 31.0077Z" fill="#100F30"/>
<path d="M30.4103 15.6112C32.1813 16.4067 33.558 17.8817 34.2317 19.7019C37.0462 16.8093 40.8738 15.1232 44.9076 14.9976C44.6696 9.14402 40.914 4.01514 35.4047 2.018C31.5491 0.915124 27.5299 3.14528 26.4266 6.99926C25.4355 10.4616 27.1332 14.1265 30.4164 15.61H30.4115L30.4103 15.6112Z" fill="#FA1D00"/>
<path d="M26.3154 29.3985C25.6709 29.2996 25.0412 29.113 24.4468 28.8458C17.1335 25.553 13.8747 16.9581 17.1688 9.64666C20.463 2.33642 29.0615 -0.920979 36.3748 2.3718C32.6962 0.774821 28.4183 2.46086 26.8207 6.13916C25.2535 9.7467 26.8451 13.9459 30.4114 15.6088C32.1824 16.4042 33.5591 17.8792 34.2328 19.6995C31.7528 22.2322 30.21 25.5347 29.8622 29.0617C29.8329 29.3716 29.8134 29.6839 29.8012 29.9987C28.6099 29.9438 27.4297 29.7413 26.2873 29.396L26.3142 29.3985H26.3154Z" fill="#F04F4F"/>
<path d="M29.7855 30.5941C29.7855 30.3244 29.7928 30.0597 29.8063 29.7986C21.9657 29.4741 15.8717 22.858 16.1963 15.0208C16.5112 7.4043 22.7859 1.39458 30.4116 1.40434C38.0447 1.40434 44.2876 7.46896 44.6074 15.0171C44.871 15.0037 45.1359 14.9964 45.4032 14.9964C45.6082 14.9964 45.8072 15.0049 46.0122 15.011C45.69 6.69182 38.8173 0.00012207 30.4116 0.00012207C21.7887 0.00256207 14.7988 6.99072 14.8013 15.6112C14.8025 23.9902 21.4238 30.8734 29.8001 31.2028C29.8001 31.0003 29.7867 30.7966 29.7867 30.5941H29.7855Z" fill="#100F30"/>
<path d="M30.5934 45.3914C28.8225 44.596 27.4457 43.121 26.772 41.3008C23.9563 44.1873 20.1288 45.8672 16.0974 45.9856C16.3256 51.8465 20.0812 56.9851 25.5979 58.9835C29.4535 60.0863 33.4726 57.8562 34.576 54.0022C35.567 50.5398 33.8693 46.875 30.5861 45.3914H30.5934Z" fill="#8D0000"/>
<path d="M34.6893 31.6018C35.3338 31.7006 35.9636 31.8872 36.558 32.1544C43.8713 35.4472 47.13 44.0421 43.8359 51.3536C40.5417 58.6638 31.9432 61.9212 24.6287 58.6284C28.3073 60.2254 32.5852 58.5394 34.1828 54.8611C35.75 51.2535 34.1584 47.0543 30.5921 45.3914C28.8211 44.596 27.4444 43.121 26.7707 41.3008C29.2532 38.7693 30.7971 35.4667 31.1462 31.9385C31.1755 31.6286 31.195 31.3163 31.2072 31.0015C32.3984 31.0564 33.5787 31.2589 34.7211 31.6042L34.6881 31.6018H34.6893Z" fill="#B60000"/>
<path d="M31.2036 31.1943C30.7447 31.309 30.265 31.309 29.8061 31.1943C29.6828 30.7368 29.6828 30.2549 29.8061 29.7974C30.2577 29.6388 30.7508 29.6388 31.2036 29.7974C31.3805 30.2464 31.3805 30.7454 31.2036 31.1943Z" fill="#100F30"/>
<path d="M45.3836 30.6075C44.5879 32.3777 43.1123 33.7538 41.2913 34.4273C44.1851 37.2406 45.8718 41.0665 45.9976 45.0986C51.8536 44.8607 56.9846 41.1068 58.9826 35.5997C60.0859 31.7457 57.8548 27.7283 53.9992 26.6254C50.5354 25.6347 46.869 27.3318 45.3849 30.6136V30.6087L45.3836 30.6075Z" fill="#B31904"/>
<path d="M31.5882 26.5132C31.6871 25.869 31.8738 25.2395 32.1411 24.6454C35.4365 17.3351 44.0362 14.0789 51.3495 17.3729C58.6628 20.6669 61.9204 29.2631 58.625 36.5733C60.2226 32.8962 58.5359 28.6201 54.856 27.0231C51.247 25.4567 47.046 27.0475 45.3824 30.6124C44.5866 32.3826 43.111 33.7588 41.29 34.4322C38.7563 31.9532 35.4523 30.4111 31.9238 30.0634C31.6797 30.039 31.4344 30.0231 31.1866 30.0109C31.1207 30.0109 31.1866 29.8901 31.1244 29.8877C31.1244 29.8084 30.9901 29.8438 30.9987 29.7633C31.0695 28.6531 31.2672 27.5538 31.5894 26.49C31.5894 26.4937 31.5882 26.5034 31.587 26.5132H31.5882Z" fill="#EE1C00"/>
<path d="M30.3944 29.9816C30.6642 29.9816 30.9254 29.9926 31.1902 30.006C31.521 22.1687 38.1447 16.0834 45.9853 16.4128C53.8258 16.7434 59.9138 23.3643 59.5842 31.2016C59.273 38.5741 53.3669 44.4813 45.9914 44.7936C46.0048 45.0572 46.0121 45.3219 46.0121 45.5891C46.0121 45.794 46.0036 45.9929 45.9975 46.1979C54.6143 45.8611 61.3271 38.607 60.9902 29.9938C60.6534 21.3806 53.3962 14.6706 44.7794 15.0073C36.6337 15.3258 30.1027 21.854 29.7866 29.9963C29.9904 29.9889 30.1931 29.9816 30.3969 29.9816H30.3944Z" fill="#100F30"/>
<path d="M31.2194 30.4062C31.2194 30.6758 31.2121 30.9405 31.1986 31.2016C39.0392 31.5261 45.1332 38.1422 44.8086 45.9795C44.4937 53.5959 38.219 59.6057 30.5933 59.5959C22.9602 59.5959 16.7173 53.5215 16.3975 45.9685C16.1278 45.9819 15.8824 45.9929 15.6151 45.9929C15.4101 45.9929 15.1941 45.9807 14.9927 45.9722C15.3149 54.2974 22.1876 61.0001 30.5933 61.0001C39.2162 60.9965 46.2048 54.0059 46.2012 45.3866C46.1975 37.0088 39.5775 30.128 31.2023 29.7974C31.2108 29.9999 31.2182 30.2037 31.2182 30.4062H31.2194Z" fill="#100F30"/>
</g>
<defs>
<clipPath id="clip0_1252_762">
<rect width="61" height="61" fill="white"/>
</clipPath>
</defs>
</svg>
