<svg width="502" height="432" viewBox="0 0 502 432" fill="none" xmlns="http://www.w3.org/2000/svg">
<g clip-path="url(#clip0_7_2)">
<rect x="28" y="32" width="443" height="326" rx="5" fill="#ECD3D3"/>
<path d="M137.501 71.9998C175.95 -15.6133 342.5 30.5002 364.5 80C386.5 129.5 396.404 209.587 340.404 280.087C284.653 350.274 213.838 367.087 155.404 280.087C110.403 213.087 107 141.5 137.501 71.9998Z" fill="#A0A0A0"/>
<path d="M315.201 17.0199C314.581 19.8299 313.731 30.6599 314.511 32.6399C314.981 33.8299 332.211 43.9199 335.691 46.8699C342.751 52.8699 348.861 60.3199 354.441 67.6999C356.001 67.8599 359.511 56.4299 358.951 54.5099C359.541 55.3299 359.861 55.8799 360.341 56.5899L337.431 122.55C329.531 122.63 321.701 123.15 313.821 123.24L313.131 15.9699C299.371 7.9799 283.711 4.2099 268.001 2.4299C240.971 -0.620101 211.261 2.1199 187.461 15.9699C187.011 21.0699 188.181 26.6599 188.151 31.5899C187.991 62.1199 188.851 92.7399 187.461 123.24C179.601 123.14 171.751 122.63 163.851 122.55C155.671 105.37 149.151 87.3399 143.721 69.0899C150.581 62.1599 156.081 54.0099 163.511 47.5699C166.951 44.5899 184.721 33.7899 185.381 32.6399C187.241 29.4299 185.431 20.5999 186.071 16.6699C185.211 15.6899 184.791 16.8599 183.991 17.0199C218.061 -4.9901 276.571 -5.1101 312.091 13.5499C313.281 14.1699 315.011 16.9099 315.211 17.0199H315.201Z" fill="white"/>
<path d="M143.721 69.0899C142.521 65.0699 141.961 59.9899 139.551 56.5899C146.271 46.7999 172.791 19.2599 183.981 17.0199C184.781 16.8599 185.201 15.6899 186.061 16.6699C185.421 20.5999 187.221 29.4299 185.371 32.6399C184.711 33.7899 166.941 44.5899 163.501 47.5699C156.071 54.0099 150.581 62.1599 143.711 69.0899H143.721Z" fill="#D7D5D2"/>
<path d="M358.941 54.51C359.491 56.43 355.981 67.86 354.431 67.7C348.851 60.32 342.741 52.88 335.681 46.87C332.211 43.92 314.971 33.82 314.501 32.64C313.721 30.66 314.581 19.83 315.191 17.02C332.711 27.07 346.861 37.9 358.931 54.51H358.941Z" fill="#D7D5D2"/>
<path d="M313.821 123.24C271.671 123.76 229.611 123.77 187.461 123.24C188.851 92.7399 187.991 62.1199 188.151 31.5899C225.121 12.6499 273.601 12.4699 310.691 30.8999V15.6299L267.991 2.43994C283.701 4.20994 299.361 7.98994 313.121 15.9799L313.811 123.25L313.821 123.24Z" fill="#D42422"/>
<path d="M267.991 2.43983L310.691 15.6298V30.8998C273.601 12.4698 225.121 12.6498 188.151 31.5898C188.181 26.6598 187.011 21.0598 187.461 15.9698C211.261 2.12983 240.961 -0.620167 267.991 2.43983Z" fill="#D42422"/>
<path d="M333.261 296.12C336.981 300 344.721 311.21 348.881 313.48C351.331 314.82 360.751 317.05 364.501 318.34C338.531 359.36 297.531 385 253.411 403.04V354.44C260.471 354.28 271.841 352.67 278.751 350.97C302.671 345.07 314.791 325.19 325.961 305.15C310.411 320.87 284.451 344.27 262.091 348.2C229.111 353.98 191.301 327.48 172.181 302.38C228.401 351.59 280.151 346.47 333.251 296.13L333.261 296.12Z" fill="#2E2F31"/>
<path d="M476.67 360.69C483.82 368.74 488.69 383.78 491.94 394.02C490.27 397.6 481.29 409.63 480.83 412.42C480.16 416.54 482.75 426.53 481.52 431.51C473.2 431.64 464.84 431.47 456.53 431.51L459.31 374.23L421.12 353.75C424.05 352.1 438.46 342.67 440.21 342.64C441.55 342.62 462.84 351.13 465.2 352.36C468.75 354.21 474.03 357.73 476.66 360.69H476.67Z" fill="#2E2F31"/>
<path d="M494.72 402.34C497.24 411.85 498.77 421.57 500.97 431.15C500.47 431.85 489.71 431.45 487.78 431.5C487.51 420.56 486.5 410.78 494.72 402.34Z" fill="#2E2F31"/>
<path d="M494.721 402.34C486.501 410.78 487.511 420.56 487.781 431.5C485.711 431.55 483.611 431.47 481.531 431.5C482.761 426.52 480.161 416.53 480.841 412.41C481.301 409.62 490.281 397.59 491.951 394.01C492.831 396.79 493.971 399.47 494.731 402.34H494.721Z" fill="#6F7376"/>
<path d="M120.25 334.18C135.93 348.03 155.04 370.97 168.85 387.29C176.78 396.66 185.09 406.23 191.41 416.8C155.55 396.33 120.78 373.91 84.84 353.62L46.65 374.1L49.43 431.38C70.01 431.49 90.64 431.38 111.22 431.38L119.2 392.5L185.5 430.69C208.12 430.65 230.87 431.5 253.54 431.38V402.91C209.42 384.86 168.43 359.23 142.45 318.21C138.9 319.43 115.99 325.4 115.03 326.54L120.24 334.18H120.25Z" fill="#D42422"/>
<path d="M388.938 333.939C372.947 347.762 353.457 370.658 339.373 386.946C331.285 396.298 322.81 405.85 316.365 416.399C352.937 395.969 388.347 372.251 425 352L464 373.782L461.165 430.951C440.176 431.061 419.137 430.951 398.148 430.951L389.5 392.5L322.392 430.263C299.323 430.223 276.121 431.071 253 430.951V402.536C297.997 384.521 339.801 358.941 366.297 318C369.918 319.218 393.283 325.176 394.262 326.314L388.949 333.939H388.938Z" fill="#D42422"/>
<path d="M173.71 296C169.99 299.88 162.25 311.09 158.09 313.36C155.64 314.7 146.22 316.93 142.47 318.22C168.44 359.24 209.44 384.88 253.56 402.92V354.32C246.5 354.16 235.13 352.55 228.22 350.85C204.3 344.95 192.18 325.07 181.01 305.03C196.56 320.75 222.52 344.15 244.88 348.08C277.86 353.86 315.67 327.36 334.79 302.26C278.57 351.47 226.82 346.35 173.72 296.01L173.71 296Z" fill="#2E2F31"/>
<path d="M183.971 307.38C182.551 307.3 188.059 310.67 188.609 312.16C190.069 316.15 216.179 330.53 218.609 333.66C248.109 343.16 253.471 343.38 253.471 343.38C253.471 360.38 253.471 386.99 253.471 402.88C209.821 385.9 167.48 358.7 142.58 318.01C146.1 316.82 156.03 314.37 158.2 313.15C162.3 310.85 168.691 299.05 173.471 296.38C174.671 297.51 175.83 300.77 177.29 302.05L183.971 307.38Z" fill="#2E2F31"/>
<path d="M323.001 307C324.421 306.92 317.051 310.01 316.501 311.5C315.041 315.49 291.292 330.53 288.862 333.66C259.362 343.16 253.001 343.5 253.001 343.5C253.001 360.5 254.001 386.99 254.001 402.88C297.651 385.9 341.601 358.69 366.501 318C362.981 316.81 351.442 314.37 349.272 313.15C345.172 310.85 337.781 298.67 333.001 296C331.801 297.13 331.642 300.77 330.182 302.05L323.001 307Z" fill="#2E2F31"/>
<path d="M185.001 307.38C183.581 307.3 189.09 310.67 189.64 312.16C191.1 316.15 217.21 330.53 219.64 333.66C249.14 343.16 255.501 343.5 255.501 343.5C255.501 360.5 254.501 386.99 254.501 402.88C210.851 385.9 166.901 358.69 142.001 318C145.521 316.81 157.06 314.37 159.23 313.15C163.33 310.85 169.721 299.05 174.501 296.38C175.701 297.51 176.86 300.77 178.32 302.05L185.001 307.38Z" fill="#2E2F31"/>
<path d="M29.3001 360.57C22.1501 368.62 17.2801 383.66 14.0301 393.9C15.7001 397.48 24.6801 409.51 25.1401 412.3C25.8101 416.42 23.2201 426.41 24.4501 431.39C32.7701 431.52 41.1301 431.35 49.4401 431.39L46.6601 374.11L84.8501 353.63C81.9201 351.98 67.5101 342.55 65.7601 342.52C64.4201 342.5 43.1301 351.01 40.7701 352.24C37.2201 354.09 31.9401 357.61 29.3101 360.57H29.3001Z" fill="#2E2F31"/>
<path d="M111.23 431.38C135.92 431.38 160.85 430.73 185.52 430.69L119.22 392.5L111.24 431.38H111.23Z" fill="white"/>
<path d="M398 431C372.742 431 347.238 430.348 322 430.308L389.827 392L397.99 431H398Z" fill="white"/>
<path d="M11.2499 402.22C8.7299 411.73 7.1999 421.45 4.9999 431.03C5.4999 431.73 16.2599 431.33 18.1899 431.38C18.4599 420.44 19.4699 410.66 11.2499 402.22Z" fill="#2E2F31"/>
<path d="M11.2502 402.22C19.4702 410.66 18.4602 420.44 18.1902 431.38C20.2602 431.43 22.3602 431.35 24.4402 431.38C23.2102 426.4 25.8102 416.41 25.1302 412.29C24.6702 409.5 15.6902 397.47 14.0202 393.89C13.1402 396.67 12.0002 399.35 11.2402 402.22H11.2502Z" fill="#6F7376"/>
<path d="M478.001 362.5C475.371 359.54 469.551 355.35 466.001 353.5C463.641 352.27 442.341 342.98 441.001 343C439.251 343.02 425.491 351.98 422.571 353.63C386.621 373.92 351.861 396.34 316.001 416.81C322.321 406.24 330.641 396.67 338.561 387.3C352.371 370.98 371.481 348.04 387.161 334.19C388.731 332.81 389.409 325.5 394.909 327.5C402.819 329.79 410.901 333.28 418.751 335.58C424.261 337.2 430.031 339.33 435.411 341.13C438.151 342.05 441.361 341.03 441.661 341.13C453.271 345.15 470.751 352.85 478.001 362.5Z" fill="white"/>
<path d="M28.501 361.5C31.131 358.54 37.951 355.48 41.501 353.63C43.861 352.4 65.661 342.98 67.001 343C68.751 343.02 82.511 351.98 85.431 353.63C121.381 373.92 155.641 396.53 191.501 417C185.181 406.43 177.361 396.67 169.441 387.3C155.631 370.98 136.521 348.04 120.841 334.19C119.271 332.81 118.593 325.5 113.093 327.5C105.183 329.79 97.101 333.28 89.251 335.58C83.741 337.2 77.971 339.33 72.591 341.13C69.851 342.05 66.641 341.03 66.341 341.13C54.731 345.15 35.751 351.85 28.501 361.5Z" fill="white"/>
<path d="M143.721 69.0898C149.161 87.3398 155.681 105.37 163.851 122.55C155.681 122.47 133.591 120.31 127.401 121.86C125.501 122.33 121.931 126.47 121.501 128.46C119.861 135.94 124.961 174.74 126.361 184.7C127.871 195.47 129.921 210.51 132.611 220.8C154.771 305.66 305.221 311.44 354.781 248.57C369.721 229.61 376.051 173.47 377.691 148.59C378.131 141.9 381.101 124 372.481 121.86C366.611 120.4 345.241 122.47 337.421 122.55L360.331 56.5898C393.131 105.22 386.271 165.66 374.221 220.09C366.961 252.86 357.911 272.75 333.261 296.11C280.161 346.45 228.411 351.57 172.191 302.36C170.731 301.08 168.531 299.32 167.331 298.19C113.561 247.57 97.5309 117.86 139.561 56.5798C141.961 59.9798 142.531 65.0598 143.731 69.0798L143.721 69.0898Z" fill="#D42422"/>
<path d="M126.5 339.5C126.5 339.5 120.683 325.712 116.5 325.999C115.697 326.054 115.268 326.258 114.5 326.499C113.497 326.814 112.5 327.499 112.5 327.499L126.5 339.5Z" fill="#D42422"/>
<path d="M379 347C379 347 388.817 330.712 393 330.998C393.803 331.053 394.232 331.258 395 331.499C396.003 331.813 397 333 397 333L379 347Z" fill="#D42422"/>
<path d="M361.343 131H137.375C133.006 131 129.463 134.487 129.538 138.856C129.892 159.628 132.539 216.172 150.5 242C174.532 276.557 206.409 282 248.5 282C292.5 282 326.709 280.488 351.5 242C368.461 215.67 369.427 159.161 369.182 138.644C369.131 134.362 365.625 131 361.343 131Z" fill="white"/>
<path d="M224 131L212.492 279.764C195.373 277.109 180.395 271.584 167.304 260.646L174.681 131H224Z" fill="#D5D5D5"/>
</g>
<defs>
<clipPath id="clip0_7_2">
<rect width="501.97" height="431.86" fill="white"/>
</clipPath>
</defs>
</svg>
