<svg width="94" height="23" viewBox="0 0 94 23" fill="none" xmlns="http://www.w3.org/2000/svg">
<path d="M0 7C0 3.68629 2.68629 1 6 1H88C91.3137 1 94 3.68629 94 7V16C94 19.3137 91.3137 22 88 22H6C2.68629 22 0 19.3137 0 16V7Z" fill="#D42422"/>
<path d="M30.3027 12.082C30.5859 12.082 30.8203 11.9844 31.0254 11.7793C31.2305 11.5742 31.3281 11.3301 31.3281 11.0469V9.05469C31.3281 8.77148 31.2305 8.53711 31.0254 8.33203C30.8203 8.12695 30.5859 8.0293 30.3027 8.0293H21.2988V12.082H30.3027ZM21.2988 18H16.6504V8.15625C16.6504 7.89258 16.6406 7.61914 16.6113 7.35547C16.582 7.0918 16.4941 6.84766 16.3574 6.60352C16.2109 6.36914 15.9863 6.1543 15.6738 5.96875H33.6523C34.2871 5.96875 34.834 6.19336 35.293 6.65234C35.752 7.11133 35.9766 7.66797 35.9766 8.30273V11.8086C35.9766 12.4434 35.752 12.9902 35.293 13.4492C34.834 13.9082 34.2871 14.1426 33.6523 14.1426H21.2988V18ZM49.1992 18H44.5508V8.0293H37.0508V5.96875H56.6895V8.0293H49.1992V18ZM75.4004 18H58.3984V15.9395H72.0508C72.334 15.9395 72.5781 15.8223 72.7832 15.5977C72.9785 15.373 73.0762 15.1191 73.0762 14.8359V14.0449C73.0762 13.7617 72.9785 13.5176 72.7832 13.3125C72.5781 13.1172 72.334 13.0195 72.0508 13.0195H60.7227C60.0879 13.0195 59.541 12.7852 59.082 12.3262C58.623 11.8672 58.3984 11.3203 58.3984 10.6855V8.05859C58.3984 7.81445 58.3789 7.57031 58.3496 7.31641C58.3203 7.0625 58.2324 6.81836 58.0957 6.58398C57.9492 6.35938 57.7246 6.1543 57.4219 5.96875H77.2363V8.0293H64.0723C63.7891 8.0293 63.5547 8.12695 63.3496 8.32227C63.1445 8.52734 63.0469 8.77148 63.0469 9.05469V9.85547C63.0469 10.1387 63.1445 10.3926 63.3496 10.6172C63.5547 10.8418 63.7891 10.959 64.0723 10.959H75.4004C76.0352 10.959 76.582 11.1836 77.041 11.6426C77.5 12.1016 77.7246 12.6484 77.7246 13.293V15.666C77.7246 16.3105 77.5 16.8574 77.041 17.3164C76.582 17.7754 76.0352 18 75.4004 18Z" fill="white"/>
</svg>
