<svg width="1060" height="2358" viewBox="0 0 1060 2358" fill="none" xmlns="http://www.w3.org/2000/svg">
<g clip-path="url(#clip0_14_48)">
<path d="M1882.95 427.397L886.402 -95.7969L-328.563 2218.36L667.98 2741.55L1882.95 427.397Z" fill="#676767"/>
<path d="M898.717 5.80121L187.943 -367.361L-702.565 1328.8L8.20855 1701.96L898.717 5.80121Z" fill="#1B1A29"/>
<path d="M882.032 5.39457L158.834 -374.29L-731.673 1321.87L-8.47611 1701.55L882.032 5.39457Z" fill="#6BAE94"/>
<path d="M1275.99 1957.56L1055.23 1841.66L780.83 2364.31L1001.59 2480.21L1275.99 1957.56Z" fill="#6BAE94"/>
<path d="M664.091 439.662H639.653V155.346C639.653 155.346 649.146 156.038 652.191 156.038C655.235 156.038 664.091 155.346 664.091 155.346V439.662Z" fill="#1E0C4C"/>
<path d="M65.4264 1663.47H40.9883V1379.15C40.9883 1379.15 47.0494 1380.7 53.3872 1380.65C58.6457 1380.59 65.4541 1379.15 65.4541 1379.15V1663.47H65.4264Z" fill="#1E0C4C"/>
<path d="M762.37 2208.72L614.551 2208.69L626.119 2191.78L780.774 2188.84L762.37 2208.72Z" fill="#FFFBEE" stroke="black" stroke-width="3" stroke-miterlimit="10"/>
<path d="M93.9598 1624.9L45.3677 1599.39L-111.368 1897.92L-62.7755 1923.43L93.9598 1624.9Z" fill="#F5F1F1"/>
<path d="M248.73 1330.15L200.113 1304.63L43.4295 1603.06L92.0461 1628.59L248.73 1330.15Z" fill="#B31905"/>
<path d="M754.869 365.664L706.228 340.127L549.531 638.588L598.173 664.125L754.869 365.664Z" fill="#B31905"/>
<path d="M911.547 67.1542L862.906 41.6172L706.171 340.152L754.812 365.689L911.547 67.1542Z" fill="#F5F1F1"/>
<path d="M951.523 -8.86685L902.857 -34.4167L862.693 42.0854L911.358 67.6353L951.523 -8.86685Z" fill="#B31905"/>
<path d="M907.28 2214.69L859.51 2192.45L750.714 2426.08L798.484 2448.32L907.28 2214.69Z" fill="#B31905"/>
<path d="M1047.22 1908.06L999.152 1886.06L857.466 2195.52L905.53 2217.53L1047.22 1908.06Z" fill="#F5F1F1"/>
<path d="M1189.54 1603.46L1141.39 1581.04L999.11 1886.58L1047.26 1909L1189.54 1603.46Z" fill="#B31905"/>
<path d="M573.035 194.07C513.725 194.07 469 168.912 469 135.535C469 102.158 513.725 77 573.035 77C632.345 77 677.07 102.158 677.07 135.535C677.07 168.912 632.345 194.07 573.035 194.07Z" fill="#E2AF66"/>
<path d="M573.007 173.313C612.519 173.313 644.55 156.399 644.55 135.535C644.55 114.671 612.519 97.7573 573.007 97.7573C533.495 97.7573 501.464 114.671 501.464 135.535C501.464 156.399 533.495 173.313 573.007 173.313Z" fill="#E6930D"/>
<path d="M438.24 762.159H413.802V477.843C413.802 477.843 423.295 478.535 426.339 478.535C429.383 478.535 438.24 477.843 438.24 477.843V762.159Z" fill="#1E0C4C"/>
<path d="M343.035 515.07C283.725 515.07 239 489.912 239 456.535C239 423.158 283.725 398 343.035 398C402.345 398 447.07 423.158 447.07 456.535C447.07 489.912 402.345 515.07 343.035 515.07Z" fill="#E2AF66"/>
<path d="M343.007 494.313C382.519 494.313 414.55 477.399 414.55 456.535C414.55 435.671 382.519 418.757 343.007 418.757C303.495 418.757 271.464 435.671 271.464 456.535C271.464 477.399 303.495 494.313 343.007 494.313Z" fill="#E6930D"/>
<path d="M0.0349918 1411.07C-59.2752 1411.07 -104 1385.91 -104 1352.53C-104 1319.16 -59.2752 1294 0.0349918 1294C59.3452 1294 104.07 1319.16 104.07 1352.53C104.07 1385.91 59.3452 1411.07 0.0349918 1411.07Z" fill="#E2AF66"/>
<path d="M0.0342941 1390.29C39.5464 1390.29 71.5774 1373.37 71.5774 1352.51C71.5774 1331.64 39.5464 1314.73 0.0342941 1314.73C-39.4779 1314.73 -71.5088 1331.64 -71.5088 1352.51C-71.5088 1373.37 -39.4779 1390.29 0.0342941 1390.29Z" fill="#E6930D"/>
<path d="M15.6313 1177.87C15.6313 1177.87 -30.7834 1197.96 0.0285422 1265.83C-68.6561 1132.46 34.1379 1341.01 0.0285422 1265.83C21.3832 1307.29 -7.8369 1345.03 67.5875 1409.77C229.514 1493.02 392.871 1539.47 444.275 1553.32C612.503 1598.63 716.078 1639.39 853.663 1650.03C906.89 1654.17 874.94 1657.72 874.94 1657.72L969.047 1202.53L1011.27 1022.06L1038.72 934.611L1041.7 839.805C1041.7 839.805 1111.45 808.976 1079.5 794.5C1006.2 761.251 1157.64 834.813 1010.8 752.741C991.634 742.019 532.284 663.671 420.112 561.61C385.057 529.711 250.499 590.151 159.884 547.327C126.173 531.389 215.971 666.819 215.971 666.819C215.971 666.819 165.793 499.779 174.007 609.188C177.766 659.145 103.48 747.236 118.25 773.996C135.69 792.323 135.37 862.35 114.323 896.25C103.988 912.903 86.8701 1068.25 70.1958 1088.19C55.3594 1105.91 27.7417 1122.47 27.7417 1122.47L15.6313 1177.87Z" fill="#FFFBEE"/>
<path d="M1079.78 561.031L965.777 1110.65L851.779 1660.28C860.128 1671.24 875.384 1674.52 887.891 1668.1L889.556 1667.23L1003.55 1117.61L1117.55 567.987L1098.66 564.491L1079.76 560.995L1079.78 561.031Z" fill="#2D2A29"/>
<path d="M1014.58 2160.37H976.39V2364.81H1014.58V2160.37Z" fill="#1A1A29"/>
<path d="M1063.04 2151.67L848.221 2141.07C837.677 2140.55 834.743 2132.91 835.269 2122.37L835.49 2011.36C836.016 2000.81 847.225 1990.24 857.769 1990.77L1072.54 2006.43C1083.08 2006.96 1089 2013.29 1088.48 2023.84L1083.05 2133.55C1082.53 2144.09 1073.56 2152.2 1063.04 2151.67Z" fill="#1A1A29"/>
<path d="M1065.56 2172.32L849.356 2156.71C841.551 2156.16 835.518 2149.65 835.518 2141.82L835.739 2025.69C835.739 2017.03 843.157 2010.2 851.792 2010.86L1072.15 2027.96C1080.12 2028.57 1086.21 2035.41 1085.88 2043.38L1081.5 2158.01C1081.17 2166.43 1073.95 2172.9 1065.54 2172.32H1065.56Z" fill="#322BB7"/>
<path d="M336.543 1988.41C335.768 1988.44 335.104 1987.86 335.049 1987.09C334.301 1976.32 328.157 1947.2 309.753 1936.27C306.708 1934.45 298.156 1934.2 281.08 1933.7C261.79 1933.12 252.158 1932.84 248.367 1934.06C223.68 1942.08 210.284 1985.31 213.08 2016.75C214.463 2032.31 213.661 2044.15 221.521 2063.42C223.68 2068.7 222.462 2075.79 226.032 2083.95C227.471 2087.22 232.065 2099.06 243.966 2105.9C260.821 2115.56 288.857 2118.93 297.824 2120.04C309.642 2121.51 324.615 2124.86 374.266 2127.43C456.741 2131.69 498.394 2128.45 510.931 2128.1C537.445 2127.35 573.037 2124.47 639.128 2117.41C648.842 2116.36 658.916 2115.23 669.35 2106.92C686.205 2093.47 696.5 2079.25 701.233 2053.43C701.233 2053.43 707.377 2044.07 710.698 2035.44C714.075 2026.66 715.569 2022.32 715.569 2022.32C715.569 2022.32 731.871 2021.87 753.984 2023.29C767.186 2024.12 773.772 2024.53 779.751 2021.82C795.055 2014.87 801.864 1980.64 803.414 1955.81C805.213 1927.53 801.283 1898.74 793.118 1887.73C790.793 1884.6 784.151 1877.05 776.651 1876.8C767.296 1876.49 755.036 1875.88 745.432 1875.52C729.906 1874.94 719.416 1873.5 712.802 1877.79C700.292 1885.87 696.417 1912.69 696.417 1912.69C696.417 1912.69 677.016 1911.45 657.145 1909.79C640.677 1908.43 624.348 1907.3 624.348 1907.3C624.348 1907.3 612.724 1888.09 598.942 1872.59C585.408 1857.34 569.245 1851.53 563.654 1849.29C548.156 1843.03 516.854 1842.26 497.868 1850.7C480.875 1858.25 479.602 1871.87 480.681 1888.56C481.041 1894.29 473.458 1896.67 470.469 1895.87C467.839 1895.15 466.871 1891.41 466.096 1889.06C466.096 1889.06 460.062 1866.56 442.848 1864.81C431.722 1863.68 386.776 1861.52 382.624 1863.07C369.423 1868.02 362.67 1885.93 360.179 1893.57C354.533 1910.84 353.73 1927.5 353.73 1927.5C353.73 1927.5 347.835 1930.43 346.424 1935.28C342.3 1949.45 344.708 1976.4 344.486 1986.59C344.486 1987.45 343.794 1988.14 342.936 1988.16L336.543 1988.44V1988.41Z" fill="black"/>
<path d="M209.343 2068.43C230.847 2061.42 288.967 2049.85 301.865 2048.42C319.716 2046.45 371.498 2045.73 383.288 2047.25C403.27 2049.83 408.335 2050.02 430.006 2049.94C450.237 2049.85 459.093 2050.1 479.518 2048.83C498.421 2047.64 522.333 2051.27 538.33 2054.26C576.828 2061.45 607.881 2072.08 619.532 2080.91C619.588 2080.96 622.66 2083.59 622.743 2083.65C627.808 2087.6 625.898 2095.74 619.671 2097.4C613.084 2099.17 601.238 2099.12 593.738 2098.9C563.986 2098.04 540.24 2096.63 518.985 2096.05C509.021 2095.77 479.269 2094 419.239 2091.67C369.976 2089.76 338.314 2088.49 325.998 2087.77C313.682 2087.05 258.883 2084.95 215.238 2083.56C214.242 2083.54 210.92 2083.48 209.288 2082.4C205.164 2079.74 203.863 2074.15 206.686 2070.14C207.046 2069.64 209.094 2068.51 209.343 2068.43Z" fill="#3F3D3D"/>
<path d="M483.421 1864.87C483.033 1865.56 482.12 1865.75 481.484 1865.31C477.858 1862.71 469.694 1859.25 463.024 1848.57C459.204 1842.45 450.652 1823.94 456.962 1814.28C459.813 1809.9 465.376 1810.24 467.922 1810.37C496.982 1812.01 549.512 1814.75 549.512 1814.75C589.421 1816.74 644.137 1815.8 709.563 1815.91C714.268 1816.16 723.651 1817.29 726.889 1822.97C728.909 1826.51 729.601 1831.77 721.686 1846.82C713.66 1862.13 707.46 1870.21 697.414 1887.12C689.194 1900.99 687.312 1905.72 686.841 1911.78C685.845 1924.79 693.733 1933.26 691.934 1934.47C689.526 1936.08 686.869 1912.83 674.249 1912.28C671.26 1912.14 681.998 1899.44 688.197 1882.75C689.138 1880.2 690.273 1876.77 688.64 1874.36C686.205 1870.76 678.871 1871.23 676.297 1871.26C662.735 1871.4 652.301 1871.15 606.746 1870.02C589.891 1869.6 573.23 1865.64 575.085 1869.74C576.053 1871.87 577.825 1875.05 580.786 1883C583.055 1889.17 584.329 1899.82 584.329 1899.82C584.329 1899.82 571.736 1899.68 554.521 1898.05C548.765 1897.5 530.471 1896.17 510.544 1902.18C500.995 1905.05 492.886 1907.35 485.552 1915.99C483.725 1918.14 479.491 1934.75 478.024 1940.76C477.941 1941.03 478.135 1941.28 478.439 1941.31C480.487 1941.5 488.762 1941.72 504.87 1943.61C533.598 1946.98 538.69 1946.51 538.635 1947.18C538.469 1948.89 522.389 1957.56 504.87 1975.38C488.652 1991.9 478.328 2005.96 473.374 2012.69C454.693 2038.18 446.473 2061.26 434.157 2073.02C425.578 2081.21 409.498 2080.16 406.343 2079.72C400.42 2078.86 390.927 2076.95 386.859 2069.78C383.869 2064.52 385.419 2058.93 392.781 2041.83C401.416 2021.76 404.571 2016.37 412.708 1998.68C422.007 1978.51 424.166 1968.6 426.657 1960.93C429.563 1952.08 430.116 1945.99 432.607 1942.55C435.32 1938.85 440.661 1939.65 451.898 1939.93C461.086 1940.12 465.847 1940.06 467.645 1940.01C468.171 1940.01 468.586 1939.65 468.697 1939.15C469.112 1937.32 471.188 1932.4 472.461 1922.74C474.094 1910.45 472.35 1908.71 471.022 1906.77C470.109 1905.47 465.93 1902.09 454.222 1902.06C443.927 1902.04 436.731 1902.23 433.714 1901.93C432.912 1901.84 434.24 1898.69 436.261 1897.3C438.641 1895.64 440.052 1894.26 445.034 1893.07C457.129 1890.22 465.072 1890.11 477.443 1890C499.667 1889.83 506.724 1890.27 514.584 1890.44C537.03 1890.86 551.172 1895.06 554.577 1895.84C555.019 1895.95 555.407 1895.62 555.379 1895.17C555.102 1891.08 553.663 1871.95 548.903 1865.12C543.423 1857.23 535.757 1853.94 532.961 1852.55C529.253 1850.73 513.671 1847.38 500.054 1850.42C491.143 1852.41 485.303 1861.66 483.393 1864.92L483.421 1864.87Z" fill="#F2822B"/>
<path d="M695.421 2021.57C695.421 2058.77 682.994 2086.53 667.717 2086.53C652.439 2086.53 644.884 2057.99 644.884 2020.79C644.884 1983.6 658.058 1955.45 673.335 1955.45C688.612 1955.45 695.421 1984.35 695.421 2021.54V2021.57Z" fill="#F2822B"/>
<path d="M795.415 1948.7C795.415 1979.17 788.247 2001.09 781.439 2001.09C774.63 2001.09 767.656 1979.56 767.656 1949.09C767.656 1918.61 775.793 1893.35 782.629 1893.35C789.465 1893.35 795.443 1918.23 795.443 1948.7H795.415Z" fill="#F2822B"/>
<path d="M671.647 2063.03C680.727 2063.03 688.087 2043.07 688.087 2018.44C688.087 1993.82 680.727 1973.86 671.647 1973.86C662.568 1973.86 655.208 1993.82 655.208 2018.44C655.208 2043.07 662.568 2063.03 671.647 2063.03Z" fill="black"/>
<path d="M781.771 1970.87C784.874 1970.87 787.389 1959.85 787.389 1946.26C787.389 1932.67 784.874 1921.66 781.771 1921.66C778.668 1921.66 776.152 1932.67 776.152 1946.26C776.152 1959.85 778.668 1970.87 781.771 1970.87Z" fill="black"/>
<path d="M491.336 1932.56C490.894 1933.09 491.226 1933.86 491.89 1933.95C500.193 1934.69 538.22 1937.88 545.25 1934.86C549.484 1933.06 553.608 1915.52 554.549 1911.28C554.66 1910.78 554.3 1910.31 553.774 1910.26C547.408 1909.65 529.197 1910.45 515.941 1914.82C504.178 1918.73 494.408 1929.02 491.309 1932.59L491.336 1932.56Z" fill="#1B6D1D"/>
<path d="M463.687 1930.6C463.743 1931.21 463.771 1931.9 463.3 1931.98C457.599 1932.73 433.88 1934.09 429.258 1932.67C425.992 1931.68 423.834 1914.88 423.197 1910.64C423.114 1910.15 423.363 1909.68 423.723 1909.62C428.096 1909.01 442.875 1908.37 451.953 1912.78C460.034 1916.68 463.328 1926.95 463.66 1930.6H463.687Z" fill="#1B6D1D"/>
<path d="M189.029 2214.22L41.21 2214.2L52.7786 2197.29L207.461 2194.32L189.029 2214.22Z" fill="#FFFBEE" stroke="black" stroke-width="3" stroke-miterlimit="10"/>
<path d="M476.613 2210.98L328.766 2210.96L340.335 2194.05L495.017 2191.11L476.613 2210.98Z" fill="#FFFBEE" stroke="black" stroke-width="3" stroke-miterlimit="10"/>
<path d="M363.583 1945.21C363.085 1947.18 363.97 1980.86 363.97 1980.86C363.97 1980.86 396.407 1977.95 396.711 1977.37C397.154 1976.46 390.65 1971.59 390.456 1964.86C390.152 1953.71 396.462 1951.24 396.185 1950.05C395.992 1949.25 375.954 1942.44 368.73 1940.4C366.848 1939.87 364.496 1941.67 363.583 1945.21Z" fill="#F2822B"/>
<path d="M589.891 1945.21C590.389 1947.18 589.504 1980.86 589.504 1980.86C589.504 1980.86 557.067 1977.95 556.763 1977.37C556.32 1976.46 562.824 1971.59 563.018 1964.86C563.322 1953.71 557.012 1951.24 557.289 1950.05C557.482 1949.25 577.52 1942.44 584.744 1940.4C586.625 1939.87 588.978 1941.67 589.891 1945.21Z" fill="#F2822B"/>
</g>
<defs>
<clipPath id="clip0_14_48">
<rect width="1060" height="2358" fill="white"/>
</clipPath>
</defs>
</svg>
