<svg width="284" height="30" viewBox="0 0 284 30" fill="none" xmlns="http://www.w3.org/2000/svg">
<path d="M40.0469 27H29.5977L28.1328 19.2852H12.7227L10.2031 27H0.886719L7.29297 7.3125C7.46875 6.78516 7.60547 6.23828 7.72266 5.71094C7.83984 5.18359 7.82031 4.69531 7.70312 4.20703C7.58594 3.73828 7.27344 3.30859 6.78516 2.9375H42.7227C43.9922 2.9375 44.9492 3.38672 45.5547 4.30469C46.1797 5.22266 46.2773 6.33594 45.8672 7.60547L43.582 14.6172C43.25 15.6914 42.6055 16.6484 41.668 17.4883C40.7305 18.3281 39.6953 18.875 38.5625 19.1484L40.0469 27ZM32.0586 15.1641C32.625 15.1641 33.1719 14.9297 33.7188 14.4805C34.2656 14.0312 34.6367 13.5039 34.8125 12.9375L36.0625 9.10938C36.2383 8.54297 36.1992 8.07422 35.9453 7.66406C35.6719 7.25391 35.2617 7.05859 34.6953 7.05859H16.6875L14.0508 15.1641H32.0586ZM50.2422 29.6172H42.2734L51.8047 0.300781H59.7734L50.2422 29.6172ZM87.0977 15.1641C87.6641 15.1641 88.2109 14.9688 88.7383 14.5586C89.2852 14.1484 89.6367 13.6602 89.832 13.0938L91.1211 9.10938C91.2969 8.54297 91.2578 8.07422 90.9844 7.66406C90.7109 7.25391 90.3008 7.05859 89.7344 7.05859H71.7266L69.0898 15.1641H87.0977ZM65.2422 27H55.9453L62.3516 7.3125C62.5273 6.78516 62.6641 6.23828 62.7812 5.71094C62.8984 5.18359 62.8789 4.69531 62.7617 4.20703C62.6445 3.73828 62.3125 3.30859 61.8242 2.9375H97.7812C99.0508 2.9375 99.9883 3.38672 100.613 4.30469C101.219 5.22266 101.316 6.33594 100.906 7.60547L98.6211 14.6172C98.2109 15.8867 97.4102 16.9805 96.1992 17.8984C94.9883 18.8164 93.7383 19.2852 92.4688 19.2852H67.7617L65.2422 27ZM150.809 27H114.051L118.641 12.918H144.051C144.598 12.918 145.145 12.7227 145.691 12.3125C146.219 11.9023 146.59 11.4336 146.766 10.8672L147.293 9.26562C147.469 8.69922 147.43 8.19141 147.176 7.74219C146.922 7.29297 146.512 7.05859 145.945 7.05859H120.535L121.883 2.9375H153.992C155.262 2.9375 156.199 3.38672 156.824 4.30469C157.43 5.22266 157.527 6.33594 157.117 7.60547L155.574 12.3711C155.164 13.6406 154.344 14.7344 153.133 15.6523C151.922 16.5703 150.691 17.0391 149.402 17.0391H126.609L124.715 22.8789H152.156L150.809 27ZM166.707 18.9336L188.836 7.87891C188.309 7.33203 187.605 7.05859 186.707 7.05859H174.48C173.406 7.05859 172.352 7.44922 171.336 8.21094C170.32 8.99219 169.637 9.92969 169.285 11.0039L166.707 18.9336ZM181.57 22.8789C182.645 22.8789 183.699 22.4883 184.715 21.7266C185.73 20.9648 186.414 20.0273 186.785 18.9336L189.344 11.0234L167.215 22.0781C167.742 22.6055 168.465 22.8789 169.344 22.8789H181.57ZM186.16 27H162.059C160.75 27 159.656 26.668 158.777 26.0234C157.898 25.3789 157.312 24.5 157.02 23.4062C156.727 22.3125 156.785 21.1016 157.215 19.793L160.359 10.1641C160.789 8.83594 161.492 7.625 162.508 6.53125C163.523 5.4375 164.676 4.55859 165.965 3.91406C167.273 3.26953 168.562 2.9375 169.891 2.9375H193.992C195.301 2.9375 196.395 3.26953 197.273 3.91406C198.152 4.55859 198.738 5.4375 199.031 6.53125C199.324 7.625 199.266 8.83594 198.836 10.1641L195.691 19.793C195.262 21.1016 194.559 22.3125 193.543 23.4062C192.547 24.5 191.395 25.3789 190.086 26.0234C188.797 26.668 187.488 27 186.16 27ZM234.324 27H197.566L202.156 12.918H227.566C228.113 12.918 228.66 12.7227 229.207 12.3125C229.734 11.9023 230.105 11.4336 230.281 10.8672L230.809 9.26562C230.984 8.69922 230.945 8.19141 230.691 7.74219C230.438 7.29297 230.027 7.05859 229.461 7.05859H204.051L205.398 2.9375H237.508C238.777 2.9375 239.715 3.38672 240.34 4.30469C240.945 5.22266 241.043 6.33594 240.633 7.60547L239.09 12.3711C238.68 13.6406 237.859 14.7344 236.648 15.6523C235.438 16.5703 234.207 17.0391 232.918 17.0391H210.125L208.23 22.8789H235.672L234.324 27ZM270.77 27H238.68L240.027 22.8789H265.418C265.984 22.8789 266.551 22.6445 267.098 22.1953C267.645 21.7461 267.996 21.2383 268.191 20.6719L268.699 19.0898C268.875 18.5234 268.836 18.0547 268.582 17.6445C268.309 17.2344 267.898 17.0391 267.312 17.0391H241.922L246.512 2.9375H283.25L281.902 7.05859H254.461L252.566 12.918H275.359C276.629 12.918 277.566 13.3672 278.191 14.2852C278.816 15.2031 278.914 16.2969 278.484 17.5859L276.941 22.332C276.531 23.6211 275.711 24.7148 274.5 25.6328C273.289 26.5508 272.059 27 270.77 27Z" fill="white"/>
</svg>
